<?xml version="1.0" encoding="UTF-8"?>
<!DOCTYPE svg PUBLIC "-//W3C//DTD SVG 1.1//EN" "http://www.w3.org/Graphics/SVG/1.1/DTD/svg11.dtd">
<svg xmlns="http://www.w3.org/2000/svg" version="1.1" width="1920px" height="1080px" style="shape-rendering:geometricPrecision; text-rendering:geometricPrecision; image-rendering:optimizeQuality; fill-rule:evenodd; clip-rule:evenodd" xmlns:xlink="http://www.w3.org/1999/xlink">
<g><path style="opacity:1" fill="#737373" d="M 524.5,33.5 C 826.84,33.0228 1129.17,33.5228 1431.5,35C 1582.72,51.0056 1704.55,118.839 1797,238.5C 1889.76,369.049 1917.1,512.382 1879,668.5C 1843,798.457 1768.16,899.291 1654.5,971C 1576.68,1017.87 1492.35,1042.54 1401.5,1045C 1255.5,1045.17 1109.5,1045.33 963.5,1045.5C 809.159,1045.65 654.826,1045.15 500.5,1044C 348.371,1028.33 226.204,960.165 134,839.5C 42.5503,709.453 15.217,566.787 52,411.5C 89.4582,277.758 167.292,174.925 285.5,103C 359.532,60.0794 439.198,36.9127 524.5,33.5 Z"/></g>
</svg>
