<?xml version="1.0" encoding="UTF-8"?>
<!DOCTYPE svg PUBLIC "-//W3C//DTD SVG 1.1//EN" "http://www.w3.org/Graphics/SVG/1.1/DTD/svg11.dtd">
<svg xmlns="http://www.w3.org/2000/svg" version="1.1" width="500px" height="500px" style="shape-rendering:geometricPrecision; text-rendering:geometricPrecision; image-rendering:optimizeQuality; fill-rule:evenodd; clip-rule:evenodd" xmlns:xlink="http://www.w3.org/1999/xlink">
<g><path style="opacity:0.913" fill="#000000" d="M 104.5,-0.5 C 106.833,-0.5 109.167,-0.5 111.5,-0.5C 117.383,0.185537 122.883,2.18554 128,5.5C 131.333,11.5 131.333,17.5 128,23.5C 127.097,24.7014 125.931,25.5348 124.5,26C 133.945,32.8955 134.945,40.8955 127.5,50C 123.768,52.1327 119.768,53.4661 115.5,54C 107.144,54.6653 98.8106,54.4987 90.5,53.5C 90.5,36.1667 90.5,18.8333 90.5,1.5C 95.3384,1.08855 100.005,0.421887 104.5,-0.5 Z M 104.5,10.5 C 108.911,10.021 113.078,10.6876 117,12.5C 117.944,15.3471 117.444,17.8471 115.5,20C 111.94,21.2367 108.273,21.7367 104.5,21.5C 104.5,17.8333 104.5,14.1667 104.5,10.5 Z M 104.5,32.5 C 108.967,32.1326 113.3,32.6326 117.5,34C 120.405,37.3742 120.072,40.3742 116.5,43C 112.796,44.0711 109.129,44.2377 105.5,43.5C 104.511,39.8927 104.177,36.226 104.5,32.5 Z"/></g>
<g><path style="opacity:0.91" fill="#000000" d="M 221.5,0.5 C 225.5,0.5 229.5,0.5 233.5,0.5C 233.5,5.16667 233.5,9.83333 233.5,14.5C 236.5,14.5 239.5,14.5 242.5,14.5C 242.5,17.8333 242.5,21.1667 242.5,24.5C 239.5,24.5 236.5,24.5 233.5,24.5C 233.334,30.1764 233.501,35.8431 234,41.5C 236.594,43.805 239.427,44.1383 242.5,42.5C 242.823,46.226 242.489,49.8927 241.5,53.5C 235.654,55.0747 229.988,54.5747 224.5,52C 222.106,50.0478 220.606,47.5478 220,44.5C 219.5,37.8417 219.334,31.175 219.5,24.5C 217.5,24.5 215.5,24.5 213.5,24.5C 213.5,21.1667 213.5,17.8333 213.5,14.5C 215.5,14.5 217.5,14.5 219.5,14.5C 220.167,9.83333 220.833,5.16667 221.5,0.5 Z"/></g>
<g><path style="opacity:0.935" fill="#000000" d="M 282.5,0.5 C 286.167,0.5 289.833,0.5 293.5,0.5C 293.5,5.16667 293.5,9.83333 293.5,14.5C 296.5,14.5 299.5,14.5 302.5,14.5C 302.5,17.8333 302.5,21.1667 302.5,24.5C 299.5,24.5 296.5,24.5 293.5,24.5C 293.334,29.8437 293.501,35.1771 294,40.5C 295.876,43.4276 298.376,44.0943 301.5,42.5C 304.855,53.6832 300.855,57.5166 289.5,54C 283.031,51.9141 279.864,47.4141 280,40.5C 279.501,35.1771 279.334,29.8437 279.5,24.5C 277.833,24.5 276.167,24.5 274.5,24.5C 274.5,21.1667 274.5,17.8333 274.5,14.5C 276.467,14.7394 278.301,14.4061 280,13.5C 280.645,9.11074 281.478,4.77741 282.5,0.5 Z"/></g>
<g><path style="opacity:0.916" fill="#000000" d="M 148.5,13.5 C 168.758,13.6277 176.258,23.6277 171,43.5C 169.395,49.4378 165.562,52.9378 159.5,54C 143.678,56.5977 135.345,49.9311 134.5,34C 134.143,23.5008 138.809,16.6675 148.5,13.5 Z M 150.5,24.5 C 152.527,24.3379 154.527,24.5045 156.5,25C 158.958,30.7312 159.125,36.5645 157,42.5C 152.517,45.2597 149.85,43.9263 149,38.5C 148.223,33.6649 148.723,28.9983 150.5,24.5 Z"/></g>
<g><path style="opacity:0.915" fill="#000000" d="M 189.5,13.5 C 208.081,12.9233 215.914,21.9233 213,40.5C 211.906,47.8619 207.739,52.3619 200.5,54C 184.762,56.596 176.429,49.9294 175.5,34C 175.149,23.4835 179.816,16.6501 189.5,13.5 Z M 191.5,24.5 C 193.527,24.3379 195.527,24.5045 197.5,25C 198.126,25.7504 198.626,26.5838 199,27.5C 199.667,31.8333 199.667,36.1667 199,40.5C 197.365,44.7704 194.865,45.4371 191.5,42.5C 188.928,36.5035 188.928,30.5035 191.5,24.5 Z"/></g>
<g><path style="opacity:0.902" fill="#000000" d="M 256.5,13.5 C 261.547,13.3375 266.547,13.6708 271.5,14.5C 271.665,18.1817 271.499,21.8484 271,25.5C 268,24.8333 265,24.1667 262,23.5C 259.415,23.9632 257.248,25.1299 255.5,27C 259.725,28.4763 264.058,29.8096 268.5,31C 276.42,37.9004 276.42,44.9004 268.5,52C 266.913,52.8624 265.246,53.5291 263.5,54C 257.144,54.5935 250.811,54.4269 244.5,53.5C 244.5,49.8333 244.5,46.1667 244.5,42.5C 248.154,43.1638 251.82,43.8305 255.5,44.5C 258.073,44.5468 260.073,43.5468 261.5,41.5C 261.291,40.914 260.957,40.414 260.5,40C 253.871,39.7983 248.371,37.2983 244,32.5C 241.728,21.6726 245.894,15.3392 256.5,13.5 Z"/></g>
<g><path style="opacity:0.917" fill="#000000" d="M 324.5,13.5 C 326.833,13.5 329.167,13.5 331.5,13.5C 331.5,17.8333 331.5,22.1667 331.5,26.5C 327.743,26.0708 324.243,26.7375 321,28.5C 320.5,36.8267 320.334,45.16 320.5,53.5C 315.833,53.5 311.167,53.5 306.5,53.5C 306.5,40.5 306.5,27.5 306.5,14.5C 310.182,14.3347 313.848,14.5014 317.5,15C 318.191,16.0674 318.691,17.2341 319,18.5C 320.406,16.2563 322.239,14.5897 324.5,13.5 Z"/></g>
<g><path style="opacity:0.918" fill="#000000" d="M 340.5,13.5 C 347.838,12.8586 354.838,14.0253 361.5,17C 362.211,18.2547 363.044,19.4214 364,20.5C 365.431,31.4225 365.931,42.4225 365.5,53.5C 361.241,53.9975 357.241,53.3308 353.5,51.5C 347.615,55.3178 341.615,55.4845 335.5,52C 329.825,44.701 330.491,38.0343 337.5,32C 342.521,30.896 347.521,29.7294 352.5,28.5C 352.032,26.8662 351.032,25.6995 349.5,25C 344.481,24.5017 339.481,24.6684 334.5,25.5C 334.335,22.1501 334.502,18.8168 335,15.5C 336.948,14.8906 338.782,14.224 340.5,13.5 Z M 348.5,37.5 C 349.833,37.5 351.167,37.5 352.5,37.5C 353.921,43.1132 351.921,45.2799 346.5,44C 344.933,41.0944 345.6,38.9277 348.5,37.5 Z"/></g>
<g><path style="opacity:0.917" fill="#000000" d="M 389.5,13.5 C 399.41,12.5847 405.577,16.918 408,26.5C 411.574,45.0699 404.074,54.4032 385.5,54.5C 385.5,59.5 385.5,64.5 385.5,69.5C 380.833,69.5 376.167,69.5 371.5,69.5C 371.5,51.1667 371.5,32.8333 371.5,14.5C 375.5,14.5 379.5,14.5 383.5,14.5C 383.343,15.8734 383.51,17.2068 384,18.5C 385.352,16.251 387.185,14.5844 389.5,13.5 Z M 385.5,25.5 C 387.857,25.3367 390.19,25.5034 392.5,26C 394.51,30.6089 395.01,35.4423 394,40.5C 391.878,43.315 389.212,44.315 386,43.5C 385.501,37.5092 385.334,31.5092 385.5,25.5 Z"/></g>
<g><path style="opacity:0.987" fill="#8b12fc" d="M 192.5,100.5 C 135.547,172.625 78.3806,244.625 21,316.5C 20.2086,317.745 19.7086,319.078 19.5,320.5C 13.4173,316.642 6.75067,314.308 -0.5,313.5C -0.5,304.5 -0.5,295.5 -0.5,286.5C 12.2761,285.193 22.7761,279.526 31,269.5C 41.9228,253.188 48.5895,235.188 51,215.5C 53.8354,190.586 55.1687,165.586 55,140.5C 60.4388,118.392 74.2722,105.225 96.5,101C 128.498,100.5 160.498,100.333 192.5,100.5 Z"/></g>
<g><path style="opacity:0.995" fill="#8612fb" d="M 192.5,100.5 C 226.5,100.5 260.5,100.5 294.5,100.5C 273.047,127.792 251.38,154.959 229.5,182C 212.334,185.111 195.001,187.778 177.5,190C 170.93,192.238 166.763,196.738 165,203.5C 162.457,224.123 160.457,244.79 159,265.5C 158,268.833 157,272.167 156,275.5C 123.619,315.545 91.6194,355.879 60,396.5C 57.5577,399.117 55.0577,401.45 52.5,403.5C 51.8676,378.49 45.3676,355.156 33,333.5C 29.2644,328.262 24.7644,323.929 19.5,320.5C 19.7086,319.078 20.2086,317.745 21,316.5C 78.3806,244.625 135.547,172.625 192.5,100.5 Z"/></g>
<g><path style="opacity:0.995" fill="#7f11f9" d="M 294.5,100.5 C 330.502,100.333 366.502,100.5 402.5,101C 405.513,101.502 408.513,102.002 411.5,102.5C 382.547,139.292 353.38,175.958 324,212.5C 321.872,209.37 319.372,206.537 316.5,204C 315.004,203.493 313.837,203.993 313,205.5C 309.727,201.617 305.894,199.617 301.5,199.5C 291.035,193.968 280.035,191.135 268.5,191C 242.833,190.333 217.167,190.333 191.5,191C 186.542,191.029 181.876,191.862 177.5,193.5C 175.833,193.5 174.167,193.5 172.5,193.5C 172.5,194.5 172.5,195.5 172.5,196.5C 169.088,198.852 167.254,202.185 167,206.5C 165.937,261.497 165.104,316.497 164.5,371.5C 163.778,371.918 163.278,372.584 163,373.5C 162.951,383.285 162.118,392.952 160.5,402.5C 160.579,406.571 161.579,410.405 163.5,414C 163.138,415.225 162.638,416.391 162,417.5C 139.881,444.44 118.381,471.774 97.5,499.5C 95.8333,499.5 94.1667,499.5 92.5,499.5C 73.1428,493.306 60.6428,480.306 55,460.5C 54.9486,441.402 54.1153,422.402 52.5,403.5C 55.0577,401.45 57.5577,399.117 60,396.5C 91.6194,355.879 123.619,315.545 156,275.5C 157,272.167 158,268.833 159,265.5C 160.457,244.79 162.457,224.123 165,203.5C 166.763,196.738 170.93,192.238 177.5,190C 195.001,187.778 212.334,185.111 229.5,182C 251.38,154.959 273.047,127.792 294.5,100.5 Z"/></g>
<g><path style="opacity:0.996" fill="#7911f7" d="M 411.5,102.5 C 428.571,109.744 439.404,122.411 444,140.5C 444.278,156.848 444.778,173.181 445.5,189.5C 411.225,231.329 377.391,273.662 344,316.5C 342.981,317.687 341.814,318.687 340.5,319.5C 338.5,316.5 336.5,313.5 334.5,310.5C 333.192,309.374 331.858,309.374 330.5,310.5C 326.552,306.727 322.386,303.061 318,299.5C 315.675,296.258 315.342,292.924 317,289.5C 331.772,272.988 336.105,253.988 330,232.5C 328.054,225.942 325.054,219.942 321,214.5C 314.882,208.874 308.382,203.874 301.5,199.5C 305.894,199.617 309.727,201.617 313,205.5C 313.837,203.993 315.004,203.493 316.5,204C 319.372,206.537 321.872,209.37 324,212.5C 353.38,175.958 382.547,139.292 411.5,102.5 Z"/></g>
<g><path style="opacity:0.997" fill="#7310f5" d="M 445.5,189.5 C 446.05,215.7 452.217,240.367 464,263.5C 467.29,268.622 471.123,273.289 475.5,277.5C 417.19,351.481 358.857,425.481 300.5,499.5C 266.5,499.5 232.5,499.5 198.5,499.5C 218.371,474.273 238.371,449.106 258.5,424C 253.136,423.829 247.802,423.329 242.5,422.5C 242.863,421.817 243.196,421.15 243.5,420.5C 254.886,420.291 266.219,420.291 277.5,420.5C 304.997,418.108 325.497,405.108 339,381.5C 350.106,355.985 347.272,332.319 330.5,310.5C 331.858,309.374 333.192,309.374 334.5,310.5C 336.5,313.5 338.5,316.5 340.5,319.5C 341.814,318.687 342.981,317.687 344,316.5C 377.391,273.662 411.225,231.329 445.5,189.5 Z"/></g>
<g><path style="opacity:1" fill="#fdfcfe" d="M 265.5,194.5 C 272.349,194.42 279.016,195.42 285.5,197.5C 273.23,204.974 260.897,212.474 248.5,220C 234.661,220.169 220.994,220.669 207.5,221.5C 206.67,231.992 206.17,242.659 206,253.5C 205.667,250.833 205.333,248.167 205,245.5C 195.167,251.333 185.333,257.167 175.5,263C 174.868,266.27 174.201,269.437 173.5,272.5C 173.5,246.5 173.5,220.5 173.5,194.5C 204.167,194.5 234.833,194.5 265.5,194.5 Z"/></g>
<g><path style="opacity:1" fill="#dcc0f9" d="M 177.5,193.5 C 207.005,193.169 236.338,193.502 265.5,194.5C 234.833,194.5 204.167,194.5 173.5,194.5C 173.5,220.5 173.5,246.5 173.5,272.5C 173.5,292.5 173.5,312.5 173.5,332.5C 173.5,357.167 173.5,381.833 173.5,406.5C 172.501,339.002 172.167,271.335 172.5,203.5C 172.5,201.167 172.5,198.833 172.5,196.5C 172.5,195.5 172.5,194.5 172.5,193.5C 174.167,193.5 175.833,193.5 177.5,193.5 Z"/></g>
<g><path style="opacity:1" fill="#7712f0" d="M 301.5,199.5 C 308.382,203.874 314.882,208.874 321,214.5C 325.054,219.942 328.054,225.942 330,232.5C 336.105,253.988 331.772,272.988 317,289.5C 315.342,292.924 315.675,296.258 318,299.5C 322.386,303.061 326.552,306.727 330.5,310.5C 347.272,332.319 350.106,355.985 339,381.5C 325.497,405.108 304.997,418.108 277.5,420.5C 266.219,420.291 254.886,420.291 243.5,420.5C 223.494,420.29 203.494,419.79 183.5,419C 170.232,418.185 164.065,411.351 165,398.5C 164.5,389.506 164.334,380.506 164.5,371.5C 165.104,316.497 165.937,261.497 167,206.5C 167.254,202.185 169.088,198.852 172.5,196.5C 172.5,198.833 172.5,201.167 172.5,203.5C 170.891,206.149 170.057,209.149 170,212.5C 169.644,262.168 169.144,311.835 168.5,361.5C 168.445,376.191 168.945,390.858 170,405.5C 173.329,411.585 178.496,414.751 185.5,415C 214.833,415.667 244.167,415.667 273.5,415C 288.833,413.445 302.833,408.778 315.5,401C 335.527,384.937 343.36,364.104 339,338.5C 335.867,326.727 330.033,316.561 321.5,308C 320.255,307.209 318.922,306.709 317.5,306.5C 313.108,303.461 308.441,300.795 303.5,298.5C 303.298,296.011 303.798,293.677 305,291.5C 314.644,283.191 320.977,272.858 324,260.5C 324.498,257.183 324.665,253.85 324.5,250.5C 324.793,243.595 323.793,236.928 321.5,230.5C 315.264,213.266 303.264,202.266 285.5,197.5C 279.016,195.42 272.349,194.42 265.5,194.5C 236.338,193.502 207.005,193.169 177.5,193.5C 181.876,191.862 186.542,191.029 191.5,191C 217.167,190.333 242.833,190.333 268.5,191C 280.035,191.135 291.035,193.968 301.5,199.5 Z"/></g>
<g><path style="opacity:1" fill="#faf5fd" d="M 207.5,221.5 C 207.5,242.167 207.5,262.833 207.5,283.5C 221.994,284.331 236.661,284.831 251.5,285C 242.167,285.333 232.833,285.667 223.5,286C 207.665,295.752 191.665,305.252 175.5,314.5C 174.833,320.654 174.167,326.654 173.5,332.5C 173.5,312.5 173.5,292.5 173.5,272.5C 174.201,269.437 174.868,266.27 175.5,263C 185.333,257.167 195.167,251.333 205,245.5C 205.333,248.167 205.667,250.833 206,253.5C 206.17,242.659 206.67,231.992 207.5,221.5 Z"/></g>
<g><path style="opacity:1" fill="#7d12f6" d="M 274.5,277.5 C 269.579,280.197 264.246,282.03 258.5,283C 245.504,283.5 232.504,283.667 219.5,283.5C 214.496,281.199 211.663,277.199 211,271.5C 210.113,259.784 210.446,248.117 212,236.5C 213.587,233.244 216.087,231.077 219.5,230C 231.833,229.333 244.167,229.333 256.5,230C 276.055,231.701 285.555,242.201 285,261.5C 282.225,267.404 278.725,272.737 274.5,277.5 Z"/></g>
<g><path style="opacity:1" fill="#f6eefd" d="M 321.5,230.5 C 323.793,236.928 324.793,243.595 324.5,250.5C 320.922,273.254 307.922,287.754 285.5,294C 288.168,294.567 290.834,295.067 293.5,295.5C 285.898,300.309 278.231,305.142 270.5,310C 274.449,310.807 274.449,311.307 270.5,311.5C 249.52,310.571 228.52,310.237 207.5,310.5C 206.669,325.661 206.169,340.995 206,356.5C 205.667,353.833 205.333,351.167 205,348.5C 195,354.5 185,360.5 175,366.5C 174.5,379.496 174.333,392.496 174.5,405.5C 205.671,405.169 236.671,405.502 267.5,406.5C 236.167,406.5 204.833,406.5 173.5,406.5C 173.5,381.833 173.5,357.167 173.5,332.5C 174.167,326.654 174.833,320.654 175.5,314.5C 191.665,305.252 207.665,295.752 223.5,286C 232.833,285.667 242.167,285.333 251.5,285C 236.661,284.831 221.994,284.331 207.5,283.5C 211.5,283.5 215.5,283.5 219.5,283.5C 232.504,283.667 245.504,283.5 258.5,283C 264.246,282.03 269.579,280.197 274.5,277.5C 285.216,271.409 290.216,262.076 289.5,249.5C 291.355,246.358 294.022,243.858 297.5,242C 304.912,238.212 312.079,234.045 319,229.5C 319.671,230.252 320.504,230.586 321.5,230.5 Z"/></g>
<g><path style="opacity:1" fill="#7a19e8" d="M 207.5,221.5 C 225.17,221.333 242.836,221.5 260.5,222C 277.575,223.579 287.241,232.746 289.5,249.5C 290.216,262.076 285.216,271.409 274.5,277.5C 278.725,272.737 282.225,267.404 285,261.5C 285.555,242.201 276.055,231.701 256.5,230C 244.167,229.333 231.833,229.333 219.5,230C 216.087,231.077 213.587,233.244 212,236.5C 210.446,248.117 210.113,259.784 211,271.5C 211.663,277.199 214.496,281.199 219.5,283.5C 215.5,283.5 211.5,283.5 207.5,283.5C 207.5,262.833 207.5,242.167 207.5,221.5 Z"/></g>
<g><path style="opacity:1" fill="#faf5fd" d="M 285.5,197.5 C 303.264,202.266 315.264,213.266 321.5,230.5C 320.504,230.586 319.671,230.252 319,229.5C 312.079,234.045 304.912,238.212 297.5,242C 294.022,243.858 291.355,246.358 289.5,249.5C 287.241,232.746 277.575,223.579 260.5,222C 242.836,221.5 225.17,221.333 207.5,221.5C 220.994,220.669 234.661,220.169 248.5,220C 260.897,212.474 273.23,204.974 285.5,197.5 Z"/></g>
<g><path style="opacity:0.992" fill="#6e10f4" d="M 475.5,277.5 C 479.985,280.244 484.652,282.744 489.5,285C 492.757,286.043 496.09,286.543 499.5,286.5C 499.5,295.5 499.5,304.5 499.5,313.5C 483.331,316 471.165,324.334 463,338.5C 451.01,363.756 445.01,390.422 445,418.5C 444.667,432.5 444.333,446.5 444,460.5C 438.357,480.306 425.857,493.306 406.5,499.5C 371.167,499.5 335.833,499.5 300.5,499.5C 358.857,425.481 417.19,351.481 475.5,277.5 Z"/></g>
<g><path style="opacity:1" fill="#7822e4" d="M 324.5,250.5 C 324.665,253.85 324.498,257.183 324,260.5C 320.977,272.858 314.644,283.191 305,291.5C 303.798,293.677 303.298,296.011 303.5,298.5C 300.15,297.497 296.817,296.497 293.5,295.5C 290.834,295.067 288.168,294.567 285.5,294C 307.922,287.754 320.922,273.254 324.5,250.5 Z"/></g>
<g><path style="opacity:1" fill="#f1e6fc" d="M 293.5,295.5 C 296.817,296.497 300.15,297.497 303.5,298.5C 308.441,300.795 313.108,303.461 317.5,306.5C 335.445,325.292 339.612,346.959 330,371.5C 321.496,388.328 307.996,398.828 289.5,403C 282.286,404.931 274.953,406.098 267.5,406.5C 236.671,405.502 205.671,405.169 174.5,405.5C 174.333,392.496 174.5,379.496 175,366.5C 185,360.5 195,354.5 205,348.5C 205.333,351.167 205.667,353.833 206,356.5C 206.169,340.995 206.669,325.661 207.5,310.5C 207.5,333.167 207.5,355.833 207.5,378.5C 212.833,378.5 218.167,378.5 223.5,378.5C 231.5,378.5 239.5,378.5 247.5,378.5C 262.655,379.972 276.655,376.805 289.5,369C 300.521,356.101 302.355,341.935 295,326.5C 288.619,318.561 280.453,313.561 270.5,311.5C 274.449,311.307 274.449,310.807 270.5,310C 278.231,305.142 285.898,300.309 293.5,295.5 Z"/></g>
<g><path style="opacity:1" fill="#7315e8" d="M 172.5,203.5 C 172.167,271.335 172.501,339.002 173.5,406.5C 204.833,406.5 236.167,406.5 267.5,406.5C 274.953,406.098 282.286,404.931 289.5,403C 307.996,398.828 321.496,388.328 330,371.5C 339.612,346.959 335.445,325.292 317.5,306.5C 318.922,306.709 320.255,307.209 321.5,308C 330.033,316.561 335.867,326.727 339,338.5C 343.36,364.104 335.527,384.937 315.5,401C 302.833,408.778 288.833,413.445 273.5,415C 244.167,415.667 214.833,415.667 185.5,415C 178.496,414.751 173.329,411.585 170,405.5C 168.945,390.858 168.445,376.191 168.5,361.5C 169.144,311.835 169.644,262.168 170,212.5C 170.057,209.149 170.891,206.149 172.5,203.5 Z"/></g>
<g><path style="opacity:1" fill="#7414e8" d="M 207.5,310.5 C 228.52,310.237 249.52,310.571 270.5,311.5C 280.453,313.561 288.619,318.561 295,326.5C 302.355,341.935 300.521,356.101 289.5,369C 276.655,376.805 262.655,379.972 247.5,378.5C 256.817,377.809 266.15,376.309 275.5,374C 288.992,367.856 294.826,357.356 293,342.5C 290.618,332.226 284.451,325.392 274.5,322C 262.675,319.135 250.675,317.969 238.5,318.5C 231.092,318.387 223.759,318.887 216.5,320C 214.106,321.952 212.606,324.452 212,327.5C 211.637,341.842 211.97,356.175 213,370.5C 214.846,375.491 218.346,378.157 223.5,378.5C 218.167,378.5 212.833,378.5 207.5,378.5C 207.5,355.833 207.5,333.167 207.5,310.5 Z"/></g>
<g><path style="opacity:1" fill="#7911f5" d="M 247.5,378.5 C 239.5,378.5 231.5,378.5 223.5,378.5C 218.346,378.157 214.846,375.491 213,370.5C 211.97,356.175 211.637,341.842 212,327.5C 212.606,324.452 214.106,321.952 216.5,320C 223.759,318.887 231.092,318.387 238.5,318.5C 250.675,317.969 262.675,319.135 274.5,322C 284.451,325.392 290.618,332.226 293,342.5C 294.826,357.356 288.992,367.856 275.5,374C 266.15,376.309 256.817,377.809 247.5,378.5 Z"/></g>
<g><path style="opacity:1" fill="#7911f7" d="M 164.5,371.5 C 164.334,380.506 164.5,389.506 165,398.5C 164.065,411.351 170.232,418.185 183.5,419C 203.494,419.79 223.494,420.29 243.5,420.5C 243.196,421.15 242.863,421.817 242.5,422.5C 247.802,423.329 253.136,423.829 258.5,424C 238.371,449.106 218.371,474.273 198.5,499.5C 164.833,499.5 131.167,499.5 97.5,499.5C 118.381,471.774 139.881,444.44 162,417.5C 162.638,416.391 163.138,415.225 163.5,414C 161.579,410.405 160.579,406.571 160.5,402.5C 162.118,392.952 162.951,383.285 163,373.5C 163.278,372.584 163.778,371.918 164.5,371.5 Z"/></g>
</svg>
