<?xml version="1.0" encoding="UTF-8"?>
<!DOCTYPE svg PUBLIC "-//W3C//DTD SVG 1.1//EN" "http://www.w3.org/Graphics/SVG/1.1/DTD/svg11.dtd">
<svg xmlns="http://www.w3.org/2000/svg" version="1.1" width="500px" height="500px" style="shape-rendering:geometricPrecision; text-rendering:geometricPrecision; image-rendering:optimizeQuality; fill-rule:evenodd; clip-rule:evenodd" xmlns:xlink="http://www.w3.org/1999/xlink">
<g><path style="opacity:0.931" fill="#0d0e0e" d="M 217.5,-0.5 C 225.167,-0.5 232.833,-0.5 240.5,-0.5C 240.5,22.1667 240.5,44.8333 240.5,67.5C 221.833,67.5 203.167,67.5 184.5,67.5C 184.5,59.5 184.5,51.5 184.5,43.5C 195.167,43.5 205.833,43.5 216.5,43.5C 216.184,28.755 216.517,14.0884 217.5,-0.5 Z"/></g>
<g><path style="opacity:0.931" fill="#0d0e0e" d="M 250.5,-0.5 C 271.5,-0.5 292.5,-0.5 313.5,-0.5C 313.5,5.83333 313.5,12.1667 313.5,18.5C 304.045,18.7766 294.711,19.2766 285.5,20C 295.309,29.4763 304.809,39.3097 314,49.5C 314.499,55.4908 314.666,61.4908 314.5,67.5C 293.167,67.5 271.833,67.5 250.5,67.5C 250.5,61.1667 250.5,54.8333 250.5,48.5C 259.9,48.8863 269.234,48.3863 278.5,47C 269.672,36.8394 260.506,27.006 251,17.5C 250.501,11.5092 250.334,5.50924 250.5,-0.5 Z"/></g>
<g><path style="opacity:1" fill="#e4a127" d="M 426.5,98.5 C 422.254,139.307 418.587,180.307 415.5,221.5C 410.182,274.642 405.515,327.975 401.5,381.5C 400.71,382.609 400.21,383.942 400,385.5C 399.501,390.823 399.334,396.156 399.5,401.5C 397.982,409.419 397.315,417.419 397.5,425.5C 397.5,428.167 397.5,430.833 397.5,433.5C 395.751,441.282 394.418,449.282 393.5,457.5C 365.046,466.615 336.379,475.115 307.5,483C 286.893,488.751 266.227,493.917 245.5,498.5C 199.114,484.9 152.447,471.9 105.5,459.5C 103.912,445.524 102.579,431.524 101.5,417.5C 101.745,411.916 101.078,406.583 99.5,401.5C 99.5,398.833 99.5,396.167 99.5,393.5C 99.4766,387.288 98.8099,381.288 97.5,375.5C 89.5477,283.169 81.5477,190.836 73.5,98.5C 131.996,97.1667 190.83,96.5 250,96.5C 309.17,96.5 368.004,97.1667 426.5,98.5 Z"/></g>
<g><path style="opacity:0.382" fill="#eae4d8" d="M 426.5,98.5 C 427.162,100.304 427.495,102.304 427.5,104.5C 423.593,147.659 419.593,190.659 415.5,233.5C 415.5,229.5 415.5,225.5 415.5,221.5C 418.587,180.307 422.254,139.307 426.5,98.5 Z"/></g>
<g><path style="opacity:1" fill="#efbe26" d="M 249.5,422.5 C 250.492,422.672 251.158,422.338 251.5,421.5C 281.242,413.962 310.742,405.628 340,396.5C 344.333,351.508 348.499,306.508 352.5,261.5C 349.167,261.5 345.833,261.5 342.5,261.5C 311.671,260.502 280.671,260.169 249.5,260.5C 249.5,237.5 249.5,214.5 249.5,191.5C 267.238,190.983 284.905,191.817 302.5,194C 304.795,208.367 306.295,222.867 307,237.5C 307.5,238 308,238.5 308.5,239C 323.163,239.5 337.83,239.667 352.5,239.5C 352.528,234.138 352.194,228.805 351.5,223.5C 351.404,217.627 350.737,211.96 349.5,206.5C 348.443,189.48 347.109,172.48 345.5,155.5C 345.354,151.481 345.021,147.481 344.5,143.5C 290.833,143.5 237.167,143.5 183.5,143.5C 205.327,142.503 227.327,142.169 249.5,142.5C 249.5,137.167 249.5,131.833 249.5,126.5C 297.5,126.5 345.5,126.5 393.5,126.5C 385.486,229.699 376.152,332.699 365.5,435.5C 327.02,446.787 288.353,457.454 249.5,467.5C 249.5,452.5 249.5,437.5 249.5,422.5 Z"/></g>
<g><path style="opacity:1" fill="#eaebeb" d="M 183.5,143.5 C 237.167,143.5 290.833,143.5 344.5,143.5C 345.021,147.481 345.354,151.481 345.5,155.5C 344.883,155.389 344.383,155.056 344,154.5C 343.788,151.242 343.288,148.076 342.5,145C 311.502,144.5 280.502,144.333 249.5,144.5C 249.5,160.167 249.5,175.833 249.5,191.5C 235.5,191.5 221.5,191.5 207.5,191.5C 205.301,214.489 203.301,237.489 201.5,260.5C 217.5,260.5 233.5,260.5 249.5,260.5C 280.671,260.169 311.671,260.502 342.5,261.5C 311.167,261.5 279.833,261.5 248.5,261.5C 248.5,275.833 248.5,290.167 248.5,304.5C 267.167,304.5 285.833,304.5 304.5,304.5C 304.737,305.791 304.404,306.791 303.5,307.5C 253.511,305.505 203.178,304.838 152.5,305.5C 153.433,283.439 155.1,261.439 157.5,239.5C 158.996,233.395 159.663,227.062 159.5,220.5C 161.239,194.774 163.573,169.107 166.5,143.5C 172.167,143.5 177.833,143.5 183.5,143.5 Z"/></g>
<g><path style="opacity:1" fill="#fefefd" d="M 345.5,155.5 C 347.109,172.48 348.443,189.48 349.5,206.5C 349.321,212.404 349.988,218.071 351.5,223.5C 352.194,228.805 352.528,234.138 352.5,239.5C 337.83,239.667 323.163,239.5 308.5,239C 308,238.5 307.5,238 307,237.5C 306.295,222.867 304.795,208.367 302.5,194C 284.905,191.817 267.238,190.983 249.5,191.5C 249.5,175.833 249.5,160.167 249.5,144.5C 280.502,144.333 311.502,144.5 342.5,145C 343.288,148.076 343.788,151.242 344,154.5C 344.383,155.056 344.883,155.389 345.5,155.5 Z"/></g>
<g><path style="opacity:1" fill="#e4a127" d="M 249.5,191.5 C 249.5,214.5 249.5,237.5 249.5,260.5C 233.5,260.5 217.5,260.5 201.5,260.5C 203.301,237.489 205.301,214.489 207.5,191.5C 221.5,191.5 235.5,191.5 249.5,191.5 Z"/></g>
<g><path style="opacity:0.996" fill="#efdcab" d="M 349.5,206.5 C 350.737,211.96 351.404,217.627 351.5,223.5C 349.988,218.071 349.321,212.404 349.5,206.5 Z"/></g>
<g><path style="opacity:0.996" fill="#ead4ab" d="M 159.5,220.5 C 159.663,227.062 158.996,233.395 157.5,239.5C 157.454,232.95 158.121,226.617 159.5,220.5 Z"/></g>
<g><path style="opacity:0.27" fill="#ebe3d4" d="M 73.5,98.5 C 81.5477,190.836 89.5477,283.169 97.5,375.5C 97.5,377.833 97.5,380.167 97.5,382.5C 88.0788,289.389 79.4121,196.056 71.5,102.5C 71.5854,100.667 72.2521,99.3339 73.5,98.5 Z"/></g>
<g><path style="opacity:1" fill="#fefefd" d="M 342.5,261.5 C 345.833,261.5 349.167,261.5 352.5,261.5C 348.499,306.508 344.333,351.508 340,396.5C 310.742,405.628 281.242,413.962 251.5,421.5C 249.78,419.342 248.947,416.675 249,413.5C 248.333,401.167 248.333,388.833 249,376.5C 251.069,375.736 253.236,375.236 255.5,375C 256.056,374.617 256.389,374.117 256.5,373.5C 269.757,369.622 283.09,365.955 296.5,362.5C 299.466,344.621 301.466,326.621 302.5,308.5C 303.167,308.5 303.5,308.167 303.5,307.5C 304.404,306.791 304.737,305.791 304.5,304.5C 285.833,304.5 267.167,304.5 248.5,304.5C 248.5,290.167 248.5,275.833 248.5,261.5C 279.833,261.5 311.167,261.5 342.5,261.5 Z"/></g>
<g><path style="opacity:0.31" fill="#ebe1ce" d="M 415.5,221.5 C 415.5,225.5 415.5,229.5 415.5,233.5C 411.537,283.378 406.871,333.044 401.5,382.5C 401.5,382.167 401.5,381.833 401.5,381.5C 405.515,327.975 410.182,274.642 415.5,221.5 Z"/></g>
<g><path style="opacity:0.996" fill="#e8bd63" d="M 152.5,305.5 C 203.178,304.838 253.511,305.505 303.5,307.5C 303.5,308.167 303.167,308.5 302.5,308.5C 285.198,306.514 267.532,305.847 249.5,306.5C 216.996,306.832 184.662,306.498 152.5,305.5 Z"/></g>
<g><path style="opacity:1" fill="#efbe26" d="M 249.5,306.5 C 267.532,305.847 285.198,306.514 302.5,308.5C 301.466,326.621 299.466,344.621 296.5,362.5C 283.09,365.955 269.757,369.622 256.5,373.5C 253.833,373.833 251.167,374.167 248.5,374.5C 249.489,351.908 249.822,329.242 249.5,306.5 Z"/></g>
<g><path style="opacity:1" fill="#eaebeb" d="M 248.5,374.5 C 251.167,374.167 253.833,373.833 256.5,373.5C 256.389,374.117 256.056,374.617 255.5,375C 253.236,375.236 251.069,375.736 249,376.5C 248.333,388.833 248.333,401.167 249,413.5C 248.947,416.675 249.78,419.342 251.5,421.5C 251.158,422.338 250.492,422.672 249.5,422.5C 218.956,414.761 188.623,406.427 158.5,397.5C 155.839,374.224 153.839,350.89 152.5,327.5C 167.5,327.5 182.5,327.5 197.5,327.5C 198.625,339.166 199.625,350.833 200.5,362.5C 216.278,367.353 232.278,371.353 248.5,374.5 Z"/></g>
<g><path style="opacity:0.98" fill="#e9cd99" d="M 97.5,375.5 C 98.8099,381.288 99.4766,387.288 99.5,393.5C 98.8333,390.833 98.1667,388.167 97.5,385.5C 97.5,384.5 97.5,383.5 97.5,382.5C 97.5,380.167 97.5,377.833 97.5,375.5 Z"/></g>
<g><path style="opacity:0.955" fill="#eac789" d="M 401.5,381.5 C 401.5,381.833 401.5,382.167 401.5,382.5C 401.443,388.851 401.11,395.185 400.5,401.5C 400.167,401.5 399.833,401.5 399.5,401.5C 399.334,396.156 399.501,390.823 400,385.5C 400.21,383.942 400.71,382.609 401.5,381.5 Z"/></g>
<g><path style="opacity:0.22" fill="#eae9e6" d="M 97.5,385.5 C 98.1667,388.167 98.8333,390.833 99.5,393.5C 99.5,396.167 99.5,398.833 99.5,401.5C 99.5,403.5 99.5,405.5 99.5,407.5C 98.2929,400.361 97.6262,393.028 97.5,385.5 Z"/></g>
<g><path style="opacity:0.584" fill="#ebd8b3" d="M 399.5,401.5 C 399.833,401.5 400.167,401.5 400.5,401.5C 400.105,409.715 399.105,417.715 397.5,425.5C 397.315,417.419 397.982,409.419 399.5,401.5 Z"/></g>
<g><path style="opacity:0.851" fill="#ead5ad" d="M 99.5,401.5 C 101.078,406.583 101.745,411.916 101.5,417.5C 100.833,415.5 100.167,413.5 99.5,411.5C 99.5,410.167 99.5,408.833 99.5,407.5C 99.5,405.5 99.5,403.5 99.5,401.5 Z"/></g>
<g><path style="opacity:0.38" fill="#eac788" d="M 397.5,433.5 C 396.668,441.147 396.002,448.814 395.5,456.5C 394.833,456.833 394.167,457.167 393.5,457.5C 394.418,449.282 395.751,441.282 397.5,433.5 Z"/></g>
<g><path style="opacity:0.404" fill="#ebe5da" d="M 395.5,456.5 C 395.439,458.592 394.439,460.092 392.5,461C 346.355,473.588 300.355,486.421 254.5,499.5C 251.5,499.5 248.5,499.5 245.5,499.5C 245.5,499.167 245.5,498.833 245.5,498.5C 266.227,493.917 286.893,488.751 307.5,483C 336.379,475.115 365.046,466.615 393.5,457.5C 394.167,457.167 394.833,456.833 395.5,456.5 Z"/></g>
<g><path style="opacity:0.254" fill="#ebe5db" d="M 99.5,411.5 C 100.167,413.5 100.833,415.5 101.5,417.5C 102.579,431.524 103.912,445.524 105.5,459.5C 152.447,471.9 199.114,484.9 245.5,498.5C 242.126,498.326 238.793,497.826 235.5,497C 191.335,485.172 147.501,472.672 104,459.5C 102.389,443.502 100.889,427.502 99.5,411.5 Z"/></g>
</svg>
