<?xml version="1.0" encoding="UTF-8"?>
<!DOCTYPE svg PUBLIC "-//W3C//DTD SVG 1.1//EN" "http://www.w3.org/Graphics/SVG/1.1/DTD/svg11.dtd">
<svg xmlns="http://www.w3.org/2000/svg" version="1.1" width="500px" height="500px" style="shape-rendering:geometricPrecision; text-rendering:geometricPrecision; image-rendering:optimizeQuality; fill-rule:evenodd; clip-rule:evenodd" xmlns:xlink="http://www.w3.org/1999/xlink">
<g><path style="opacity:0.899" fill="#0867ac" d="M 272.5,-0.5 C 273.833,-0.5 275.167,-0.5 276.5,-0.5C 270.426,14.9412 269.926,30.6078 275,46.5C 288.204,78.3683 311.704,97.8683 345.5,105C 359.926,107.878 373.926,106.544 387.5,101C 394.71,97.0563 400.71,91.723 405.5,85C 406.635,84.2506 407.635,84.4173 408.5,85.5C 395.3,112.285 373.634,126.285 343.5,127.5C 309.657,126.004 283.824,111.004 266,82.5C 251.521,53.3704 253.687,25.7037 272.5,-0.5 Z"/></g>
<g><path style="opacity:0.932" fill="#0867ab" d="M 205.5,9.5 C 206.478,9.81103 207.145,10.4777 207.5,11.5C 191.503,41.9239 190.336,72.9239 204,104.5C 207.745,112.324 211.745,119.991 216,127.5C 238.507,158.182 268.341,178.016 305.5,187C 350.652,195.899 387.652,182.732 416.5,147.5C 417.419,150.626 416.919,153.626 415,156.5C 397.894,190.926 370.394,211.76 332.5,219C 312.792,221.188 293.126,220.855 273.5,218C 226.752,203.738 194.586,173.905 177,128.5C 166.922,95.926 170.255,64.926 187,35.5C 193.774,27.2323 199.941,18.5656 205.5,9.5 Z"/></g>
<g><path style="opacity:0.947" fill="#0867ac" d="M 116.5,42.5 C 117.497,42.4701 118.164,42.9701 118.5,44C 104.744,71.3752 100.578,100.209 106,130.5C 117.37,182.795 145.203,223.628 189.5,253C 233.445,281.255 281.112,290.255 332.5,280C 362.884,273.485 387.884,258.318 407.5,234.5C 408.614,235.723 408.781,237.056 408,238.5C 380.264,293.132 335.764,322.965 274.5,328C 246.664,330.146 219.664,326.479 193.5,317C 140.911,295.077 103.744,257.911 82,205.5C 67.5859,167.902 67.2526,130.236 81,92.5C 86.3333,83.8333 91.6667,75.1667 97,66.5C 103.743,58.6013 110.243,50.6013 116.5,42.5 Z"/></g>
<g><path style="opacity:0.936" fill="#131b27" d="M 117.5,365.5 C 135.137,362.656 149.97,367.656 162,380.5C 168.035,390.387 170.035,401.053 168,412.5C 165.397,424.471 161.897,436.138 157.5,447.5C 160.518,447.335 163.518,447.502 166.5,448C 167.059,448.725 167.392,449.558 167.5,450.5C 166.104,456.523 164.604,462.523 163,468.5C 162.25,469.126 161.416,469.626 160.5,470C 138.467,470.92 116.467,470.587 94.5,469C 81,466.167 72.8333,458 70,444.5C 67.7959,424.985 71.4625,406.651 81,389.5C 90.4039,377.064 102.571,369.064 117.5,365.5 Z M 121.5,388.5 C 139.009,388.836 145.842,397.503 142,414.5C 138.688,424.736 135.522,435.069 132.5,445.5C 101.044,453.547 89.877,442.213 99,411.5C 101.06,406.38 103.393,401.38 106,396.5C 110.361,392.071 115.528,389.404 121.5,388.5 Z"/></g>
<g><path style="opacity:0.925" fill="#131a27" d="M 457.5,375.5 C 466.5,375.5 475.5,375.5 484.5,375.5C 484.628,377.655 484.128,379.655 483,381.5C 465.667,404.167 448.333,426.833 431,449.5C 429.55,456.135 427.717,462.635 425.5,469C 416.921,469.816 408.421,469.649 400,468.5C 401.22,462.432 402.387,456.266 403.5,450C 400.421,437.516 397.421,425.016 394.5,412.5C 403.173,412.334 411.84,412.5 420.5,413C 421.544,416.572 422.711,420.072 424,423.5C 434.673,407.021 445.839,391.021 457.5,375.5 Z"/></g>
<g><path style="opacity:0.928" fill="#131a27" d="M 290.5,386.5 C 330.597,382.549 343.597,399.382 329.5,437C 312.17,437.5 294.837,437.667 277.5,437.5C 277.845,443.682 281.178,447.182 287.5,448C 300.167,448.333 312.833,448.667 325.5,449C 326.059,449.725 326.392,450.558 326.5,451.5C 325.269,457.153 324.103,462.82 323,468.5C 315.234,469.817 307.234,470.483 299,470.5C 291.167,470.333 283.333,470.167 275.5,470C 260.264,468.093 252.931,459.426 253.5,444C 254.304,429.306 258.137,415.473 265,402.5C 267.872,399.963 270.372,397.13 272.5,394C 278.328,390.788 284.328,388.288 290.5,386.5 Z M 294.5,407.5 C 298.582,407.344 302.582,407.844 306.5,409C 309.491,411.141 310.658,413.975 310,417.5C 300.911,418.65 291.745,418.817 282.5,418C 284.841,412.486 288.841,408.986 294.5,407.5 Z"/></g>
<g><path style="opacity:0.88" fill="#121a27" d="M 44.5,387.5 C 52.5,387.5 60.5,387.5 68.5,387.5C 67.9961,394.519 66.6628,401.352 64.5,408C 56.5069,408.5 48.5069,408.666 40.5,408.5C 41.0446,401.327 42.3779,394.327 44.5,387.5 Z"/></g>
<g><path style="opacity:0.929" fill="#121a27" d="M 184.5,387.5 C 192.167,387.5 199.833,387.5 207.5,387.5C 204.956,405.057 201.956,422.557 198.5,440C 198.773,442.151 199.439,444.151 200.5,446C 206.877,448.542 213.377,449.042 220,447.5C 225.292,428.053 229.959,408.386 234,388.5C 241.413,387.519 248.913,387.186 256.5,387.5C 256.252,393.243 255.419,398.91 254,404.5C 248.731,425.669 243.898,447.002 239.5,468.5C 231.333,468.833 223.167,469.167 215,469.5C 205.443,469.612 195.943,469.112 186.5,468C 179.614,465.112 175.781,459.945 175,452.5C 174.333,447.167 174.333,441.833 175,436.5C 178.011,420.125 181.178,403.791 184.5,387.5 Z"/></g>
<g><path style="opacity:0.93" fill="#121a27" d="M 351.5,387.5 C 369.836,387.333 388.17,387.5 406.5,388C 410.664,388.823 413.831,390.99 416,394.5C 418.122,399.274 419.288,404.274 419.5,409.5C 403.163,409.333 386.83,409.5 370.5,410C 366.122,429.562 361.622,449.062 357,468.5C 349.587,469.481 342.087,469.814 334.5,469.5C 339.229,441.926 344.895,414.593 351.5,387.5 Z"/></g>
<g><path style="opacity:0.943" fill="#121b27" d="M 36.5,499.5 C 25.5,499.5 14.5,499.5 3.5,499.5C 4.70205,493.78 6.20205,488.114 8,482.5C 8.5,482 9,481.5 9.5,481C 12.8897,480.754 16.223,480.254 19.5,479.5C 21.8353,476.834 23.6686,473.834 25,470.5C 29.206,451.015 33.706,431.681 38.5,412.5C 46.8333,412.5 55.1667,412.5 63.5,412.5C 58.3577,435.746 53.191,459.079 48,482.5C 45.8651,489.442 42.0317,495.108 36.5,499.5 Z"/></g>
</svg>
