<?xml version="1.0" encoding="UTF-8"?>
<!DOCTYPE svg PUBLIC "-//W3C//DTD SVG 1.1//EN" "http://www.w3.org/Graphics/SVG/1.1/DTD/svg11.dtd">
<svg xmlns="http://www.w3.org/2000/svg" version="1.1" width="500px" height="500px" style="shape-rendering:geometricPrecision; text-rendering:geometricPrecision; image-rendering:optimizeQuality; fill-rule:evenodd; clip-rule:evenodd" xmlns:xlink="http://www.w3.org/1999/xlink">
<g><path style="opacity:0.964" fill="#000000" d="M 40.5,-0.5 C 42.8333,-0.5 45.1667,-0.5 47.5,-0.5C 50.241,0.0827155 52.9077,1.08272 55.5,2.5C 56.6599,6.45894 56.8265,10.4589 56,14.5C 53.1818,14.6851 50.6818,13.5184 48.5,11C 45.5,10.3333 42.5,10.3333 39.5,11C 36.4548,13.4477 35.9548,16.281 38,19.5C 44.2698,24.6179 50.2698,29.9512 56,35.5C 61.0901,48.2346 57.2568,57.0679 44.5,62C 39.1667,62.6667 33.8333,62.6667 28.5,62C 26.6711,61.7265 25.1711,60.8932 24,59.5C 23.3333,55.5 23.3333,51.5 24,47.5C 24.5613,46.9781 25.228,46.6448 26,46.5C 29.0467,49.8539 32.7133,52.1873 37,53.5C 40.0097,52.3853 42.6763,50.7186 45,48.5C 45.6667,46.5 45.6667,44.5 45,42.5C 39.0256,37.1954 33.0256,31.8621 27,26.5C 21.3993,12.3679 25.8993,3.36792 40.5,-0.5 Z"/></g>
<g><path style="opacity:0.966" fill="#000000" d="M 250.5,-0.5 C 253.167,-0.5 255.833,-0.5 258.5,-0.5C 261.122,0.0331124 263.622,1.03311 266,2.5C 266.667,6.5 266.667,10.5 266,14.5C 265.586,14.9574 265.086,15.2907 264.5,15.5C 260.491,10.8799 255.491,9.37986 249.5,11C 245.47,14.9566 245.803,18.6232 250.5,22C 257.59,26.2722 263.423,31.7722 268,38.5C 269.934,54.2359 262.934,62.2359 247,62.5C 235.466,63.7728 231.133,58.7728 234,47.5C 234.561,46.9781 235.228,46.6448 236,46.5C 238.112,47.608 239.946,49.108 241.5,51C 243.722,51.6946 245.889,52.5279 248,53.5C 254.403,51.9138 256.736,47.9138 255,41.5C 249.592,36.8804 244.092,32.3804 238.5,28C 231.461,13.5968 235.461,4.09676 250.5,-0.5 Z"/></g>
<g><path style="opacity:0.961" fill="#000000" d="M 73.5,0.5 C 75.3464,0.222157 76.6798,0.888823 77.5,2.5C 76.3699,9.44951 76.2032,16.4495 77,23.5C 80.4912,18.3846 85.3245,16.5513 91.5,18C 94,19.1667 95.8333,21 97,23.5C 98.2431,34.7761 98.9098,46.1094 99,57.5C 100.951,59.1371 100.784,60.6371 98.5,62C 94.2452,62.7961 90.0785,62.6295 86,61.5C 87.3615,51.9214 87.6948,42.2548 87,32.5C 84.8489,26.8366 81.6822,26.1699 77.5,30.5C 76.1823,40.3939 76.1823,50.2272 77.5,60C 77.0426,60.414 76.7093,60.914 76.5,61.5C 72.2846,62.7977 68.1179,62.7977 64,61.5C 64.6497,42.1647 64.6497,22.8314 64,3.5C 67.4204,3.00241 70.5871,2.00241 73.5,0.5 Z"/></g>
<g><path style="opacity:0.984" fill="#000000" d="M 204.5,0.5 C 211.841,0.333677 219.174,0.500344 226.5,1C 226.957,1.41395 227.291,1.91395 227.5,2.5C 226.345,7.09507 225.512,11.7617 225,16.5C 224.667,31.1667 224.333,45.8333 224,60.5C 220.402,73.0526 212.236,77.3859 199.5,73.5C 204.205,69.9604 208.038,65.6271 211,60.5C 211.346,57.4245 212.012,54.4245 213,51.5C 213.5,37.8374 213.667,24.1707 213.5,10.5C 209.519,11.0209 205.519,11.3542 201.5,11.5C 201.12,7.4291 202.12,3.76243 204.5,0.5 Z"/></g>
<g><path style="opacity:0.967" fill="#000000" d="M 410.5,0.5 C 413.488,0.154653 414.821,1.48799 414.5,4.5C 414.423,6.29897 413.923,7.96564 413,9.5C 412.833,17.1667 412.667,24.8333 412.5,32.5C 412.42,42.3526 412.92,52.0193 414,61.5C 405.1,62.0134 396.266,62.1801 387.5,62C 385.422,57.429 382.755,53.2623 379.5,49.5C 376.702,53.383 374.368,57.5497 372.5,62C 368.5,62.6667 364.5,62.6667 360.5,62C 359.483,60.9505 359.316,59.7839 360,58.5C 365.482,52.8698 369.982,46.5365 373.5,39.5C 370.073,32.9767 365.906,26.9767 361,21.5C 360.383,20.5509 360.549,19.7175 361.5,19C 365.833,18.3333 370.167,18.3333 374.5,19C 376.22,22.6569 378.22,26.1569 380.5,29.5C 383.157,26.3282 385.157,22.8282 386.5,19C 390.167,18.3333 393.833,18.3333 397.5,19C 398.535,20.5069 398.368,22.0069 397,23.5C 392.791,28.2306 389.291,33.3973 386.5,39C 389.698,44.187 392.865,49.3537 396,54.5C 397.171,56.6157 398.671,57.2824 400.5,56.5C 401.65,41.2113 401.817,25.878 401,10.5C 399.349,8.24556 399.182,5.91223 400.5,3.5C 404.121,2.9867 407.454,1.9867 410.5,0.5 Z"/></g>
<g><path style="opacity:0.937" fill="#000000" d="M 301.5,1.5 C 308.685,1.8482 311.519,5.51487 310,12.5C 307.804,17.5402 304.304,18.7068 299.5,16C 295.271,10.4341 295.937,5.6008 301.5,1.5 Z"/></g>
<g><path style="opacity:0.967" fill="#000000" d="M 188.5,10.5 C 189.496,10.4142 190.329,10.7476 191,11.5C 191.236,13.764 191.736,15.9307 192.5,18C 195.146,18.4974 197.813,18.6641 200.5,18.5C 200.5,21.5 200.5,24.5 200.5,27.5C 197.5,27.5 194.5,27.5 191.5,27.5C 191.099,35.5852 191.599,43.5852 193,51.5C 193.689,52.3567 194.522,53.0233 195.5,53.5C 197.943,51.9447 200.61,51.278 203.5,51.5C 203.54,55.892 201.873,59.392 198.5,62C 193.382,62.888 188.382,62.5547 183.5,61C 181.396,58.9576 180.229,56.4576 180,53.5C 179.5,44.8397 179.334,36.1731 179.5,27.5C 177.833,27.5 176.167,27.5 174.5,27.5C 174.351,26.448 174.517,25.448 175,24.5C 179.703,19.9645 184.203,15.2979 188.5,10.5 Z"/></g>
<g><path style="opacity:0.974" fill="#000000" d="M 117.5,17.5 C 126.348,16.386 132.848,19.7193 137,27.5C 137.499,32.4889 137.666,37.4889 137.5,42.5C 130.167,42.5 122.833,42.5 115.5,42.5C 118.224,53.3524 124.724,56.3524 135,51.5C 136.28,51.6135 137.113,52.2801 137.5,53.5C 136.714,56.9136 135.047,59.747 132.5,62C 109.836,64.3277 100.67,54.1611 105,31.5C 107.115,24.8956 111.281,20.229 117.5,17.5 Z M 121.5,26.5 C 125.678,27.5073 128.011,30.174 128.5,34.5C 124.167,34.5 119.833,34.5 115.5,34.5C 116.078,30.6433 118.078,27.9766 121.5,26.5 Z"/></g>
<g><path style="opacity:0.972" fill="#000000" d="M 153.5,17.5 C 167.128,16.6171 174.462,23.1171 175.5,37C 175.456,38.7642 175.122,40.4309 174.5,42C 167.144,42.1687 159.811,42.6687 152.5,43.5C 153.043,47.5518 155.043,50.7185 158.5,53C 163.717,53.8117 168.717,53.3117 173.5,51.5C 173.386,55.4531 172.053,58.9531 169.5,62C 157.596,65.1501 148.429,61.6501 142,51.5C 137.292,36.8996 141.126,25.5662 153.5,17.5 Z M 157.5,26.5 C 162.136,27.0842 164.469,29.7508 164.5,34.5C 160.154,34.6657 155.821,34.499 151.5,34C 152.717,32.3523 153.55,30.519 154,28.5C 155.302,27.9152 156.469,27.2485 157.5,26.5 Z"/></g>
<g><path style="opacity:0.961" fill="#000000" d="M 323.5,17.5 C 327.182,17.3347 330.848,17.5014 334.5,18C 338.993,21.4597 339.66,25.6263 336.5,30.5C 334.059,28.7277 331.392,27.3944 328.5,26.5C 326.503,26.9858 325.169,28.1525 324.5,30C 329.304,34.4997 333.804,39.333 338,44.5C 339.945,51.3244 338.112,56.8244 332.5,61C 325.874,63.1579 319.374,62.9912 313,60.5C 312.333,56.8333 312.333,53.1667 313,49.5C 313.414,49.0426 313.914,48.7093 314.5,48.5C 316.863,50.6801 319.53,52.3468 322.5,53.5C 324.955,53.888 326.288,52.888 326.5,50.5C 323.226,45.7227 319.393,41.3894 315,37.5C 312.832,32.3431 313.165,27.3431 316,22.5C 318.544,20.7331 321.044,19.0664 323.5,17.5 Z"/></g>
<g><path style="opacity:0.96" fill="#000000" d="M 426.5,17.5 C 431.257,17.0035 435.757,17.6702 440,19.5C 444.792,18.4138 449.625,18.2472 454.5,19C 456.805,22.449 458.972,25.949 461,29.5C 463.351,26.1139 465.518,22.6139 467.5,19C 471.167,18.3333 474.833,18.3333 478.5,19C 479.451,19.7175 479.617,20.5509 479,21.5C 474.539,26.9221 470.706,32.7554 467.5,39C 471.039,45.9124 475.205,52.4124 480,58.5C 480.667,59.5 480.667,60.5 480,61.5C 475.864,62.8085 471.698,62.8085 467.5,61.5C 465.643,57.0904 463.143,53.0904 460,49.5C 457.364,53.2378 455.197,57.2378 453.5,61.5C 449.302,62.8085 445.136,62.8085 441,61.5C 440.833,61 440.667,60.5 440.5,60C 445.54,53.4196 450.207,46.5863 454.5,39.5C 450.58,33.3256 446.413,27.3256 442,21.5C 441.782,24.4262 441.282,27.2595 440.5,30C 437.736,29.0464 434.902,27.8797 432,26.5C 430.243,27.1189 429.076,28.2856 428.5,30C 432.286,34.7887 436.453,39.2887 441,43.5C 443.66,51.992 441.16,58.1586 433.5,62C 427.719,62.9032 422.053,62.5699 416.5,61C 415.205,57.2136 415.205,53.3803 416.5,49.5C 417.086,49.2907 417.586,48.9574 418,48.5C 420.934,52.4621 424.767,53.9621 429.5,53C 430.059,52.2753 430.392,51.4419 430.5,50.5C 425.902,45.7279 421.402,40.7279 417,35.5C 415.693,27.1133 418.86,21.1133 426.5,17.5 Z"/></g>
<g><path style="opacity:0.979" fill="#000000" d="M 297.5,18.5 C 301.884,18.1744 306.217,18.5078 310.5,19.5C 310.709,20.086 311.043,20.586 311.5,21C 310.736,23.0693 310.236,25.236 310,27.5C 309.667,40.5 309.333,53.5 309,66.5C 306.05,73.9843 300.55,76.651 292.5,74.5C 292.569,71.9158 293.735,69.9158 296,68.5C 296.92,65.8987 297.587,63.2321 298,60.5C 298.981,47.2559 298.481,34.0892 296.5,21C 296.743,20.0979 297.077,19.2646 297.5,18.5 Z"/></g>
<g><path style="opacity:0.981" fill="#000000" d="M 341.5,31.5 C 348.167,31.5 354.833,31.5 361.5,31.5C 361.929,35.4587 360.929,38.9587 358.5,42C 351.842,42.4996 345.175,42.6663 338.5,42.5C 338.123,38.3927 339.123,34.726 341.5,31.5 Z"/></g>
<g><path style="opacity:1" fill="#c8f2e1" d="M 64.5,94.5 C 62.8828,93.962 61.2161,93.6287 59.5,93.5C 59.5,109.167 59.5,124.833 59.5,140.5C 59.5,140.833 59.5,141.167 59.5,141.5C 59.5,141.833 59.5,142.167 59.5,142.5C 58.3383,125.672 58.1716,108.672 59,91.5C 59.414,91.0426 59.914,90.7093 60.5,90.5C 61.9093,91.8485 63.2426,93.1819 64.5,94.5 Z"/></g>
<g><path style="opacity:1" fill="#64ddaa" d="M 64.5,94.5 C 73.2603,103.045 82.927,110.378 93.5,116.5C 95.5496,118.547 97.883,120.214 100.5,121.5C 107.463,127.648 114.797,133.315 122.5,138.5C 122.5,138.833 122.5,139.167 122.5,139.5C 101.673,140.497 80.6733,140.831 59.5,140.5C 59.5,124.833 59.5,109.167 59.5,93.5C 61.2161,93.6287 62.8828,93.962 64.5,94.5 Z"/></g>
<g><path style="opacity:1" fill="#c9f3e1" d="M 64.5,94.5 C 74.7823,101.128 84.449,108.461 93.5,116.5C 82.927,110.378 73.2603,103.045 64.5,94.5 Z"/></g>
<g><path style="opacity:1" fill="#a1c5ef" d="M 452.5,104.5 C 453.499,196.665 453.833,288.998 453.5,381.5C 452.5,381.5 451.5,381.5 450.5,381.5C 445.108,376.739 439.441,372.239 433.5,368C 432.207,367.51 430.873,367.343 429.5,367.5C 428.386,366.115 427.386,364.615 426.5,363C 418.618,356.904 410.618,351.07 402.5,345.5C 401.833,345.5 401.167,345.5 400.5,345.5C 398.013,341.585 394.68,338.585 390.5,336.5C 388.866,335.793 387.532,334.627 386.5,333C 385.207,332.51 383.873,332.343 382.5,332.5C 382.167,331.833 381.833,331.167 381.5,330.5C 381.217,329.711 380.717,329.044 380,328.5C 379.5,316.838 379.333,305.171 379.5,293.5C 380.831,285.862 381.498,277.862 381.5,269.5C 380.974,215.305 380.974,160.972 381.5,106.5C 405.075,106.173 428.575,106.506 452,107.5C 452.483,106.552 452.649,105.552 452.5,104.5 Z"/></g>
<g><path style="opacity:1" fill="#d4f5e7" d="M 93.5,116.5 C 96.6743,117.01 99.0077,118.677 100.5,121.5C 97.883,120.214 95.5496,118.547 93.5,116.5 Z"/></g>
<g><path style="opacity:1" fill="#ccf3e3" d="M 100.5,121.5 C 108.633,126.222 115.967,131.888 122.5,138.5C 114.797,133.315 107.463,127.648 100.5,121.5 Z"/></g>
<g><path style="opacity:1" fill="#8de5c0" d="M 122.5,139.5 C 123.376,139.369 124.043,139.702 124.5,140.5C 102.844,141.5 81.1769,141.833 59.5,141.5C 59.5,141.167 59.5,140.833 59.5,140.5C 80.6733,140.831 101.673,140.497 122.5,139.5 Z"/></g>
<g><path style="opacity:1" fill="#b4efd6" d="M 122.5,139.5 C 122.5,139.167 122.5,138.833 122.5,138.5C 123.791,138.263 124.791,138.596 125.5,139.5C 125.5,140.5 125.5,141.5 125.5,142.5C 103.5,142.5 81.5,142.5 59.5,142.5C 59.5,142.167 59.5,141.833 59.5,141.5C 81.1769,141.833 102.844,141.5 124.5,140.5C 124.043,139.702 123.376,139.369 122.5,139.5 Z"/></g>
<g><path style="opacity:1" fill="#d3f5e6" d="M 125.5,139.5 C 126.833,140.833 128.167,142.167 129.5,143.5C 106.167,143.5 82.8333,143.5 59.5,143.5C 59.5,143.167 59.5,142.833 59.5,142.5C 81.5,142.5 103.5,142.5 125.5,142.5C 125.5,141.5 125.5,140.5 125.5,139.5 Z"/></g>
<g><path style="opacity:1" fill="#97e9c7" d="M 59.5,144.5 C 59.5,144.167 59.5,143.833 59.5,143.5C 82.8333,143.5 106.167,143.5 129.5,143.5C 131.027,143.427 132.027,144.094 132.5,145.5C 108.212,144.519 83.8782,144.186 59.5,144.5 Z"/></g>
<g><path style="opacity:1" fill="#64ddab" d="M 59.5,144.5 C 83.8782,144.186 108.212,144.519 132.5,145.5C 137.588,150.549 143.255,154.883 149.5,158.5C 152.312,161.401 155.312,164.068 158.5,166.5C 155.452,166.494 154.952,167.494 157,169.5C 157.499,175.491 157.666,181.491 157.5,187.5C 124.61,186.852 91.9438,187.518 59.5,189.5C 59.5,174.5 59.5,159.5 59.5,144.5 Z"/></g>
<g><path style="opacity:1" fill="#caf3e2" d="M 132.5,145.5 C 139.069,148.746 144.736,153.079 149.5,158.5C 143.255,154.883 137.588,150.549 132.5,145.5 Z"/></g>
<g><path style="opacity:1" fill="#d4e3f7" d="M 250.5,153.5 C 250.5,153.833 250.5,154.167 250.5,154.5C 225.5,154.5 200.5,154.5 175.5,154.5C 175.334,161.508 175.5,168.508 176,175.5C 177.376,176.705 178.542,178.038 179.5,179.5C 178.833,179.5 178.167,179.5 177.5,179.5C 176.167,177.833 174.833,176.167 173.5,174.5C 173.334,167.825 173.5,161.158 174,154.5C 174.5,154 175,153.5 175.5,153C 200.572,152.177 225.572,152.344 250.5,153.5 Z"/></g>
<g><path style="opacity:1" fill="#a2c5ef" d="M 250.5,154.5 C 250.833,180.175 250.5,205.842 249.5,231.5C 248.583,230.873 247.583,230.539 246.5,230.5C 245.883,228.771 244.883,227.271 243.5,226C 239.997,223.978 236.663,221.811 233.5,219.5C 233.5,218.833 233.167,218.5 232.5,218.5C 231.365,216.787 229.698,216.12 227.5,216.5C 223.773,211.442 219.106,207.442 213.5,204.5C 212.609,203.89 211.609,203.557 210.5,203.5C 208.551,199.192 205.218,196.859 200.5,196.5C 198.79,193.491 196.457,191.158 193.5,189.5C 189.194,185.679 184.527,182.345 179.5,179.5C 178.542,178.038 177.376,176.705 176,175.5C 175.5,168.508 175.334,161.508 175.5,154.5C 200.5,154.5 225.5,154.5 250.5,154.5 Z"/></g>
<g><path style="opacity:1" fill="#c5f2e0" d="M 149.5,158.5 C 154.114,160.794 158.114,163.794 161.5,167.5C 161.167,167.5 160.833,167.5 160.5,167.5C 159.833,167.167 159.167,166.833 158.5,166.5C 155.312,164.068 152.312,161.401 149.5,158.5 Z"/></g>
<g><path style="opacity:0.878" fill="#cff5e4" d="M 168.5,172.5 C 170.027,172.427 171.027,173.094 171.5,174.5C 169.973,174.573 168.973,173.906 168.5,172.5 Z"/></g>
<g><path style="opacity:1" fill="#caf2e2" d="M 171.5,174.5 C 172.167,174.5 172.833,174.5 173.5,174.5C 174.833,176.167 176.167,177.833 177.5,179.5C 174.911,178.581 172.911,176.914 171.5,174.5 Z"/></g>
<g><path style="opacity:1" fill="#63deaa" d="M 168.5,172.5 C 168.973,173.906 169.973,174.573 171.5,174.5C 172.911,176.914 174.911,178.581 177.5,179.5C 181.614,183.064 185.948,186.397 190.5,189.5C 182.231,191.47 173.565,192.136 164.5,191.5C 164.17,184.8 164.503,178.134 165.5,171.5C 166.417,172.127 167.417,172.461 168.5,172.5 Z"/></g>
<g><path style="opacity:1" fill="#cee8ed" d="M 177.5,179.5 C 178.167,179.5 178.833,179.5 179.5,179.5C 184.527,182.345 189.194,185.679 193.5,189.5C 193.167,189.5 192.833,189.5 192.5,189.5C 192.167,189.5 191.833,189.5 191.5,189.5C 191.167,189.5 190.833,189.5 190.5,189.5C 185.948,186.397 181.614,183.064 177.5,179.5 Z"/></g>
<g><path style="opacity:1" fill="#5cdca7" d="M 158.5,166.5 C 159.167,166.833 159.833,167.167 160.5,167.5C 160.5,175.167 160.5,182.833 160.5,190.5C 126.833,190.5 93.1667,190.5 59.5,190.5C 59.5,190.167 59.5,189.833 59.5,189.5C 91.9438,187.518 124.61,186.852 157.5,187.5C 157.666,181.491 157.499,175.491 157,169.5C 154.952,167.494 155.452,166.494 158.5,166.5 Z"/></g>
<g><path style="opacity:1" fill="#b8f0d8" d="M 166.5,170.5 C 167.833,170.5 168.5,171.167 168.5,172.5C 167.417,172.461 166.417,172.127 165.5,171.5C 164.503,178.134 164.17,184.8 164.5,191.5C 173.318,192.493 182.318,192.827 191.5,192.5C 191.5,191.5 191.5,190.5 191.5,189.5C 191.833,189.5 192.167,189.5 192.5,189.5C 192.5,190.833 192.5,192.167 192.5,193.5C 182.833,193.5 173.167,193.5 163.5,193.5C 163.799,186.109 163.465,178.776 162.5,171.5C 163.689,170.571 165.022,170.238 166.5,170.5 Z"/></g>
<g><path style="opacity:1" fill="#d4e6f5" d="M 250.5,153.5 C 251.167,166.496 251.5,179.662 251.5,193C 251.482,206.722 250.815,220.222 249.5,233.5C 248.167,232.833 247.167,231.833 246.5,230.5C 247.583,230.539 248.583,230.873 249.5,231.5C 250.5,205.842 250.833,180.175 250.5,154.5C 250.5,154.167 250.5,153.833 250.5,153.5 Z"/></g>
<g><path style="opacity:1" fill="#cfe8ef" d="M 200.5,196.5 C 205.218,196.859 208.551,199.192 210.5,203.5C 206.608,201.938 203.275,199.605 200.5,196.5 Z"/></g>
<g><path style="opacity:1" fill="#9ae9c9" d="M 197.5,195.5 C 186.5,195.5 175.5,195.5 164.5,195.5C 164.5,210.833 164.5,226.167 164.5,241.5C 164.5,241.833 164.5,242.167 164.5,242.5C 163.504,226.675 163.17,210.675 163.5,194.5C 175.012,194.172 186.346,194.505 197.5,195.5 Z"/></g>
<g><path style="opacity:1" fill="#64ddaa" d="M 197.5,195.5 C 198.391,196.11 199.391,196.443 200.5,196.5C 203.275,199.605 206.608,201.938 210.5,203.5C 211.911,205.914 213.911,207.581 216.5,208.5C 219.627,211.898 223.293,214.565 227.5,216.5C 227.973,217.906 228.973,218.573 230.5,218.5C 231.911,220.914 233.911,222.581 236.5,223.5C 239.275,226.605 242.608,228.938 246.5,230.5C 247.167,231.833 248.167,232.833 249.5,233.5C 251.55,235.547 253.883,237.214 256.5,238.5C 256.833,239.167 257.167,239.833 257.5,240.5C 226.671,241.498 195.671,241.831 164.5,241.5C 164.5,226.167 164.5,210.833 164.5,195.5C 175.5,195.5 186.5,195.5 197.5,195.5 Z"/></g>
<g><path style="opacity:1" fill="#c5efe1" d="M 210.5,203.5 C 211.609,203.557 212.609,203.89 213.5,204.5C 214.5,205.833 215.5,207.167 216.5,208.5C 213.911,207.581 211.911,205.914 210.5,203.5 Z"/></g>
<g><path style="opacity:1" fill="#d4ebee" d="M 213.5,204.5 C 219.106,207.442 223.773,211.442 227.5,216.5C 223.293,214.565 219.627,211.898 216.5,208.5C 215.5,207.167 214.5,205.833 213.5,204.5 Z"/></g>
<g><path style="opacity:1" fill="#cfe3f2" d="M 227.5,216.5 C 229.698,216.12 231.365,216.787 232.5,218.5C 231.833,218.5 231.167,218.5 230.5,218.5C 228.973,218.573 227.973,217.906 227.5,216.5 Z"/></g>
<g><path style="opacity:1" fill="#ffdcdc" d="M 352.5,219.5 C 352.5,219.833 352.5,220.167 352.5,220.5C 327.5,220.5 302.5,220.5 277.5,220.5C 277.5,230.833 277.5,241.167 277.5,251.5C 277.167,251.5 276.833,251.5 276.5,251.5C 275.359,241.243 275.192,230.91 276,220.5C 276.5,220 277,219.5 277.5,219C 302.67,218.17 327.67,218.337 352.5,219.5 Z"/></g>
<g><path style="opacity:1" fill="#c6f1df" d="M 230.5,218.5 C 231.167,218.5 231.833,218.5 232.5,218.5C 233.167,218.5 233.5,218.833 233.5,219.5C 234.5,220.833 235.5,222.167 236.5,223.5C 233.911,222.581 231.911,220.914 230.5,218.5 Z"/></g>
<g><path style="opacity:1" fill="#febdbd" d="M 352.5,220.5 C 352.833,249.174 352.5,277.841 351.5,306.5C 350.583,305.873 349.583,305.539 348.5,305.5C 347.833,305.5 347.167,305.5 346.5,305.5C 345.415,303.413 343.749,302.08 341.5,301.5C 340.738,299.738 339.404,298.738 337.5,298.5C 337.167,297.833 336.833,297.167 336.5,296.5C 332.194,293.202 327.861,289.868 323.5,286.5C 322.833,286.5 322.167,286.5 321.5,286.5C 320.145,283.145 317.811,280.811 314.5,279.5C 313.5,278.833 312.5,278.167 311.5,277.5C 308.605,273.76 304.938,271.093 300.5,269.5C 299.833,269.5 299.167,269.5 298.5,269.5C 298.027,268.094 297.027,267.427 295.5,267.5C 294.496,266.317 293.662,264.984 293,263.5C 290.833,262.512 289,261.179 287.5,259.5C 284.792,256.791 281.792,254.458 278.5,252.5C 277.833,252.5 277.5,252.167 277.5,251.5C 277.5,241.167 277.5,230.833 277.5,220.5C 302.5,220.5 327.5,220.5 352.5,220.5 Z"/></g>
<g><path style="opacity:1" fill="#d0edeb" d="M 233.5,219.5 C 236.663,221.811 239.997,223.978 243.5,226C 244.883,227.271 245.883,228.771 246.5,230.5C 242.608,228.938 239.275,226.605 236.5,223.5C 235.5,222.167 234.5,220.833 233.5,219.5 Z"/></g>
<g><path style="opacity:1" fill="#c9f3e1" d="M 249.5,233.5 C 252.688,234.028 255.021,235.695 256.5,238.5C 253.883,237.214 251.55,235.547 249.5,233.5 Z"/></g>
<g><path style="opacity:1" fill="#7ae2b6" d="M 257.5,240.5 C 258.492,240.328 259.158,240.662 259.5,241.5C 228.004,242.498 196.338,242.832 164.5,242.5C 164.5,242.167 164.5,241.833 164.5,241.5C 195.671,241.831 226.671,241.498 257.5,240.5 Z"/></g>
<g><path style="opacity:1" fill="#aaeccf" d="M 259.5,241.5 C 260.043,241.56 260.376,241.893 260.5,242.5C 228.507,243.5 196.507,243.833 164.5,243.5C 164.5,243.167 164.5,242.833 164.5,242.5C 196.338,242.832 228.004,242.498 259.5,241.5 Z"/></g>
<g><path style="opacity:1" fill="#bef0da" d="M 256.5,238.5 C 259.732,238.772 261.732,240.438 262.5,243.5C 262.5,244.167 262.5,244.833 262.5,245.5C 229.833,245.5 197.167,245.5 164.5,245.5C 164.5,244.833 164.5,244.167 164.5,243.5C 196.507,243.833 228.507,243.5 260.5,242.5C 260.376,241.893 260.043,241.56 259.5,241.5C 259.158,240.662 258.492,240.328 257.5,240.5C 257.167,239.833 256.833,239.167 256.5,238.5 Z"/></g>
<g><path style="opacity:0.82" fill="#fee1e2" d="M 352.5,219.5 C 353.821,249.373 353.821,279.373 352.5,309.5C 351.833,309.167 351.167,308.833 350.5,308.5C 349.833,307.5 349.167,306.5 348.5,305.5C 349.583,305.539 350.583,305.873 351.5,306.5C 352.5,277.841 352.833,249.174 352.5,220.5C 352.5,220.167 352.5,219.833 352.5,219.5 Z"/></g>
<g><path style="opacity:1" fill="#dae8f8" d="M 378.5,103.5 C 403.995,102.502 429.661,102.169 455.5,102.5C 455.833,196.668 455.499,290.668 454.5,384.5C 453.833,384.5 453.167,384.5 452.5,384.5C 452.5,384.167 452.5,383.833 452.5,383.5C 454.498,290.506 455.164,197.173 454.5,103.5C 429.167,103.5 403.833,103.5 378.5,103.5 Z"/></g>
<g><path style="opacity:1" fill="#bdd4f3" d="M 378.5,103.5 C 403.833,103.5 429.167,103.5 454.5,103.5C 455.164,197.173 454.498,290.506 452.5,383.5C 451.5,383.167 450.833,382.5 450.5,381.5C 451.5,381.5 452.5,381.5 453.5,381.5C 453.833,288.998 453.499,196.665 452.5,104.5C 428.167,104.5 403.833,104.5 379.5,104.5C 379.5,167.5 379.5,230.5 379.5,293.5C 379.333,305.171 379.5,316.838 380,328.5C 380.717,329.044 381.217,329.711 381.5,330.5C 380.833,330.5 380.167,330.5 379.5,330.5C 378.833,329.5 378.167,328.5 377.5,327.5C 377.167,252.665 377.501,177.998 378.5,103.5 Z"/></g>
<g><path style="opacity:1" fill="#a0c2f0" d="M 452.5,104.5 C 452.649,105.552 452.483,106.552 452,107.5C 428.575,106.506 405.075,106.173 381.5,106.5C 380.974,160.972 380.974,215.305 381.5,269.5C 381.498,277.862 380.831,285.862 379.5,293.5C 379.5,230.5 379.5,167.5 379.5,104.5C 403.833,104.5 428.167,104.5 452.5,104.5 Z"/></g>
<g><path style="opacity:1" fill="#d1f1e3" d="M 266.5,245.5 C 269.833,247.5 273.167,249.5 276.5,251.5C 276.833,251.5 277.167,251.5 277.5,251.5C 277.5,252.167 277.833,252.5 278.5,252.5C 279.833,254.167 281.167,255.833 282.5,257.5C 277.533,254.17 272.533,250.836 267.5,247.5C 267.167,246.833 266.833,246.167 266.5,245.5 Z"/></g>
<g><path style="opacity:1" fill="#8de6c1" d="M 266.5,245.5 C 266.833,246.167 267.167,246.833 267.5,247.5C 265.516,262.798 264.849,278.464 265.5,294.5C 264.834,286.507 264.5,278.34 264.5,270C 264.502,261.472 265.169,253.305 266.5,245.5 Z"/></g>
<g><path style="opacity:1" fill="#64deab" d="M 267.5,247.5 C 272.533,250.836 277.533,254.17 282.5,257.5C 282.973,258.906 283.973,259.573 285.5,259.5C 288.055,263.114 291.388,265.781 295.5,267.5C 295.973,268.906 296.973,269.573 298.5,269.5C 299.911,271.914 301.911,273.581 304.5,274.5C 304.833,274.5 305.167,274.5 305.5,274.5C 306.625,276.129 307.959,277.629 309.5,279C 312.646,280.657 315.646,282.491 318.5,284.5C 318.973,285.906 319.973,286.573 321.5,286.5C 322.911,288.914 324.911,290.581 327.5,291.5C 328.5,291.833 329.167,292.5 329.5,293.5C 308.34,294.497 287.007,294.831 265.5,294.5C 264.849,278.464 265.516,262.798 267.5,247.5 Z"/></g>
<g><path style="opacity:1" fill="#f5d9d7" d="M 278.5,252.5 C 281.792,254.458 284.792,256.791 287.5,259.5C 286.833,259.5 286.167,259.5 285.5,259.5C 283.973,259.573 282.973,258.906 282.5,257.5C 281.167,255.833 279.833,254.167 278.5,252.5 Z"/></g>
<g><path style="opacity:1" fill="#d5eee3" d="M 285.5,259.5 C 286.167,259.5 286.833,259.5 287.5,259.5C 289,261.179 290.833,262.512 293,263.5C 293.662,264.984 294.496,266.317 295.5,267.5C 291.388,265.781 288.055,263.114 285.5,259.5 Z"/></g>
<g><path style="opacity:1" fill="#caf0e0" d="M 295.5,267.5 C 297.027,267.427 298.027,268.094 298.5,269.5C 296.973,269.573 295.973,268.906 295.5,267.5 Z"/></g>
<g><path style="opacity:1" fill="#bdf0dc" d="M 298.5,269.5 C 299.167,269.5 299.833,269.5 300.5,269.5C 301.833,271.167 303.167,272.833 304.5,274.5C 301.911,273.581 299.911,271.914 298.5,269.5 Z"/></g>
<g><path style="opacity:1" fill="#f9d7d8" d="M 300.5,269.5 C 304.938,271.093 308.605,273.76 311.5,277.5C 309.5,276.5 307.5,275.5 305.5,274.5C 305.167,274.5 304.833,274.5 304.5,274.5C 303.167,272.833 301.833,271.167 300.5,269.5 Z"/></g>
<g><path style="opacity:1" fill="#d5efe4" d="M 305.5,274.5 C 307.5,275.5 309.5,276.5 311.5,277.5C 312.5,278.167 313.5,278.833 314.5,279.5C 315.833,281.167 317.167,282.833 318.5,284.5C 315.646,282.491 312.646,280.657 309.5,279C 307.959,277.629 306.625,276.129 305.5,274.5 Z"/></g>
<g><path style="opacity:1" fill="#f0e0df" d="M 314.5,279.5 C 317.811,280.811 320.145,283.145 321.5,286.5C 319.973,286.573 318.973,285.906 318.5,284.5C 317.167,282.833 315.833,281.167 314.5,279.5 Z"/></g>
<g><path style="opacity:1" fill="#c6f2e2" d="M 321.5,286.5 C 322.167,286.5 322.833,286.5 323.5,286.5C 324.833,288.167 326.167,289.833 327.5,291.5C 324.911,290.581 322.911,288.914 321.5,286.5 Z"/></g>
<g><path style="opacity:1" fill="#f2e4e2" d="M 323.5,286.5 C 327.861,289.868 332.194,293.202 336.5,296.5C 335.833,296.5 335.167,296.5 334.5,296.5C 333.738,294.738 332.404,293.738 330.5,293.5C 330.167,293.5 329.833,293.5 329.5,293.5C 329.167,292.5 328.5,291.833 327.5,291.5C 326.167,289.833 324.833,288.167 323.5,286.5 Z"/></g>
<g><path style="opacity:1" fill="#caf1df" d="M 334.5,297.5 C 334.5,297.167 334.5,296.833 334.5,296.5C 335.167,296.5 335.833,296.5 336.5,296.5C 336.833,297.167 337.167,297.833 337.5,298.5C 336.391,298.443 335.391,298.11 334.5,297.5 Z"/></g>
<g><path style="opacity:1" fill="#d3f3e8" d="M 337.5,298.5 C 339.404,298.738 340.738,299.738 341.5,301.5C 339.596,301.262 338.262,300.262 337.5,298.5 Z"/></g>
<g><path style="opacity:1" fill="#64ddaa" d="M 334.5,297.5 C 335.391,298.11 336.391,298.443 337.5,298.5C 338.262,300.262 339.596,301.262 341.5,301.5C 342.585,303.587 344.251,304.92 346.5,305.5C 347.262,307.262 348.596,308.262 350.5,308.5C 351.167,308.833 351.833,309.167 352.5,309.5C 352.5,310.5 352.5,311.5 352.5,312.5C 355.905,313.038 358.905,314.371 361.5,316.5C 361.328,317.492 361.662,318.158 362.5,318.5C 362.5,318.833 362.5,319.167 362.5,319.5C 361.508,326.648 361.175,333.981 361.5,341.5C 329.5,341.5 297.5,341.5 265.5,341.5C 265.5,326.833 265.5,312.167 265.5,297.5C 288.5,297.5 311.5,297.5 334.5,297.5 Z"/></g>
<g><path style="opacity:1" fill="#cff1e3" d="M 341.5,301.5 C 343.749,302.08 345.415,303.413 346.5,305.5C 344.251,304.92 342.585,303.587 341.5,301.5 Z"/></g>
<g><path style="opacity:1" fill="#c6f3e3" d="M 346.5,305.5 C 347.167,305.5 347.833,305.5 348.5,305.5C 349.167,306.5 349.833,307.5 350.5,308.5C 348.596,308.262 347.262,307.262 346.5,305.5 Z"/></g>
<g><path style="opacity:1" fill="#c6f2df" d="M 352.5,309.5 C 356.051,311.111 359.051,313.444 361.5,316.5C 358.905,314.371 355.905,313.038 352.5,312.5C 352.5,311.5 352.5,310.5 352.5,309.5 Z"/></g>
<g><path style="opacity:1" fill="#ccf3e3" d="M 370.5,323.5 C 373.295,324.063 375.628,325.396 377.5,327.5C 378.167,328.5 378.833,329.5 379.5,330.5C 376.208,328.542 373.208,326.209 370.5,323.5 Z"/></g>
<g><path style="opacity:1" fill="#61dda9" d="M 369.5,323.5 C 369.833,323.5 370.167,323.5 370.5,323.5C 373.208,326.209 376.208,328.542 379.5,330.5C 379.973,331.906 380.973,332.573 382.5,332.5C 385.526,336.072 389.192,338.739 393.5,340.5C 393.833,341.5 394.5,342.167 395.5,342.5C 386.348,343.494 377.015,343.827 367.5,343.5C 366.874,336.416 367.541,329.75 369.5,323.5 Z"/></g>
<g><path style="opacity:1" fill="#c0f0dc" d="M 379.5,330.5 C 380.167,330.5 380.833,330.5 381.5,330.5C 381.833,331.167 382.167,331.833 382.5,332.5C 380.973,332.573 379.973,331.906 379.5,330.5 Z"/></g>
<g><path style="opacity:1" fill="#cdeee7" d="M 382.5,332.5 C 383.873,332.343 385.207,332.51 386.5,333C 387.532,334.627 388.866,335.793 390.5,336.5C 391.5,337.833 392.5,339.167 393.5,340.5C 389.192,338.739 385.526,336.072 382.5,332.5 Z"/></g>
<g><path style="opacity:1" fill="#d4e7f4" d="M 390.5,336.5 C 394.68,338.585 398.013,341.585 400.5,345.5C 399.5,345.5 398.5,345.5 397.5,345.5C 397.737,344.209 397.404,343.209 396.5,342.5C 396.167,342.5 395.833,342.5 395.5,342.5C 394.5,342.167 393.833,341.5 393.5,340.5C 392.5,339.167 391.5,337.833 390.5,336.5 Z"/></g>
<g><path style="opacity:1" fill="#88e4be" d="M 334.5,296.5 C 334.5,296.833 334.5,297.167 334.5,297.5C 311.5,297.5 288.5,297.5 265.5,297.5C 265.5,312.167 265.5,326.833 265.5,341.5C 297.816,343.493 330.483,344.16 363.5,343.5C 363.801,335.414 363.467,327.414 362.5,319.5C 362.5,319.167 362.5,318.833 362.5,318.5C 363.117,318.611 363.617,318.944 364,319.5C 364.5,327.827 364.666,336.16 364.5,344.5C 331.167,344.5 297.833,344.5 264.5,344.5C 264.5,328.5 264.5,312.5 264.5,296.5C 287.833,296.5 311.167,296.5 334.5,296.5 Z"/></g>
<g><path style="opacity:1" fill="#8de6c1" d="M 369.5,323.5 C 367.541,329.75 366.874,336.416 367.5,343.5C 377.015,343.827 386.348,343.494 395.5,342.5C 395.833,342.5 396.167,342.5 396.5,342.5C 386.889,344.474 376.889,345.141 366.5,344.5C 366.5,337.167 366.5,329.833 366.5,322.5C 367.791,322.263 368.791,322.596 369.5,323.5 Z"/></g>
<g><path style="opacity:1" fill="#63ddaa" d="M 367.5,347.5 C 379.171,347.333 390.838,347.5 402.5,348C 403.244,349.039 404.244,349.539 405.5,349.5C 412.776,356.471 420.776,362.471 429.5,367.5C 431.937,369.433 434.271,371.6 436.5,374C 441.686,377.757 447.019,381.257 452.5,384.5C 455.851,387.848 459.518,390.848 463.5,393.5C 431.671,394.498 399.671,394.832 367.5,394.5C 367.5,378.833 367.5,363.167 367.5,347.5 Z"/></g>
<g><path style="opacity:1" fill="#d1ebec" d="M 402.5,345.5 C 410.618,351.07 418.618,356.904 426.5,363C 427.386,364.615 428.386,366.115 429.5,367.5C 420.776,362.471 412.776,356.471 405.5,349.5C 404.5,348.167 403.5,346.833 402.5,345.5 Z"/></g>
<g><path style="opacity:1" fill="#cfeaec" d="M 429.5,367.5 C 430.873,367.343 432.207,367.51 433.5,368C 439.441,372.239 445.108,376.739 450.5,381.5C 450.833,382.5 451.5,383.167 452.5,383.5C 452.5,383.833 452.5,384.167 452.5,384.5C 447.019,381.257 441.686,377.757 436.5,374C 434.271,371.6 431.937,369.433 429.5,367.5 Z"/></g>
<g><path style="opacity:1" fill="#9ceac9" d="M 367.5,347.5 C 367.5,363.167 367.5,378.833 367.5,394.5C 399.671,394.832 431.671,394.498 463.5,393.5C 464.833,394.167 464.833,394.833 463.5,395.5C 431.167,395.5 398.833,395.5 366.5,395.5C 366.17,379.325 366.504,363.325 367.5,347.5 Z"/></g>
<g><path style="opacity:1" fill="#c2f1dd" d="M 59.5,143.5 C 59.5,143.833 59.5,144.167 59.5,144.5C 59.5,159.5 59.5,174.5 59.5,189.5C 59.5,189.833 59.5,190.167 59.5,190.5C 93.3292,191.498 127.329,191.832 161.5,191.5C 161.5,183.5 161.5,175.5 161.5,167.5C 163.674,167.75 165.341,168.75 166.5,170.5C 165.022,170.238 163.689,170.571 162.5,171.5C 163.465,178.776 163.799,186.109 163.5,193.5C 173.167,193.5 182.833,193.5 192.5,193.5C 192.5,192.167 192.5,190.833 192.5,189.5C 192.833,189.5 193.167,189.5 193.5,189.5C 196.457,191.158 198.79,193.491 200.5,196.5C 199.391,196.443 198.391,196.11 197.5,195.5C 186.346,194.505 175.012,194.172 163.5,194.5C 163.17,210.675 163.504,226.675 164.5,242.5C 164.5,242.833 164.5,243.167 164.5,243.5C 164.5,244.167 164.5,244.833 164.5,245.5C 164.5,261.833 164.5,278.167 164.5,294.5C 197.167,294.5 229.833,294.5 262.5,294.5C 262.5,279.167 262.5,263.833 262.5,248.5C 262.5,247.833 262.5,247.167 262.5,246.5C 262.5,246.167 262.5,245.833 262.5,245.5C 262.5,244.833 262.5,244.167 262.5,243.5C 263.995,243.989 265.329,244.655 266.5,245.5C 265.169,253.305 264.502,261.472 264.5,270C 264.5,278.34 264.834,286.507 265.5,294.5C 276.161,295.167 286.995,295.5 298,295.5C 309.188,295.499 320.021,294.832 330.5,293.5C 332.404,293.738 333.738,294.738 334.5,296.5C 311.167,296.5 287.833,296.5 264.5,296.5C 264.5,312.5 264.5,328.5 264.5,344.5C 297.833,344.5 331.167,344.5 364.5,344.5C 364.666,336.16 364.5,327.827 364,319.5C 363.617,318.944 363.117,318.611 362.5,318.5C 361.662,318.158 361.328,317.492 361.5,316.5C 364.835,318.513 367.835,320.846 370.5,323.5C 370.167,323.5 369.833,323.5 369.5,323.5C 368.791,322.596 367.791,322.263 366.5,322.5C 366.5,329.833 366.5,337.167 366.5,344.5C 376.889,345.141 386.889,344.474 396.5,342.5C 397.404,343.209 397.737,344.209 397.5,345.5C 398.5,345.5 399.5,345.5 400.5,345.5C 401.167,345.5 401.833,345.5 402.5,345.5C 403.5,346.833 404.5,348.167 405.5,349.5C 404.244,349.539 403.244,349.039 402.5,348C 390.838,347.5 379.171,347.333 367.5,347.5C 366.504,363.325 366.17,379.325 366.5,395.5C 398.833,395.5 431.167,395.5 463.5,395.5C 431.5,396.167 399.5,396.833 367.5,397.5C 366.167,413.5 366.167,429.5 367.5,445.5C 400.996,446.498 434.663,446.832 468.5,446.5C 468.5,447.5 468.5,448.5 468.5,449.5C 468.167,449.5 467.833,449.5 467.5,449.5C 434.167,449.5 400.833,449.5 367.5,449.5C 366.504,465.658 366.17,481.991 366.5,498.5C 400.5,498.5 434.5,498.5 468.5,498.5C 468.5,498.833 468.5,499.167 468.5,499.5C 433.833,499.5 399.167,499.5 364.5,499.5C 364.5,482.833 364.5,466.167 364.5,449.5C 331.167,449.5 297.833,449.5 264.5,449.5C 264.5,461.167 264.5,472.833 264.5,484.5C 264.5,489.167 264.5,493.833 264.5,498.5C 296.833,498.5 329.167,498.5 361.5,498.5C 361.5,498.833 361.5,499.167 361.5,499.5C 260.833,499.5 160.167,499.5 59.5,499.5C 59.5,499.167 59.5,498.833 59.5,498.5C 58.1713,464.264 58.1713,429.931 59.5,395.5C 58.1667,311.5 58.1667,227.5 59.5,143.5 Z"/></g>
<g><path style="opacity:1" fill="#9ae9c9" d="M 160.5,347.5 C 161.496,363.325 161.83,379.325 161.5,395.5C 127.5,395.5 93.5,395.5 59.5,395.5C 59.5,395.167 59.5,394.833 59.5,394.5C 93.1667,394.5 126.833,394.5 160.5,394.5C 160.5,378.833 160.5,363.167 160.5,347.5 Z"/></g>
<g><path style="opacity:1" fill="#64ddaa" d="M 160.5,347.5 C 160.5,363.167 160.5,378.833 160.5,394.5C 126.833,394.5 93.1667,394.5 59.5,394.5C 59.5,378.833 59.5,363.167 59.5,347.5C 93.1667,347.5 126.833,347.5 160.5,347.5 Z"/></g>
<g><path style="opacity:1" fill="#80e3b9" d="M 164.5,346.5 C 197.167,346.5 229.833,346.5 262.5,346.5C 262.5,362.833 262.5,379.167 262.5,395.5C 229.833,395.5 197.167,395.5 164.5,395.5C 164.5,379.167 164.5,362.833 164.5,346.5 Z"/></g>
<g><path style="opacity:1" fill="#64ddaa" d="M 165.5,348.5 C 197.5,348.5 229.5,348.5 261.5,348.5C 261.5,363.833 261.5,379.167 261.5,394.5C 229.5,394.5 197.5,394.5 165.5,394.5C 165.5,379.167 165.5,363.833 165.5,348.5 Z"/></g>
<g><path style="opacity:1" fill="#96e8c6" d="M 264.5,346.5 C 297.833,346.5 331.167,346.5 364.5,346.5C 364.5,362.833 364.5,379.167 364.5,395.5C 331.167,395.5 297.833,395.5 264.5,395.5C 264.5,379.167 264.5,362.833 264.5,346.5 Z"/></g>
<g><path style="opacity:1" fill="#64ddaa" d="M 265.5,347.5 C 298.167,347.5 330.833,347.5 363.5,347.5C 363.5,363.167 363.5,378.833 363.5,394.5C 330.833,394.5 298.167,394.5 265.5,394.5C 265.5,378.833 265.5,363.167 265.5,347.5 Z"/></g>
<g><path style="opacity:1" fill="#89e4be" d="M 59.5,297.5 C 93.3292,296.502 127.329,296.168 161.5,296.5C 161.5,312.5 161.5,328.5 161.5,344.5C 127.329,344.832 93.3292,344.498 59.5,343.5C 93.1667,343.5 126.833,343.5 160.5,343.5C 160.5,342.5 160.5,341.5 160.5,340.5C 160.5,326.167 160.5,311.833 160.5,297.5C 126.833,297.5 93.1667,297.5 59.5,297.5 Z"/></g>
<g><path style="opacity:1" fill="#54d9a1" d="M 362.5,319.5 C 363.467,327.414 363.801,335.414 363.5,343.5C 330.483,344.16 297.816,343.493 265.5,341.5C 297.5,341.5 329.5,341.5 361.5,341.5C 361.175,333.981 361.508,326.648 362.5,319.5 Z"/></g>
<g><path style="opacity:1" fill="#62dca8" d="M 164.5,341.5 C 197.167,341.5 229.833,341.5 262.5,341.5C 262.5,342.167 262.5,342.833 262.5,343.5C 229.833,344.833 197.167,344.833 164.5,343.5C 164.5,342.833 164.5,342.167 164.5,341.5 Z"/></g>
<g><path style="opacity:1" fill="#52d9a0" d="M 160.5,340.5 C 160.5,341.5 160.5,342.5 160.5,343.5C 126.833,343.5 93.1667,343.5 59.5,343.5C 59.5,342.833 59.5,342.167 59.5,341.5C 93.1977,341.813 126.864,341.479 160.5,340.5 Z"/></g>
<g><path style="opacity:1" fill="#9be9c8" d="M 262.5,343.5 C 262.5,342.833 262.5,342.167 262.5,341.5C 262.5,326.833 262.5,312.167 262.5,297.5C 229.833,297.5 197.167,297.5 164.5,297.5C 164.5,312.167 164.5,326.833 164.5,341.5C 164.5,342.167 164.5,342.833 164.5,343.5C 163.504,328.009 163.17,312.342 163.5,296.5C 196.833,296.5 230.167,296.5 263.5,296.5C 263.83,312.342 263.496,328.009 262.5,343.5 Z"/></g>
<g><path style="opacity:1" fill="#64ddaa" d="M 262.5,341.5 C 229.833,341.5 197.167,341.5 164.5,341.5C 164.5,326.833 164.5,312.167 164.5,297.5C 197.167,297.5 229.833,297.5 262.5,297.5C 262.5,312.167 262.5,326.833 262.5,341.5 Z"/></g>
<g><path style="opacity:1" fill="#64ddaa" d="M 59.5,297.5 C 93.1667,297.5 126.833,297.5 160.5,297.5C 160.5,311.833 160.5,326.167 160.5,340.5C 126.864,341.479 93.1977,341.813 59.5,341.5C 59.5,326.833 59.5,312.167 59.5,297.5 Z"/></g>
<g><path style="opacity:1" fill="#b3eed6" d="M 329.5,293.5 C 329.833,293.5 330.167,293.5 330.5,293.5C 320.021,294.832 309.188,295.499 298,295.5C 286.995,295.5 276.161,295.167 265.5,294.5C 287.007,294.831 308.34,294.497 329.5,293.5 Z"/></g>
<g><path style="opacity:1" fill="#71e0b2" d="M 164.5,245.5 C 197.167,245.5 229.833,245.5 262.5,245.5C 262.5,245.833 262.5,246.167 262.5,246.5C 262.167,246.5 261.833,246.5 261.5,246.5C 229.5,246.5 197.5,246.5 165.5,246.5C 164.849,262.536 165.516,278.202 167.5,293.5C 198.833,293.5 230.167,293.5 261.5,293.5C 261.171,278.324 261.504,263.324 262.5,248.5C 262.5,263.833 262.5,279.167 262.5,294.5C 229.833,294.5 197.167,294.5 164.5,294.5C 164.5,278.167 164.5,261.833 164.5,245.5 Z"/></g>
<g><path style="opacity:1" fill="#7ae3b8" d="M 160.5,245.5 C 160.833,245.5 161.167,245.5 161.5,245.5C 161.5,261.833 161.5,278.167 161.5,294.5C 127.329,294.832 93.3292,294.498 59.5,293.5C 93.1667,293.5 126.833,293.5 160.5,293.5C 160.5,277.5 160.5,261.5 160.5,245.5 Z"/></g>
<g><path style="opacity:1" fill="#64ddaa" d="M 261.5,246.5 C 261.833,246.5 262.167,246.5 262.5,246.5C 262.5,247.167 262.5,247.833 262.5,248.5C 261.504,263.324 261.171,278.324 261.5,293.5C 230.167,293.5 198.833,293.5 167.5,293.5C 166.205,278.624 166.205,263.791 167.5,249C 198.405,248.171 229.238,248.338 260,249.5C 260.513,248.473 261.013,247.473 261.5,246.5 Z"/></g>
<g><path style="opacity:1" fill="#64ddaa" d="M 59.5,245.5 C 93.1667,245.5 126.833,245.5 160.5,245.5C 160.5,261.5 160.5,277.5 160.5,293.5C 126.833,293.5 93.1667,293.5 59.5,293.5C 59.5,277.5 59.5,261.5 59.5,245.5 Z"/></g>
<g><path style="opacity:1" fill="#58dba4" d="M 261.5,246.5 C 261.013,247.473 260.513,248.473 260,249.5C 229.238,248.338 198.405,248.171 167.5,249C 166.205,263.791 166.205,278.624 167.5,293.5C 165.516,278.202 164.849,262.536 165.5,246.5C 197.5,246.5 229.5,246.5 261.5,246.5 Z"/></g>
<g><path style="opacity:1" fill="#b8efd7" d="M 59.5,242.5 C 93.5,242.5 127.5,242.5 161.5,242.5C 161.5,243.5 161.5,244.5 161.5,245.5C 161.167,245.5 160.833,245.5 160.5,245.5C 126.833,245.5 93.1667,245.5 59.5,245.5C 59.5,244.5 59.5,243.5 59.5,242.5 Z"/></g>
<g><path style="opacity:1" fill="#64ddaa" d="M 59.5,198.5 C 92.1667,198.5 124.833,198.5 157.5,198.5C 157.5,212.833 157.5,227.167 157.5,241.5C 124.833,241.5 92.1667,241.5 59.5,241.5C 59.5,227.167 59.5,212.833 59.5,198.5 Z"/></g>
<g><path style="opacity:1" fill="#5adba7" d="M 59.5,195.5 C 93.1667,195.5 126.833,195.5 160.5,195.5C 160.5,210.833 160.5,226.167 160.5,241.5C 159.5,241.5 158.5,241.5 157.5,241.5C 157.5,227.167 157.5,212.833 157.5,198.5C 124.833,198.5 92.1667,198.5 59.5,198.5C 59.5,197.5 59.5,196.5 59.5,195.5 Z"/></g>
<g><path style="opacity:1" fill="#84e5bd" d="M 59.5,195.5 C 93.3292,194.502 127.329,194.168 161.5,194.5C 161.5,210.5 161.5,226.5 161.5,242.5C 127.5,242.5 93.5,242.5 59.5,242.5C 59.5,242.167 59.5,241.833 59.5,241.5C 92.1667,241.5 124.833,241.5 157.5,241.5C 158.5,241.5 159.5,241.5 160.5,241.5C 160.5,226.167 160.5,210.833 160.5,195.5C 126.833,195.5 93.1667,195.5 59.5,195.5 Z"/></g>
<g><path style="opacity:1" fill="#9feacb" d="M 190.5,189.5 C 190.833,189.5 191.167,189.5 191.5,189.5C 191.5,190.5 191.5,191.5 191.5,192.5C 182.318,192.827 173.318,192.493 164.5,191.5C 173.565,192.136 182.231,191.47 190.5,189.5 Z"/></g>
<g><path style="opacity:1" fill="#72e1b3" d="M 160.5,167.5 C 160.833,167.5 161.167,167.5 161.5,167.5C 161.5,175.5 161.5,183.5 161.5,191.5C 127.329,191.832 93.3292,191.498 59.5,190.5C 93.1667,190.5 126.833,190.5 160.5,190.5C 160.5,182.833 160.5,175.167 160.5,167.5 Z"/></g>
<g><path style="opacity:1" fill="#bbf0da" d="M 452.5,384.5 C 453.167,384.5 453.833,384.5 454.5,384.5C 457.736,387.797 461.403,390.63 465.5,393C 466.758,394.741 467.758,396.574 468.5,398.5C 468.167,398.5 467.833,398.5 467.5,398.5C 434.338,397.502 401.004,397.168 367.5,397.5C 399.5,396.833 431.5,396.167 463.5,395.5C 464.833,394.833 464.833,394.167 463.5,393.5C 459.518,390.848 455.851,387.848 452.5,384.5 Z"/></g>
<g><path style="opacity:1" fill="#91e7c4" d="M 367.5,397.5 C 401.004,397.168 434.338,397.502 467.5,398.5C 434.167,398.5 400.833,398.5 367.5,398.5C 367.5,414.167 367.5,429.833 367.5,445.5C 366.167,429.5 366.167,413.5 367.5,397.5 Z"/></g>
<g><path style="opacity:1" fill="#5adca6" d="M 467.5,398.5 C 467.5,399.167 467.5,399.833 467.5,400.5C 435.167,400.5 402.833,400.5 370.5,400.5C 370.5,415.167 370.5,429.833 370.5,444.5C 402.833,444.5 435.167,444.5 467.5,444.5C 434.338,445.498 401.004,445.832 367.5,445.5C 367.5,429.833 367.5,414.167 367.5,398.5C 400.833,398.5 434.167,398.5 467.5,398.5 Z"/></g>
<g><path style="opacity:1" fill="#64ddaa" d="M 59.5,400.5 C 92.1667,400.5 124.833,400.5 157.5,400.5C 157.5,415.167 157.5,429.833 157.5,444.5C 124.76,444.174 92.0934,444.508 59.5,445.5C 59.5,430.5 59.5,415.5 59.5,400.5 Z"/></g>
<g><path style="opacity:1" fill="#5adca7" d="M 164.5,398.5 C 196.84,398.167 229.174,398.5 261.5,399.5C 230.505,400.333 199.505,400.833 168.5,401C 167.186,407.762 166.52,414.762 166.5,422C 166.667,428.833 166.833,435.667 167,442.5C 167.5,443 168,443.5 168.5,444C 183.667,444.167 198.833,444.333 214,444.5C 229.554,444.492 244.887,443.825 260,442.5C 260.374,443.416 260.874,444.25 261.5,445C 229.168,445.5 196.835,445.667 164.5,445.5C 164.5,429.833 164.5,414.167 164.5,398.5 Z"/></g>
<g><path style="opacity:1" fill="#66deab" d="M 164.5,398.5 C 196.996,397.502 229.662,397.168 262.5,397.5C 262.5,413.833 262.5,430.167 262.5,446.5C 229.662,446.832 196.996,446.498 164.5,445.5C 196.835,445.667 229.168,445.5 261.5,445C 260.874,444.25 260.374,443.416 260,442.5C 244.887,443.825 229.554,444.492 214,444.5C 198.833,444.333 183.667,444.167 168.5,444C 168,443.5 167.5,443 167,442.5C 166.833,435.667 166.667,428.833 166.5,422C 166.52,414.762 167.186,407.762 168.5,401C 199.505,400.833 230.505,400.333 261.5,399.5C 229.174,398.5 196.84,398.167 164.5,398.5 Z"/></g>
<g><path style="opacity:1" fill="#64ddaa" d="M 467.5,400.5 C 467.5,415.167 467.5,429.833 467.5,444.5C 435.167,444.5 402.833,444.5 370.5,444.5C 370.5,429.833 370.5,415.167 370.5,400.5C 402.833,400.5 435.167,400.5 467.5,400.5 Z"/></g>
<g><path style="opacity:1" fill="#6adfae" d="M 59.5,445.5 C 92.0934,444.508 124.76,444.174 157.5,444.5C 157.5,429.833 157.5,415.167 157.5,400.5C 124.833,400.5 92.1667,400.5 59.5,400.5C 59.5,399.5 59.5,398.5 59.5,397.5C 93.1683,397.333 126.835,397.5 160.5,398C 161.159,405.924 161.493,413.924 161.5,422C 161.493,430.076 161.159,438.076 160.5,446C 126.664,446.831 92.9975,446.664 59.5,445.5 Z"/></g>
<g><path style="opacity:1" fill="#88e5bf" d="M 264.5,397.5 C 297.833,397.5 331.167,397.5 364.5,397.5C 364.5,413.833 364.5,430.167 364.5,446.5C 331.167,446.5 297.833,446.5 264.5,446.5C 264.5,430.167 264.5,413.833 264.5,397.5 Z"/></g>
<g><path style="opacity:1" fill="#59dca6" d="M 266.5,398.5 C 298.833,398.5 331.167,398.5 363.5,398.5C 363.5,414.167 363.5,429.833 363.5,445.5C 331.167,445.5 298.833,445.5 266.5,445.5C 266.202,442.664 266.869,442.164 268.5,444C 299.165,444.5 329.832,444.667 360.5,444.5C 360.5,429.833 360.5,415.167 360.5,400.5C 328.816,401.159 297.482,400.493 266.5,398.5 Z"/></g>
<g><path style="opacity:1" fill="#64ddaa" d="M 266.5,398.5 C 297.482,400.493 328.816,401.159 360.5,400.5C 360.5,415.167 360.5,429.833 360.5,444.5C 329.832,444.667 299.165,444.5 268.5,444C 266.869,442.164 266.202,442.664 266.5,445.5C 265.167,429.833 265.167,414.167 266.5,398.5 Z"/></g>
<g><path style="opacity:1" fill="#8be5c0" d="M 467.5,398.5 C 467.833,398.5 468.167,398.5 468.5,398.5C 468.5,414.5 468.5,430.5 468.5,446.5C 434.663,446.832 400.996,446.498 367.5,445.5C 401.004,445.832 434.338,445.498 467.5,444.5C 467.5,429.833 467.5,415.167 467.5,400.5C 467.5,399.833 467.5,399.167 467.5,398.5 Z"/></g>
<g><path style="opacity:1" fill="#65deab" d="M 164.5,449.5 C 197.167,449.5 229.833,449.5 262.5,449.5C 262.5,465.5 262.5,481.5 262.5,497.5C 229.833,497.5 197.167,497.5 164.5,497.5C 164.5,481.5 164.5,465.5 164.5,449.5 Z"/></g>
<g><path style="opacity:1" fill="#65deab" d="M 364.5,499.5 C 363.5,499.5 362.5,499.5 361.5,499.5C 361.5,499.167 361.5,498.833 361.5,498.5C 329.671,497.502 297.671,497.168 265.5,497.5C 265.818,492.968 265.485,488.634 264.5,484.5C 264.5,472.833 264.5,461.167 264.5,449.5C 297.833,449.5 331.167,449.5 364.5,449.5C 364.5,466.167 364.5,482.833 364.5,499.5 Z"/></g>
<g><path style="opacity:1" fill="#5adba5" d="M 160.5,449.5 C 160.5,465.5 160.5,481.5 160.5,497.5C 159.5,497.5 158.5,497.5 157.5,497.5C 157.5,482.5 157.5,467.5 157.5,452.5C 124.833,452.5 92.1667,452.5 59.5,452.5C 59.5,451.5 59.5,450.5 59.5,449.5C 93.1667,449.5 126.833,449.5 160.5,449.5 Z"/></g>
<g><path style="opacity:1" fill="#64deab" d="M 59.5,452.5 C 92.1667,452.5 124.833,452.5 157.5,452.5C 157.5,467.5 157.5,482.5 157.5,497.5C 124.833,497.5 92.1667,497.5 59.5,497.5C 59.5,482.5 59.5,467.5 59.5,452.5 Z"/></g>
<g><path style="opacity:1" fill="#8ce5c0" d="M 160.5,449.5 C 161.167,465.005 161.833,480.672 162.5,496.5C 163.167,480.672 163.833,465.005 164.5,449.5C 164.5,465.5 164.5,481.5 164.5,497.5C 197.167,497.5 229.833,497.5 262.5,497.5C 195.002,498.499 127.335,498.833 59.5,498.5C 59.5,498.167 59.5,497.833 59.5,497.5C 92.1667,497.5 124.833,497.5 157.5,497.5C 158.5,497.5 159.5,497.5 160.5,497.5C 160.5,481.5 160.5,465.5 160.5,449.5 Z"/></g>
<g><path style="opacity:1" fill="#88e5be" d="M 264.5,484.5 C 265.485,488.634 265.818,492.968 265.5,497.5C 297.671,497.168 329.671,497.502 361.5,498.5C 329.167,498.5 296.833,498.5 264.5,498.5C 264.5,493.833 264.5,489.167 264.5,484.5 Z"/></g>
<g><path style="opacity:1" fill="#8fe6c2" d="M 367.5,449.5 C 367.5,465.5 367.5,481.5 367.5,497.5C 400.833,497.5 434.167,497.5 467.5,497.5C 467.5,481.5 467.5,465.5 467.5,449.5C 467.833,449.5 468.167,449.5 468.5,449.5C 468.5,465.833 468.5,482.167 468.5,498.5C 434.5,498.5 400.5,498.5 366.5,498.5C 366.17,481.991 366.504,465.658 367.5,449.5 Z"/></g>
<g><path style="opacity:1" fill="#64ddaa" d="M 367.5,449.5 C 400.833,449.5 434.167,449.5 467.5,449.5C 467.5,465.5 467.5,481.5 467.5,497.5C 434.167,497.5 400.833,497.5 367.5,497.5C 367.5,481.5 367.5,465.5 367.5,449.5 Z"/></g>
</svg>
