<svg xmlns="http://www.w3.org/2000/svg" xmlns:xlink="http://www.w3.org/1999/xlink" width="50px" height="35px" viewBox="0 0 50 35" version="1.1">
                        <g id="surface1">
                        <path style=" stroke:none;fill-rule:nonzero;fill:rgb(10.980392%,8.627451%,38.823529%);fill-opacity:1;" d="M 0 0 C 16.5 0 33 0 50 0 C 50 11.550781 50 23.101562 50 35 C 33.5 35 17 35 0 35 C 0 23.449219 0 11.898438 0 0 Z M 0 0 "/>
                        <path style=" stroke:none;fill-rule:nonzero;fill:rgb(99.607843%,98.039216%,98.431373%);fill-opacity:1;" d="M 0 18.777344 C 16.5 18.777344 33 18.777344 50 18.777344 C 50 24.132812 50 29.488281 50 35 C 33.5 35 17 35 0 35 C 0 29.644531 0 24.296875 0 18.777344 Z M 0 18.777344 "/>
                        <path style=" stroke:none;fill-rule:nonzero;fill:rgb(69.803922%,2.352941%,4.313725%);fill-opacity:1;" d="M 0 32.34375 C 16.5 32.34375 33 32.34375 50 32.34375 C 50 33.222656 50 34.097656 50 35 C 33.5 35 17 35 0 35 C 0 34.121094 0 33.25 0 32.34375 Z M 0 32.34375 "/>
                        <path style=" stroke:none;fill-rule:nonzero;fill:rgb(69.411765%,1.568627%,3.921569%);fill-opacity:1;" d="M 0 26.9375 C 16.5 26.9375 33 26.9375 50 26.9375 C 50 27.816406 50 28.6875 50 29.59375 C 33.5 29.59375 17 29.59375 0 29.59375 C 0 28.714844 0 27.84375 0 26.9375 Z M 0 26.9375 "/>
                        <path style=" stroke:none;fill-rule:nonzero;fill:rgb(69.019608%,1.960784%,3.921569%);fill-opacity:1;" d="M 0 21.53125 C 16.5 21.53125 33 21.53125 50 21.53125 C 50 22.410156 50 23.28125 50 24.1875 C 33.5 24.1875 17 24.1875 0 24.1875 C 0 23.3125 0 22.433594 0 21.53125 Z M 0 21.53125 "/>
                        <path style=" stroke:none;fill-rule:nonzero;fill:rgb(99.607843%,98.039216%,98.039216%);fill-opacity:1;" d="M 21 13.46875 C 30.570312 13.46875 40.140625 13.46875 50 13.46875 C 50 14.378906 50 15.285156 50 16.222656 C 40.429688 16.222656 30.859375 16.222656 21 16.222656 C 21 15.3125 21 14.402344 21 13.46875 Z M 21 13.46875 "/>
                        <path style=" stroke:none;fill-rule:nonzero;fill:rgb(99.607843%,98.039216%,98.039216%);fill-opacity:1;" d="M 21 8.0625 C 30.570312 8.0625 40.140625 8.0625 50 8.0625 C 50 8.96875 50 9.878906 50 10.8125 C 40.429688 10.8125 30.859375 10.8125 21 10.8125 C 21 9.90625 21 8.996094 21 8.0625 Z M 21 8.0625 "/>
                        <path style=" stroke:none;fill-rule:nonzero;fill:rgb(99.607843%,98.039216%,98.039216%);fill-opacity:1;" d="M 21 2.65625 C 30.570312 2.65625 40.140625 2.65625 50 2.65625 C 50 3.5625 50 4.472656 50 5.40625 C 40.429688 5.40625 30.859375 5.40625 21 5.40625 C 21 4.5 21 3.589844 21 2.65625 Z M 21 2.65625 "/>
                        <path style=" stroke:none;fill-rule:nonzero;fill:rgb(70.588235%,1.176471%,3.529412%);fill-opacity:1;" d="M 21 10.8125 C 30.570312 10.8125 40.140625 10.8125 50 10.8125 C 50 11.6875 50 12.566406 50 13.46875 C 40.429688 13.46875 30.859375 13.46875 21 13.46875 C 21 12.589844 21 11.71875 21 10.8125 Z M 21 10.8125 "/>
                        <path style=" stroke:none;fill-rule:nonzero;fill:rgb(70.588235%,1.176471%,3.529412%);fill-opacity:1;" d="M 21 5.40625 C 30.570312 5.40625 40.140625 5.40625 50 5.40625 C 50 6.285156 50 7.15625 50 8.0625 C 40.429688 8.0625 30.859375 8.0625 21 8.0625 C 21 7.183594 21 6.3125 21 5.40625 Z M 21 5.40625 "/>
                        <path style=" stroke:none;fill-rule:nonzero;fill:rgb(70.588235%,2.745098%,5.098039%);fill-opacity:1;" d="M 21 0 C 30.570312 0 40.140625 0 50 0 C 50 0.878906 50 1.75 50 2.65625 C 40.429688 2.65625 30.859375 2.65625 21 2.65625 C 21 1.777344 21 0.902344 21 0 Z M 21 0 "/>
                        <path style=" stroke:none;fill-rule:nonzero;fill:rgb(69.411765%,1.568627%,4.313725%);fill-opacity:1;" d="M 21 16.222656 C 30.570312 16.222656 40.140625 16.222656 50 16.222656 C 50 17.0625 50 17.910156 50 18.777344 C 40.429688 18.777344 30.859375 18.777344 21 18.777344 C 21 17.9375 21 17.089844 21 16.222656 Z M 21 16.222656 "/>
                        <path style=" stroke:none;fill-rule:nonzero;fill:rgb(100%,94.901961%,92.941176%);fill-opacity:1;" d="M 0 26.652344 C 16.5 26.652344 33 26.652344 50 26.652344 C 50 26.75 50 26.839844 50 26.9375 C 33.5 26.9375 17 26.9375 0 26.9375 C 0 26.84375 0 26.75 0 26.652344 Z M 0 26.652344 "/>
                        <path style=" stroke:none;fill-rule:nonzero;fill:rgb(61.568627%,5.098039%,7.45098%);fill-opacity:1;" d="M 21 5.40625 C 30.570312 5.40625 40.140625 5.40625 50 5.40625 C 50 5.46875 50 5.53125 50 5.597656 C 40.539062 5.628906 31.078125 5.660156 21.332031 5.6875 C 21.199219 6.351562 21.199219 6.351562 21.332031 7.78125 C 30.792969 7.8125 40.253906 7.839844 50 7.871094 C 50 7.933594 50 7.996094 50 8.0625 C 40.429688 8.0625 30.859375 8.0625 21 8.0625 C 21 7.183594 21 6.3125 21 5.40625 Z M 21 5.40625 "/>
                        <path style=" stroke:none;fill-rule:nonzero;fill:rgb(59.215686%,6.27451%,8.235294%);fill-opacity:1;" d="M 21 10.8125 C 30.570312 10.8125 40.140625 10.8125 50 10.8125 C 50 10.84375 50 10.875 50 10.90625 C 40.484375 10.90625 30.96875 10.90625 21.167969 10.90625 C 21.195312 11.691406 21.222656 12.472656 21.25 13.28125 C 35.480469 13.328125 35.480469 13.328125 50 13.371094 C 50 13.40625 50 13.4375 50 13.46875 C 40.429688 13.46875 30.859375 13.46875 21 13.46875 C 21 12.589844 21 11.71875 21 10.8125 Z M 21 10.8125 "/>
                        <path style=" stroke:none;fill-rule:nonzero;fill:rgb(89.411765%,89.411765%,94.509804%);fill-opacity:1;" d="M 8.75 0.949219 C 8.8125 1.003906 8.878906 1.066406 8.941406 1.125 C 9.167969 1.332031 9.167969 1.332031 9.417969 1.515625 C 9.363281 1.578125 9.308594 1.640625 9.25 1.707031 C 9.21875 1.894531 9.1875 2.085938 9.167969 2.277344 C 9.050781 2.25 9.050781 2.25 8.933594 2.222656 C 8.664062 2.15625 8.664062 2.15625 8.417969 2.277344 C 8.390625 2.167969 8.363281 2.0625 8.339844 1.957031 C 8.265625 1.632812 8.265625 1.632812 8.167969 1.425781 C 8.246094 1.378906 8.328125 1.335938 8.410156 1.292969 C 8.671875 1.167969 8.671875 1.167969 8.75 0.949219 Z M 8.75 0.949219 "/>
                        <path style=" stroke:none;fill-rule:nonzero;fill:rgb(88.235294%,88.235294%,94.509804%);fill-opacity:1;" d="M 17.582031 10.625 C 17.617188 10.667969 17.648438 10.710938 17.683594 10.761719 C 17.867188 10.941406 18.011719 10.964844 18.25 11.003906 C 18.167969 11.285156 18.085938 11.566406 18 11.855469 C 17.90625 11.855469 17.8125 11.851562 17.71875 11.851562 C 17.429688 11.832031 17.429688 11.832031 17.25 11.953125 C 17.238281 11.847656 17.226562 11.746094 17.214844 11.640625 C 17.175781 11.292969 17.175781 11.292969 17.082031 11.003906 C 17.136719 10.996094 17.1875 10.980469 17.238281 10.972656 C 17.445312 10.917969 17.445312 10.917969 17.582031 10.625 Z M 17.582031 10.625 "/>
                        <path style=" stroke:none;fill-rule:nonzero;fill:rgb(87.058824%,87.45098%,93.333333%);fill-opacity:1;" d="M 10.5 10.625 C 10.582031 10.65625 10.664062 10.6875 10.75 10.71875 C 10.75 10.8125 10.75 10.90625 10.75 11.003906 C 10.886719 11.003906 11.023438 11.003906 11.167969 11.003906 C 11.140625 11.085938 11.113281 11.175781 11.089844 11.265625 C 11.023438 11.492188 10.964844 11.71875 10.917969 11.953125 C 10.835938 11.933594 10.757812 11.921875 10.675781 11.902344 C 10.433594 11.851562 10.433594 11.851562 10.25 11.855469 C 10.167969 11.574219 10.082031 11.285156 10 11.003906 C 10.136719 11.003906 10.273438 11.003906 10.417969 11.003906 C 10.445312 10.875 10.472656 10.753906 10.5 10.625 Z M 10.5 10.625 "/>
                        <path style=" stroke:none;fill-rule:nonzero;fill:rgb(89.803922%,90.196078%,94.901961%);fill-opacity:1;" d="M 12.332031 8.632812 C 12.457031 8.761719 12.457031 8.761719 12.582031 8.917969 C 12.582031 8.980469 12.582031 9.042969 12.582031 9.105469 C 12.722656 9.105469 12.859375 9.105469 13 9.105469 C 12.972656 9.199219 12.945312 9.292969 12.917969 9.390625 C 12.863281 9.390625 12.808594 9.390625 12.75 9.390625 C 12.777344 9.578125 12.804688 9.765625 12.832031 9.957031 C 12.757812 9.941406 12.683594 9.921875 12.605469 9.90625 C 12.359375 9.871094 12.226562 9.871094 12 9.957031 C 12.007812 9.851562 12.007812 9.851562 12.015625 9.746094 C 11.996094 9.441406 11.925781 9.328125 11.75 9.105469 C 11.847656 9.09375 11.847656 9.09375 11.949219 9.082031 C 12.179688 9.035156 12.179688 9.035156 12.277344 8.816406 C 12.296875 8.753906 12.3125 8.691406 12.332031 8.632812 Z M 12.332031 8.632812 "/>
                        <path style=" stroke:none;fill-rule:nonzero;fill:rgb(89.803922%,90.196078%,94.509804%);fill-opacity:1;" d="M 10.5 6.828125 C 10.75 6.925781 10.75 6.925781 10.832031 7.113281 C 11.003906 7.175781 11.003906 7.175781 11.167969 7.210938 C 11.125 7.339844 11.125 7.339844 11.082031 7.476562 C 10.988281 7.769531 10.988281 7.769531 11 8.0625 C 10.753906 8.0625 10.503906 8.0625 10.25 8.0625 C 10.167969 7.78125 10.082031 7.492188 10 7.210938 C 10.136719 7.210938 10.273438 7.210938 10.417969 7.210938 C 10.445312 7.082031 10.472656 6.960938 10.5 6.828125 Z M 10.5 6.828125 "/>
                        <path style=" stroke:none;fill-rule:nonzero;fill:rgb(89.411765%,89.803922%,94.509804%);fill-opacity:1;" d="M 5.332031 4.839844 C 5.367188 4.898438 5.402344 4.957031 5.4375 5.023438 C 5.597656 5.234375 5.675781 5.273438 5.917969 5.308594 C 5.875 5.441406 5.875 5.441406 5.832031 5.578125 C 5.738281 5.875 5.738281 5.875 5.75 6.164062 C 5.675781 6.148438 5.597656 6.128906 5.519531 6.113281 C 5.277344 6.074219 5.144531 6.078125 4.917969 6.164062 C 4.921875 6.09375 4.921875 6.023438 4.925781 5.953125 C 4.917969 5.683594 4.867188 5.539062 4.75 5.308594 C 4.886719 5.308594 5.023438 5.308594 5.167969 5.308594 C 5.222656 5.15625 5.277344 4.996094 5.332031 4.839844 Z M 5.332031 4.839844 "/>
                        <path style=" stroke:none;fill-rule:nonzero;fill:rgb(88.235294%,88.627451%,94.509804%);fill-opacity:1;" d="M 19.167969 4.929688 C 19.417969 5.027344 19.417969 5.027344 19.5 5.21875 C 19.667969 5.277344 19.667969 5.277344 19.832031 5.308594 C 19.792969 5.441406 19.792969 5.441406 19.75 5.578125 C 19.652344 5.875 19.652344 5.875 19.667969 6.164062 C 19.589844 6.148438 19.515625 6.128906 19.4375 6.113281 C 19.191406 6.074219 19.0625 6.078125 18.832031 6.164062 C 18.835938 6.09375 18.839844 6.023438 18.84375 5.953125 C 18.832031 5.683594 18.785156 5.539062 18.667969 5.308594 C 18.804688 5.308594 18.941406 5.308594 19.082031 5.308594 C 19.109375 5.1875 19.136719 5.0625 19.167969 4.929688 Z M 19.167969 4.929688 "/>
                        <path style=" stroke:none;fill-rule:nonzero;fill:rgb(91.372549%,92.54902%,94.509804%);fill-opacity:1;" d="M 15.75 12.519531 C 15.875 12.648438 15.875 12.648438 16 12.804688 C 16 12.871094 16 12.929688 16 12.992188 C 16.136719 12.992188 16.273438 12.992188 16.417969 12.992188 C 16.417969 13.058594 16.417969 13.121094 16.417969 13.183594 C 16.363281 13.183594 16.308594 13.183594 16.25 13.183594 C 16.222656 13.402344 16.195312 13.625 16.167969 13.847656 C 16.105469 13.832031 16.042969 13.8125 15.980469 13.796875 C 15.753906 13.753906 15.628906 13.769531 15.417969 13.847656 C 15.425781 13.742188 15.425781 13.742188 15.433594 13.636719 C 15.414062 13.332031 15.339844 13.21875 15.167969 12.992188 C 15.265625 12.984375 15.265625 12.984375 15.363281 12.96875 C 15.59375 12.925781 15.59375 12.925781 15.691406 12.707031 C 15.710938 12.644531 15.730469 12.582031 15.75 12.519531 Z M 15.75 12.519531 "/>
                        <path style=" stroke:none;fill-rule:nonzero;fill:rgb(89.411765%,90.196078%,94.117647%);fill-opacity:1;" d="M 3.582031 10.625 C 3.617188 10.667969 3.648438 10.710938 3.683594 10.761719 C 3.867188 10.941406 4.011719 10.964844 4.25 11.003906 C 4.167969 11.285156 4.085938 11.566406 4 11.855469 C 3.753906 11.855469 3.503906 11.855469 3.25 11.855469 C 3.195312 11.574219 3.140625 11.292969 3.082031 11.003906 C 3.191406 10.972656 3.304688 10.941406 3.417969 10.90625 C 3.472656 10.8125 3.527344 10.722656 3.582031 10.625 Z M 3.582031 10.625 "/>
                        <path style=" stroke:none;fill-rule:nonzero;fill:rgb(89.803922%,89.803922%,94.509804%);fill-opacity:1;" d="M 14.082031 10.625 C 14.117188 10.667969 14.152344 10.710938 14.1875 10.761719 C 14.34375 10.941406 14.34375 10.941406 14.667969 11.003906 C 14.613281 11.285156 14.558594 11.566406 14.5 11.855469 C 14.253906 11.855469 14.003906 11.855469 13.75 11.855469 C 13.722656 11.640625 13.695312 11.417969 13.667969 11.191406 C 13.613281 11.191406 13.558594 11.191406 13.5 11.191406 C 13.5 11.132812 13.5 11.066406 13.5 11.003906 C 13.597656 10.984375 13.597656 10.984375 13.699219 10.972656 C 13.945312 10.929688 13.945312 10.929688 14.082031 10.625 Z M 14.082031 10.625 "/>
                        <path style=" stroke:none;fill-rule:nonzero;fill:rgb(85.882353%,87.058824%,91.764706%);fill-opacity:1;" d="M 7.082031 10.625 C 7.117188 10.667969 7.152344 10.710938 7.1875 10.761719 C 7.34375 10.941406 7.34375 10.941406 7.667969 11.003906 C 7.613281 11.316406 7.558594 11.628906 7.5 11.953125 C 7.253906 11.921875 7.003906 11.890625 6.75 11.855469 C 6.738281 11.761719 6.730469 11.675781 6.71875 11.578125 C 6.703125 11.480469 6.683594 11.386719 6.667969 11.285156 C 6.613281 11.253906 6.558594 11.222656 6.5 11.191406 C 6.5 11.132812 6.5 11.066406 6.5 11.003906 C 6.597656 10.984375 6.597656 10.984375 6.699219 10.972656 C 6.945312 10.929688 6.945312 10.929688 7.082031 10.625 Z M 7.082031 10.625 "/>
                        <path style=" stroke:none;fill-rule:nonzero;fill:rgb(89.803922%,90.196078%,95.294118%);fill-opacity:1;" d="M 15.75 8.632812 C 15.875 8.761719 15.875 8.761719 16 8.917969 C 16 8.980469 16 9.042969 16 9.105469 C 16.136719 9.105469 16.273438 9.105469 16.417969 9.105469 C 16.417969 9.167969 16.417969 9.230469 16.417969 9.296875 C 16.335938 9.339844 16.335938 9.339844 16.25 9.390625 C 16.25 9.578125 16.25 9.765625 16.25 9.957031 C 16.175781 9.941406 16.097656 9.921875 16.019531 9.90625 C 15.777344 9.871094 15.644531 9.871094 15.417969 9.957031 C 15.425781 9.851562 15.425781 9.851562 15.433594 9.746094 C 15.414062 9.441406 15.339844 9.328125 15.167969 9.105469 C 15.265625 9.09375 15.265625 9.09375 15.363281 9.082031 C 15.59375 9.035156 15.59375 9.035156 15.691406 8.816406 C 15.710938 8.753906 15.730469 8.691406 15.75 8.632812 Z M 15.75 8.632812 "/>
                        <path style=" stroke:none;fill-rule:nonzero;fill:rgb(90.196078%,90.588235%,94.901961%);fill-opacity:1;" d="M 19.167969 16.410156 C 19.222656 16.410156 19.277344 16.410156 19.332031 16.410156 C 19.359375 16.535156 19.386719 16.65625 19.417969 16.789062 C 19.554688 16.820312 19.691406 16.851562 19.832031 16.882812 C 19.792969 17.015625 19.792969 17.015625 19.75 17.152344 C 19.652344 17.445312 19.652344 17.445312 19.667969 17.738281 C 19.589844 17.71875 19.515625 17.703125 19.4375 17.683594 C 19.191406 17.644531 19.0625 17.644531 18.832031 17.738281 C 18.835938 17.648438 18.839844 17.5625 18.84375 17.46875 C 18.855469 17.152344 18.855469 17.152344 18.667969 16.882812 C 18.804688 16.882812 18.941406 16.882812 19.082031 16.882812 C 19.109375 16.726562 19.136719 16.570312 19.167969 16.410156 Z M 19.167969 16.410156 "/>
                        <path style=" stroke:none;fill-rule:nonzero;fill:rgb(90.196078%,90.588235%,94.901961%);fill-opacity:1;" d="M 1.832031 16.410156 C 1.886719 16.410156 1.941406 16.410156 2 16.410156 C 2.019531 16.46875 2.042969 16.53125 2.0625 16.589844 C 2.152344 16.808594 2.152344 16.808594 2.34375 16.859375 C 2.394531 16.871094 2.445312 16.875 2.5 16.882812 C 2.457031 16.988281 2.457031 16.988281 2.417969 17.097656 C 2.3125 17.371094 2.3125 17.371094 2.332031 17.738281 C 2.21875 17.710938 2.21875 17.710938 2.097656 17.683594 C 1.832031 17.617188 1.832031 17.617188 1.582031 17.738281 C 1.558594 17.632812 1.53125 17.527344 1.503906 17.417969 C 1.429688 17.09375 1.429688 17.09375 1.332031 16.882812 C 1.398438 16.855469 1.46875 16.835938 1.535156 16.808594 C 1.605469 16.769531 1.675781 16.734375 1.75 16.691406 C 1.777344 16.601562 1.804688 16.507812 1.832031 16.410156 Z M 1.832031 16.410156 "/>
                        <path style=" stroke:none;fill-rule:nonzero;fill:rgb(91.764706%,91.372549%,94.901961%);fill-opacity:1;" d="M 17.5 14.515625 C 17.554688 14.515625 17.609375 14.515625 17.667969 14.515625 C 17.695312 14.636719 17.722656 14.761719 17.75 14.894531 C 17.886719 14.925781 18.023438 14.957031 18.167969 14.984375 C 18.125 15.09375 18.125 15.09375 18.082031 15.199219 C 17.980469 15.476562 17.980469 15.476562 18 15.839844 C 17.753906 15.8125 17.503906 15.777344 17.25 15.746094 C 17.082031 15.210938 17.082031 15.210938 17.082031 14.894531 C 17.164062 14.875 17.164062 14.875 17.246094 14.863281 C 17.300781 14.839844 17.359375 14.820312 17.417969 14.796875 C 17.445312 14.703125 17.472656 14.605469 17.5 14.515625 Z M 17.5 14.515625 "/>
                        <path style=" stroke:none;fill-rule:nonzero;fill:rgb(91.764706%,92.54902%,96.470588%);fill-opacity:1;" d="M 10.5 14.515625 C 10.554688 14.515625 10.609375 14.515625 10.667969 14.515625 C 10.695312 14.636719 10.722656 14.761719 10.75 14.894531 C 10.886719 14.925781 11.023438 14.957031 11.167969 14.984375 C 11.140625 15.058594 11.113281 15.128906 11.089844 15.199219 C 11.015625 15.414062 10.960938 15.617188 10.917969 15.839844 C 10.835938 15.824219 10.757812 15.8125 10.675781 15.792969 C 10.433594 15.742188 10.433594 15.742188 10.25 15.746094 C 10.167969 15.460938 10.082031 15.175781 10 14.894531 C 10.136719 14.894531 10.273438 14.894531 10.417969 14.894531 C 10.445312 14.765625 10.472656 14.640625 10.5 14.515625 Z M 10.5 14.515625 "/>
                        <path style=" stroke:none;fill-rule:nonzero;fill:rgb(90.196078%,90.196078%,95.294118%);fill-opacity:1;" d="M 3.5 14.515625 C 3.554688 14.515625 3.609375 14.515625 3.667969 14.515625 C 3.695312 14.636719 3.722656 14.761719 3.75 14.894531 C 3.996094 14.9375 3.996094 14.9375 4.25 14.984375 C 4.207031 15.019531 4.167969 15.058594 4.125 15.09375 C 3.949219 15.34375 3.980469 15.527344 4 15.839844 C 3.753906 15.8125 3.503906 15.777344 3.25 15.746094 C 3.082031 15.210938 3.082031 15.210938 3.082031 14.894531 C 3.191406 14.894531 3.304688 14.894531 3.417969 14.894531 C 3.445312 14.765625 3.472656 14.640625 3.5 14.515625 Z M 3.5 14.515625 "/>
                        <path style=" stroke:none;fill-rule:nonzero;fill:rgb(91.372549%,91.764706%,95.686275%);fill-opacity:1;" d="M 12.332031 12.519531 C 12.457031 12.648438 12.457031 12.648438 12.582031 12.804688 C 12.582031 12.871094 12.582031 12.929688 12.582031 12.992188 C 12.722656 12.992188 12.859375 12.992188 13 12.992188 C 13 13.058594 13 13.121094 13 13.183594 C 12.917969 13.230469 12.917969 13.230469 12.832031 13.28125 C 12.777344 13.566406 12.777344 13.566406 12.75 13.847656 C 12.6875 13.832031 12.625 13.8125 12.5625 13.796875 C 12.335938 13.753906 12.210938 13.769531 12 13.847656 C 12.007812 13.742188 12.007812 13.742188 12.015625 13.636719 C 11.996094 13.332031 11.925781 13.21875 11.75 12.992188 C 11.847656 12.984375 11.847656 12.984375 11.949219 12.96875 C 12.179688 12.925781 12.179688 12.925781 12.277344 12.707031 C 12.296875 12.644531 12.3125 12.582031 12.332031 12.519531 Z M 12.332031 12.519531 "/>
                        <path style=" stroke:none;fill-rule:nonzero;fill:rgb(90.588235%,91.372549%,96.078431%);fill-opacity:1;" d="M 8.75 8.632812 C 8.804688 8.660156 8.859375 8.691406 8.917969 8.726562 C 8.945312 8.820312 8.972656 8.914062 9 9.011719 C 9.136719 9.042969 9.273438 9.070312 9.417969 9.105469 C 9.335938 9.25 9.335938 9.25 9.25 9.390625 C 9.21875 9.578125 9.1875 9.769531 9.167969 9.957031 C 9.105469 9.941406 9.042969 9.921875 8.980469 9.90625 C 8.753906 9.867188 8.628906 9.878906 8.417969 9.957031 C 8.390625 9.851562 8.363281 9.746094 8.339844 9.640625 C 8.265625 9.316406 8.265625 9.316406 8.167969 9.105469 C 8.265625 9.09375 8.265625 9.09375 8.363281 9.082031 C 8.59375 9.035156 8.59375 9.035156 8.691406 8.816406 C 8.710938 8.753906 8.730469 8.691406 8.75 8.632812 Z M 8.75 8.632812 "/>
                        <path style=" stroke:none;fill-rule:nonzero;fill:rgb(90.980392%,90.588235%,95.294118%);fill-opacity:1;" d="M 5.332031 8.632812 C 5.367188 8.691406 5.402344 8.753906 5.4375 8.816406 C 5.597656 9.03125 5.675781 9.066406 5.917969 9.105469 C 5.875 9.238281 5.875 9.238281 5.832031 9.371094 C 5.738281 9.667969 5.738281 9.667969 5.75 9.957031 C 5.632812 9.933594 5.632812 9.933594 5.515625 9.90625 C 5.25 9.84375 5.25 9.84375 5 9.957031 C 4.917969 9.675781 4.832031 9.390625 4.75 9.105469 C 4.816406 9.082031 4.878906 9.054688 4.949219 9.027344 C 5.191406 8.929688 5.191406 8.929688 5.332031 8.632812 Z M 5.332031 8.632812 "/>
                        <path style=" stroke:none;fill-rule:nonzero;fill:rgb(90.980392%,91.372549%,95.294118%);fill-opacity:1;" d="M 8.75 4.839844 C 8.804688 4.867188 8.859375 4.898438 8.917969 4.929688 C 8.945312 5.027344 8.972656 5.121094 9 5.21875 C 9.136719 5.25 9.273438 5.277344 9.417969 5.308594 C 9.335938 5.449219 9.335938 5.449219 9.25 5.597656 C 9.21875 5.785156 9.1875 5.976562 9.167969 6.164062 C 9.105469 6.148438 9.042969 6.128906 8.980469 6.113281 C 8.753906 6.074219 8.628906 6.085938 8.417969 6.164062 C 8.390625 6.058594 8.363281 5.953125 8.339844 5.84375 C 8.265625 5.523438 8.265625 5.523438 8.167969 5.308594 C 8.265625 5.300781 8.265625 5.300781 8.363281 5.289062 C 8.59375 5.242188 8.59375 5.242188 8.691406 5.023438 C 8.710938 4.960938 8.730469 4.898438 8.75 4.839844 Z M 8.75 4.839844 "/>
                        <path style=" stroke:none;fill-rule:nonzero;fill:rgb(90.588235%,90.980392%,95.294118%);fill-opacity:1;" d="M 17.582031 2.941406 C 17.664062 3.003906 17.75 3.066406 17.832031 3.132812 C 17.832031 3.191406 17.832031 3.253906 17.832031 3.320312 C 17.972656 3.320312 18.109375 3.320312 18.25 3.320312 C 18.222656 3.414062 18.195312 3.507812 18.167969 3.601562 C 18.113281 3.601562 18.058594 3.601562 18 3.601562 C 18 3.792969 18 3.976562 18 4.171875 C 17.9375 4.15625 17.875 4.136719 17.8125 4.121094 C 17.5625 4.058594 17.5625 4.058594 17.25 4.171875 C 17.195312 3.890625 17.140625 3.613281 17.082031 3.320312 C 17.191406 3.289062 17.304688 3.257812 17.417969 3.222656 C 17.472656 3.132812 17.527344 3.039062 17.582031 2.941406 Z M 17.582031 2.941406 "/>
                        <path style=" stroke:none;fill-rule:nonzero;fill:rgb(90.588235%,90.588235%,94.901961%);fill-opacity:1;" d="M 5.332031 0.949219 C 5.367188 1.011719 5.402344 1.070312 5.4375 1.132812 C 5.597656 1.347656 5.675781 1.386719 5.917969 1.425781 C 5.875 1.53125 5.875 1.53125 5.832031 1.636719 C 5.730469 1.910156 5.730469 1.910156 5.75 2.277344 C 5.675781 2.257812 5.597656 2.242188 5.519531 2.222656 C 5.277344 2.1875 5.144531 2.1875 4.917969 2.277344 C 4.921875 2.1875 4.921875 2.097656 4.925781 2.011719 C 4.9375 1.695312 4.9375 1.695312 4.75 1.425781 C 4.816406 1.398438 4.878906 1.371094 4.949219 1.34375 C 5.191406 1.25 5.191406 1.25 5.332031 0.949219 Z M 5.332031 0.949219 "/>
                        <path style=" stroke:none;fill-rule:nonzero;fill:rgb(92.156863%,92.156863%,95.686275%);fill-opacity:1;" d="M 14 14.515625 C 14.054688 14.515625 14.109375 14.515625 14.167969 14.515625 C 14.195312 14.636719 14.222656 14.761719 14.25 14.894531 C 14.386719 14.925781 14.523438 14.957031 14.667969 14.984375 C 14.585938 15.128906 14.585938 15.128906 14.5 15.273438 C 14.46875 15.425781 14.4375 15.585938 14.417969 15.746094 C 14.300781 15.742188 14.300781 15.742188 14.183594 15.742188 C 13.914062 15.730469 13.914062 15.730469 13.667969 15.839844 C 13.671875 15.753906 13.671875 15.664062 13.675781 15.574219 C 13.6875 15.253906 13.6875 15.253906 13.5 14.984375 C 13.636719 14.957031 13.773438 14.925781 13.917969 14.894531 C 13.945312 14.765625 13.972656 14.640625 14 14.515625 Z M 14 14.515625 "/>
                        <path style=" stroke:none;fill-rule:nonzero;fill:rgb(93.72549%,94.509804%,96.470588%);fill-opacity:1;" d="M 8.75 12.519531 C 8.804688 12.550781 8.859375 12.582031 8.917969 12.613281 C 8.945312 12.710938 8.972656 12.804688 9 12.898438 C 9.109375 12.929688 9.21875 12.960938 9.332031 12.992188 C 9.277344 13.273438 9.222656 13.558594 9.167969 13.847656 C 9.105469 13.832031 9.042969 13.8125 8.980469 13.796875 C 8.753906 13.753906 8.628906 13.769531 8.417969 13.847656 C 8.390625 13.742188 8.363281 13.636719 8.339844 13.527344 C 8.265625 13.203125 8.265625 13.203125 8.167969 12.992188 C 8.265625 12.984375 8.265625 12.984375 8.363281 12.96875 C 8.59375 12.925781 8.59375 12.925781 8.691406 12.707031 C 8.710938 12.644531 8.730469 12.582031 8.75 12.519531 Z M 8.75 12.519531 "/>
                        <path style=" stroke:none;fill-rule:nonzero;fill:rgb(90.980392%,91.372549%,95.686275%);fill-opacity:1;" d="M 14 6.828125 C 14.054688 6.828125 14.109375 6.828125 14.167969 6.828125 C 14.195312 6.953125 14.222656 7.078125 14.25 7.210938 C 14.386719 7.210938 14.523438 7.210938 14.667969 7.210938 C 14.585938 7.488281 14.5 7.769531 14.417969 8.0625 C 14.355469 8.042969 14.292969 8.027344 14.230469 8.007812 C 14.003906 7.96875 13.878906 7.984375 13.667969 8.0625 C 13.675781 7.957031 13.675781 7.957031 13.683594 7.851562 C 13.664062 7.546875 13.589844 7.429688 13.417969 7.210938 C 13.582031 7.210938 13.746094 7.210938 13.917969 7.210938 C 13.945312 7.082031 13.972656 6.960938 14 6.828125 Z M 14 6.828125 "/>
                        <path style=" stroke:none;fill-rule:nonzero;fill:rgb(91.372549%,92.156863%,96.078431%);fill-opacity:1;" d="M 15.75 4.929688 C 15.804688 4.929688 15.859375 4.929688 15.917969 4.929688 C 15.945312 5.058594 15.972656 5.183594 16 5.308594 C 16.136719 5.308594 16.273438 5.308594 16.417969 5.308594 C 16.417969 5.375 16.417969 5.4375 16.417969 5.5 C 16.335938 5.546875 16.335938 5.546875 16.25 5.597656 C 16.195312 5.882812 16.195312 5.882812 16.167969 6.164062 C 16.105469 6.148438 16.042969 6.128906 15.980469 6.113281 C 15.753906 6.074219 15.628906 6.085938 15.417969 6.164062 C 15.425781 6.058594 15.425781 6.058594 15.433594 5.953125 C 15.414062 5.648438 15.339844 5.535156 15.167969 5.308594 C 15.265625 5.296875 15.265625 5.296875 15.363281 5.285156 C 15.609375 5.238281 15.609375 5.238281 15.75 4.929688 Z M 15.75 4.929688 "/>
                        <path style=" stroke:none;fill-rule:nonzero;fill:rgb(90.588235%,90.980392%,95.294118%);fill-opacity:1;" d="M 7.082031 2.84375 C 7.117188 2.90625 7.152344 2.96875 7.1875 3.03125 C 7.332031 3.261719 7.332031 3.261719 7.667969 3.320312 C 7.613281 3.601562 7.558594 3.882812 7.5 4.171875 C 7.382812 4.144531 7.382812 4.144531 7.265625 4.121094 C 7 4.058594 7 4.058594 6.75 4.171875 C 6.738281 4.078125 6.730469 3.992188 6.71875 3.894531 C 6.703125 3.796875 6.683594 3.703125 6.667969 3.601562 C 6.613281 3.574219 6.558594 3.542969 6.5 3.511719 C 6.5 3.449219 6.5 3.382812 6.5 3.320312 C 6.597656 3.308594 6.597656 3.308594 6.699219 3.292969 C 6.929688 3.25 6.929688 3.25 7.027344 3.03125 C 7.046875 2.96875 7.0625 2.90625 7.082031 2.84375 Z M 7.082031 2.84375 "/>
                        <path style=" stroke:none;fill-rule:nonzero;fill:rgb(91.372549%,90.980392%,94.901961%);fill-opacity:1;" d="M 15.75 0.949219 C 15.875 1.082031 15.875 1.082031 16 1.234375 C 16 1.296875 16 1.359375 16 1.425781 C 16.136719 1.425781 16.273438 1.425781 16.417969 1.425781 C 16.335938 1.566406 16.335938 1.566406 16.25 1.707031 C 16.21875 1.894531 16.1875 2.085938 16.167969 2.277344 C 16.105469 2.257812 16.042969 2.242188 15.980469 2.222656 C 15.753906 2.183594 15.628906 2.195312 15.417969 2.277344 C 15.421875 2.207031 15.421875 2.132812 15.425781 2.0625 C 15.417969 1.796875 15.367188 1.648438 15.25 1.425781 C 15.386719 1.394531 15.523438 1.359375 15.667969 1.328125 C 15.695312 1.203125 15.722656 1.074219 15.75 0.949219 Z M 15.75 0.949219 "/>
                        <path style=" stroke:none;fill-rule:nonzero;fill:rgb(90.980392%,91.372549%,95.294118%);fill-opacity:1;" d="M 15.75 16.410156 C 15.875 16.539062 15.875 16.539062 16 16.691406 C 16 16.753906 16 16.820312 16 16.882812 C 16.136719 16.882812 16.273438 16.882812 16.417969 16.882812 C 16.335938 17.023438 16.335938 17.023438 16.25 17.167969 C 16.21875 17.359375 16.1875 17.546875 16.167969 17.738281 C 16.105469 17.71875 16.042969 17.703125 15.980469 17.683594 C 15.730469 17.625 15.730469 17.625 15.417969 17.738281 C 15.363281 17.457031 15.308594 17.171875 15.25 16.882812 C 15.359375 16.851562 15.46875 16.820312 15.582031 16.789062 C 15.691406 16.601562 15.691406 16.601562 15.75 16.410156 Z M 15.75 16.410156 "/>
                        <path style=" stroke:none;fill-rule:nonzero;fill:rgb(89.411765%,90.196078%,94.509804%);fill-opacity:1;" d="M 5.332031 16.410156 C 5.367188 16.46875 5.402344 16.53125 5.4375 16.589844 C 5.597656 16.808594 5.675781 16.847656 5.917969 16.882812 C 5.875 17.015625 5.875 17.015625 5.832031 17.152344 C 5.738281 17.445312 5.738281 17.445312 5.75 17.738281 C 5.675781 17.71875 5.597656 17.703125 5.519531 17.683594 C 5.277344 17.644531 5.144531 17.644531 4.917969 17.738281 C 4.921875 17.648438 4.921875 17.5625 4.925781 17.46875 C 4.9375 17.152344 4.9375 17.152344 4.75 16.882812 C 4.886719 16.882812 5.023438 16.882812 5.167969 16.882812 C 5.222656 16.726562 5.277344 16.570312 5.332031 16.410156 Z M 5.332031 16.410156 "/>
                        <path style=" stroke:none;fill-rule:nonzero;fill:rgb(90.980392%,91.764706%,95.686275%);fill-opacity:1;" d="M 19.25 8.632812 C 19.28125 8.691406 19.316406 8.753906 19.347656 8.816406 C 19.53125 9.054688 19.648438 9.070312 19.917969 9.105469 C 19.875 9.160156 19.835938 9.214844 19.792969 9.265625 C 19.644531 9.523438 19.644531 9.664062 19.667969 9.957031 C 19.550781 9.933594 19.550781 9.933594 19.433594 9.90625 C 19.164062 9.84375 19.164062 9.84375 18.917969 9.957031 C 18.90625 9.867188 18.894531 9.777344 18.886719 9.679688 C 18.867188 9.582031 18.851562 9.492188 18.832031 9.390625 C 18.777344 9.359375 18.722656 9.328125 18.667969 9.296875 C 18.667969 9.230469 18.667969 9.167969 18.667969 9.105469 C 18.804688 9.105469 18.941406 9.105469 19.082031 9.105469 C 19.136719 8.949219 19.191406 8.792969 19.25 8.632812 Z M 19.25 8.632812 "/>
                        <path style=" stroke:none;fill-rule:nonzero;fill:rgb(90.588235%,91.764706%,95.294118%);fill-opacity:1;" d="M 1.832031 8.726562 C 2.082031 8.820312 2.082031 8.820312 2.167969 9.011719 C 2.335938 9.070312 2.335938 9.070312 2.5 9.105469 C 2.457031 9.214844 2.457031 9.214844 2.417969 9.320312 C 2.3125 9.59375 2.3125 9.59375 2.332031 9.957031 C 2.21875 9.933594 2.21875 9.933594 2.097656 9.90625 C 1.832031 9.84375 1.832031 9.84375 1.582031 9.957031 C 1.574219 9.867188 1.5625 9.777344 1.550781 9.679688 C 1.535156 9.582031 1.519531 9.492188 1.5 9.390625 C 1.445312 9.359375 1.390625 9.328125 1.332031 9.296875 C 1.332031 9.230469 1.332031 9.167969 1.332031 9.105469 C 1.433594 9.0625 1.433594 9.0625 1.535156 9.023438 C 1.761719 8.941406 1.761719 8.941406 1.832031 8.726562 Z M 1.832031 8.726562 "/>
                        <path style=" stroke:none;fill-rule:nonzero;fill:rgb(92.941176%,93.72549%,95.686275%);fill-opacity:1;" d="M 7 6.828125 C 7.054688 6.828125 7.109375 6.828125 7.167969 6.828125 C 7.195312 6.953125 7.222656 7.078125 7.25 7.210938 C 7.386719 7.210938 7.523438 7.210938 7.667969 7.210938 C 7.585938 7.488281 7.5 7.769531 7.417969 8.0625 C 7.355469 8.042969 7.292969 8.027344 7.230469 8.007812 C 7.003906 7.96875 6.878906 7.984375 6.667969 8.0625 C 6.671875 7.992188 6.671875 7.921875 6.675781 7.851562 C 6.667969 7.582031 6.617188 7.4375 6.5 7.210938 C 6.636719 7.210938 6.773438 7.210938 6.917969 7.210938 C 6.945312 7.082031 6.972656 6.960938 7 6.828125 Z M 7 6.828125 "/>
                        <path style=" stroke:none;fill-rule:nonzero;fill:rgb(89.803922%,90.196078%,95.294118%);fill-opacity:1;" d="M 17.5 6.828125 C 17.582031 6.863281 17.664062 6.894531 17.75 6.925781 C 17.75 7.015625 17.75 7.113281 17.75 7.210938 C 17.886719 7.210938 18.023438 7.210938 18.167969 7.210938 C 18.125 7.339844 18.125 7.339844 18.082031 7.476562 C 17.988281 7.769531 17.988281 7.769531 18 8.0625 C 17.882812 8.035156 17.882812 8.035156 17.765625 8.007812 C 17.5 7.941406 17.5 7.941406 17.25 8.0625 C 17.167969 7.78125 17.082031 7.492188 17 7.210938 C 17.136719 7.210938 17.273438 7.210938 17.417969 7.210938 C 17.445312 7.082031 17.472656 6.960938 17.5 6.828125 Z M 17.5 6.828125 "/>
                        <path style=" stroke:none;fill-rule:nonzero;fill:rgb(93.72549%,94.509804%,96.078431%);fill-opacity:1;" d="M 1.832031 4.929688 C 2.082031 5.027344 2.082031 5.027344 2.167969 5.21875 C 2.335938 5.277344 2.335938 5.277344 2.5 5.308594 C 2.457031 5.441406 2.457031 5.441406 2.417969 5.578125 C 2.320312 5.875 2.320312 5.875 2.332031 6.164062 C 2.21875 6.140625 2.21875 6.140625 2.097656 6.113281 C 1.832031 6.046875 1.832031 6.046875 1.582031 6.164062 C 1.574219 6.074219 1.5625 5.980469 1.550781 5.886719 C 1.535156 5.789062 1.519531 5.695312 1.5 5.597656 C 1.445312 5.566406 1.390625 5.535156 1.332031 5.5 C 1.332031 5.4375 1.332031 5.375 1.332031 5.308594 C 1.472656 5.308594 1.609375 5.308594 1.75 5.308594 C 1.777344 5.1875 1.804688 5.0625 1.832031 4.929688 Z M 1.832031 4.929688 "/>
                        <path style=" stroke:none;fill-rule:nonzero;fill:rgb(92.54902%,93.333333%,97.254902%);fill-opacity:1;" d="M 10.5 2.941406 C 10.582031 2.972656 10.664062 3.003906 10.75 3.035156 C 10.75 3.132812 10.75 3.222656 10.75 3.320312 C 10.914062 3.320312 11.078125 3.320312 11.25 3.320312 C 11.207031 3.375 11.167969 3.425781 11.125 3.480469 C 10.980469 3.734375 10.976562 3.875 11 4.171875 C 10.882812 4.144531 10.882812 4.144531 10.765625 4.121094 C 10.5 4.058594 10.5 4.058594 10.25 4.171875 C 10.25 3.988281 10.25 3.796875 10.25 3.601562 C 10.167969 3.574219 10.085938 3.542969 10 3.511719 C 10 3.449219 10 3.382812 10 3.320312 C 10.136719 3.320312 10.273438 3.320312 10.417969 3.320312 C 10.445312 3.191406 10.472656 3.070312 10.5 2.941406 Z M 10.5 2.941406 "/>
                        <path style=" stroke:none;fill-rule:nonzero;fill:rgb(90.980392%,91.764706%,95.294118%);fill-opacity:1;" d="M 1.917969 0.949219 C 1.949219 1.011719 1.980469 1.070312 2.015625 1.132812 C 2.199219 1.371094 2.3125 1.390625 2.582031 1.425781 C 2.542969 1.496094 2.5 1.566406 2.457031 1.636719 C 2.308594 1.902344 2.308594 1.902344 2.332031 2.277344 C 2.21875 2.25 2.21875 2.25 2.097656 2.222656 C 1.832031 2.15625 1.832031 2.15625 1.582031 2.277344 C 1.558594 2.167969 1.53125 2.0625 1.503906 1.957031 C 1.429688 1.632812 1.429688 1.632812 1.332031 1.425781 C 1.472656 1.425781 1.609375 1.425781 1.75 1.425781 C 1.804688 1.265625 1.859375 1.113281 1.917969 0.949219 Z M 1.917969 0.949219 "/>
                        <path style=" stroke:none;fill-rule:nonzero;fill:rgb(91.372549%,92.156863%,96.078431%);fill-opacity:1;" d="M 19.25 0.949219 C 19.285156 1.011719 19.320312 1.070312 19.355469 1.132812 C 19.515625 1.347656 19.59375 1.386719 19.832031 1.425781 C 19.792969 1.53125 19.792969 1.53125 19.75 1.636719 C 19.648438 1.910156 19.648438 1.910156 19.667969 2.277344 C 19.550781 2.25 19.550781 2.25 19.433594 2.222656 C 19.164062 2.15625 19.164062 2.15625 18.917969 2.277344 C 18.890625 2.167969 18.863281 2.0625 18.839844 1.957031 C 18.765625 1.632812 18.765625 1.632812 18.667969 1.425781 C 18.730469 1.398438 18.796875 1.371094 18.863281 1.34375 C 19.105469 1.25 19.105469 1.25 19.25 0.949219 Z M 19.25 0.949219 "/>
                        <path style=" stroke:none;fill-rule:nonzero;fill:rgb(89.019608%,89.411765%,94.509804%);fill-opacity:1;" d="M 12.332031 16.410156 C 12.457031 16.539062 12.457031 16.539062 12.582031 16.691406 C 12.582031 16.753906 12.582031 16.820312 12.582031 16.882812 C 12.722656 16.882812 12.859375 16.882812 13 16.882812 C 12.917969 17.023438 12.917969 17.023438 12.832031 17.167969 C 12.800781 17.359375 12.773438 17.546875 12.75 17.738281 C 12.6875 17.71875 12.625 17.703125 12.5625 17.683594 C 12.335938 17.640625 12.210938 17.65625 12 17.738281 C 12.003906 17.667969 12.007812 17.597656 12.011719 17.523438 C 12 17.253906 11.953125 17.113281 11.832031 16.882812 C 11.886719 16.875 11.9375 16.871094 11.988281 16.859375 C 12.183594 16.808594 12.183594 16.808594 12.269531 16.589844 C 12.292969 16.535156 12.3125 16.472656 12.332031 16.410156 Z M 12.332031 16.410156 "/>
                        <path style=" stroke:none;fill-rule:nonzero;fill:rgb(91.372549%,91.764706%,96.470588%);fill-opacity:1;" d="M 8.75 16.410156 C 8.804688 16.441406 8.859375 16.472656 8.917969 16.503906 C 8.945312 16.597656 8.972656 16.691406 9 16.789062 C 9.136719 16.820312 9.273438 16.851562 9.417969 16.882812 C 9.335938 17.023438 9.335938 17.023438 9.25 17.167969 C 9.21875 17.359375 9.1875 17.546875 9.167969 17.738281 C 9.050781 17.710938 9.050781 17.710938 8.933594 17.683594 C 8.664062 17.617188 8.664062 17.617188 8.417969 17.738281 C 8.390625 17.632812 8.363281 17.527344 8.339844 17.417969 C 8.265625 17.09375 8.265625 17.09375 8.167969 16.882812 C 8.265625 16.875 8.265625 16.875 8.363281 16.859375 C 8.59375 16.816406 8.59375 16.816406 8.691406 16.589844 C 8.710938 16.535156 8.730469 16.472656 8.75 16.410156 Z M 8.75 16.410156 "/>
                        <path style=" stroke:none;fill-rule:nonzero;fill:rgb(91.372549%,91.764706%,96.078431%);fill-opacity:1;" d="M 12.332031 4.929688 C 12.386719 4.929688 12.441406 4.929688 12.5 4.929688 C 12.527344 5.058594 12.554688 5.183594 12.582031 5.308594 C 12.691406 5.308594 12.804688 5.308594 12.917969 5.308594 C 12.890625 5.59375 12.863281 5.875 12.832031 6.164062 C 12.757812 6.148438 12.683594 6.128906 12.605469 6.113281 C 12.359375 6.074219 12.226562 6.078125 12 6.164062 C 12.003906 6.09375 12.007812 6.023438 12.011719 5.953125 C 12 5.683594 11.953125 5.539062 11.832031 5.308594 C 11.886719 5.300781 11.9375 5.292969 11.988281 5.285156 C 12.195312 5.230469 12.195312 5.230469 12.332031 4.929688 Z M 12.332031 4.929688 "/>
                        <path style=" stroke:none;fill-rule:nonzero;fill:rgb(91.372549%,91.764706%,96.078431%);fill-opacity:1;" d="M 14.082031 2.941406 C 14.117188 2.984375 14.152344 3.03125 14.1875 3.078125 C 14.34375 3.257812 14.34375 3.257812 14.667969 3.320312 C 14.613281 3.601562 14.558594 3.882812 14.5 4.171875 C 14.4375 4.15625 14.375 4.136719 14.3125 4.121094 C 14.085938 4.078125 13.960938 4.09375 13.75 4.171875 C 13.722656 4.066406 13.699219 3.960938 13.671875 3.855469 C 13.597656 3.527344 13.597656 3.527344 13.5 3.320312 C 13.597656 3.304688 13.597656 3.304688 13.699219 3.289062 C 13.945312 3.246094 13.945312 3.246094 14.082031 2.941406 Z M 14.082031 2.941406 "/>
                        <path style=" stroke:none;fill-rule:nonzero;fill:rgb(90.980392%,91.764706%,96.078431%);fill-opacity:1;" d="M 3.582031 2.941406 C 3.664062 3.003906 3.75 3.066406 3.832031 3.132812 C 3.832031 3.191406 3.832031 3.253906 3.832031 3.320312 C 3.972656 3.320312 4.109375 3.320312 4.25 3.320312 C 4.25 3.382812 4.25 3.445312 4.25 3.511719 C 4.167969 3.554688 4.167969 3.554688 4.082031 3.601562 C 4.027344 3.890625 4.027344 3.890625 4 4.171875 C 3.882812 4.144531 3.882812 4.144531 3.765625 4.121094 C 3.5 4.058594 3.5 4.058594 3.25 4.171875 C 3.195312 3.890625 3.140625 3.613281 3.082031 3.320312 C 3.191406 3.289062 3.304688 3.257812 3.417969 3.222656 C 3.472656 3.132812 3.527344 3.039062 3.582031 2.941406 Z M 3.582031 2.941406 "/>
                        <path style=" stroke:none;fill-rule:nonzero;fill:rgb(90.980392%,91.372549%,95.294118%);fill-opacity:1;" d="M 12.332031 0.949219 C 12.386719 0.949219 12.441406 0.949219 12.5 0.949219 C 12.527344 1.070312 12.554688 1.199219 12.582031 1.328125 C 12.722656 1.359375 12.859375 1.390625 13 1.425781 C 12.917969 1.566406 12.917969 1.566406 12.832031 1.707031 C 12.800781 1.894531 12.773438 2.085938 12.75 2.277344 C 12.632812 2.25 12.632812 2.25 12.515625 2.222656 C 12.25 2.15625 12.25 2.15625 12 2.277344 C 12.003906 2.1875 12.007812 2.097656 12.011719 2.011719 C 12.023438 1.695312 12.023438 1.695312 11.832031 1.425781 C 11.886719 1.414062 11.9375 1.40625 11.988281 1.398438 C 12.183594 1.34375 12.183594 1.34375 12.269531 1.132812 C 12.292969 1.070312 12.3125 1.011719 12.332031 0.949219 Z M 12.332031 0.949219 "/>
                        <path style=" stroke:none;fill-rule:nonzero;fill:rgb(91.764706%,92.156863%,96.078431%);fill-opacity:1;" d="M 19.167969 12.613281 C 19.417969 12.710938 19.417969 12.710938 19.5 12.898438 C 19.667969 12.960938 19.667969 12.960938 19.832031 12.992188 C 19.792969 13.125 19.792969 13.125 19.75 13.261719 C 19.652344 13.558594 19.652344 13.558594 19.667969 13.847656 C 19.550781 13.820312 19.550781 13.820312 19.433594 13.796875 C 19.164062 13.730469 19.164062 13.730469 18.917969 13.847656 C 18.90625 13.753906 18.894531 13.664062 18.886719 13.570312 C 18.867188 13.472656 18.851562 13.375 18.832031 13.28125 C 18.777344 13.25 18.722656 13.21875 18.667969 13.183594 C 18.667969 13.121094 18.667969 13.058594 18.667969 12.992188 C 18.804688 12.992188 18.941406 12.992188 19.082031 12.992188 C 19.109375 12.871094 19.136719 12.746094 19.167969 12.613281 Z M 19.167969 12.613281 "/>
                        <path style=" stroke:none;fill-rule:nonzero;fill:rgb(96.078431%,97.254902%,97.254902%);fill-opacity:1;" d="M 1.917969 12.519531 C 1.949219 12.582031 1.984375 12.640625 2.019531 12.707031 C 2.179688 12.917969 2.257812 12.957031 2.5 12.992188 C 2.457031 13.070312 2.457031 13.070312 2.417969 13.15625 C 2.324219 13.402344 2.320312 13.578125 2.332031 13.847656 C 2.21875 13.820312 2.21875 13.820312 2.097656 13.796875 C 1.832031 13.730469 1.832031 13.730469 1.582031 13.847656 C 1.574219 13.753906 1.5625 13.664062 1.550781 13.570312 C 1.535156 13.472656 1.519531 13.375 1.5 13.28125 C 1.445312 13.25 1.390625 13.21875 1.332031 13.183594 C 1.332031 13.121094 1.332031 13.058594 1.332031 12.992188 C 1.472656 12.992188 1.609375 12.992188 1.75 12.992188 C 1.804688 12.839844 1.859375 12.679688 1.917969 12.519531 Z M 1.917969 12.519531 "/>
                        <path style=" stroke:none;fill-rule:nonzero;fill:rgb(94.901961%,95.294118%,97.254902%);fill-opacity:1;" d="M 3.5 6.828125 C 3.582031 6.863281 3.664062 6.894531 3.75 6.925781 C 3.75 7.015625 3.75 7.113281 3.75 7.210938 C 3.886719 7.210938 4.023438 7.210938 4.167969 7.210938 C 4.125 7.285156 4.125 7.285156 4.082031 7.371094 C 3.988281 7.617188 3.988281 7.792969 4 8.0625 C 3.882812 8.035156 3.882812 8.035156 3.765625 8.007812 C 3.5 7.941406 3.5 7.941406 3.25 8.0625 C 3.167969 7.78125 3.082031 7.492188 3 7.210938 C 3.136719 7.210938 3.273438 7.210938 3.417969 7.210938 C 3.445312 7.082031 3.472656 6.960938 3.5 6.828125 Z M 3.5 6.828125 "/>
                        <path style=" stroke:none;fill-rule:nonzero;fill:rgb(94.117647%,94.117647%,98.039216%);fill-opacity:1;" d="M 7 14.515625 C 7.054688 14.515625 7.109375 14.515625 7.167969 14.515625 C 7.195312 14.636719 7.222656 14.761719 7.25 14.894531 C 7.386719 14.925781 7.523438 14.957031 7.667969 14.984375 C 7.585938 15.128906 7.585938 15.128906 7.5 15.273438 C 7.46875 15.425781 7.4375 15.585938 7.417969 15.746094 C 7.195312 15.746094 6.976562 15.746094 6.75 15.746094 C 6.582031 15.210938 6.582031 15.210938 6.582031 14.894531 C 6.691406 14.894531 6.804688 14.894531 6.917969 14.894531 C 6.945312 14.765625 6.972656 14.640625 7 14.515625 Z M 7 14.515625 "/>
                        <path style=" stroke:none;fill-rule:nonzero;fill:rgb(92.941176%,92.941176%,96.862745%);fill-opacity:1;" d="M 5.25 12.613281 C 5.304688 12.613281 5.359375 12.613281 5.417969 12.613281 C 5.472656 12.710938 5.527344 12.804688 5.582031 12.898438 C 5.753906 12.964844 5.753906 12.964844 5.917969 12.992188 C 5.875 13.125 5.875 13.125 5.832031 13.261719 C 5.738281 13.558594 5.738281 13.558594 5.75 13.847656 C 5.632812 13.820312 5.632812 13.820312 5.515625 13.796875 C 5.25 13.730469 5.25 13.730469 5 13.847656 C 4.988281 13.753906 4.980469 13.664062 4.96875 13.570312 C 4.953125 13.472656 4.933594 13.375 4.917969 13.28125 C 4.863281 13.25 4.808594 13.21875 4.75 13.183594 C 4.75 13.121094 4.75 13.058594 4.75 12.992188 C 4.886719 12.992188 5.023438 12.992188 5.167969 12.992188 C 5.195312 12.871094 5.222656 12.746094 5.25 12.613281 Z M 5.25 12.613281 "/>
                        <path style=" stroke:none;fill-rule:nonzero;fill:rgb(92.54902%,93.333333%,96.470588%);fill-opacity:1;" d="M 15.75 12.519531 C 15.875 12.648438 15.875 12.648438 16 12.804688 C 16 12.871094 16 12.929688 16 12.992188 C 16.136719 12.992188 16.273438 12.992188 16.417969 12.992188 C 16.417969 13.058594 16.417969 13.121094 16.417969 13.183594 C 16.324219 13.179688 16.230469 13.171875 16.136719 13.164062 C 15.984375 13.171875 15.984375 13.171875 15.832031 13.183594 C 15.75 13.324219 15.75 13.324219 15.667969 13.46875 C 15.402344 13.339844 15.332031 13.28125 15.167969 12.992188 C 15.265625 12.984375 15.265625 12.984375 15.363281 12.96875 C 15.59375 12.925781 15.59375 12.925781 15.691406 12.707031 C 15.710938 12.644531 15.730469 12.582031 15.75 12.519531 Z M 15.75 12.519531 "/>
                        <path style=" stroke:none;fill-rule:nonzero;fill:rgb(89.803922%,90.588235%,94.509804%);fill-opacity:1;" d="M 17.582031 7.304688 C 17.582031 7.394531 17.582031 7.492188 17.582031 7.589844 C 17.664062 7.554688 17.75 7.523438 17.832031 7.492188 C 18 7.78125 18 7.78125 18 8.0625 C 17.882812 8.035156 17.882812 8.035156 17.765625 8.007812 C 17.5 7.941406 17.5 7.941406 17.25 8.0625 C 17.222656 7.839844 17.195312 7.625 17.167969 7.402344 C 17.332031 7.304688 17.332031 7.304688 17.582031 7.304688 Z M 17.582031 7.304688 "/>
                        <path style=" stroke:none;fill-rule:nonzero;fill:rgb(88.235294%,88.235294%,93.72549%);fill-opacity:1;" d="M 17.5 14.515625 C 17.554688 14.515625 17.609375 14.515625 17.667969 14.515625 C 17.695312 14.636719 17.722656 14.761719 17.75 14.894531 C 17.859375 14.925781 17.96875 14.957031 18.082031 14.984375 C 17.992188 15.03125 17.898438 15.074219 17.800781 15.117188 C 17.503906 15.246094 17.503906 15.246094 17.332031 15.460938 C 17.332031 15.394531 17.332031 15.335938 17.332031 15.273438 C 17.222656 15.207031 17.113281 15.144531 17 15.082031 C 17.027344 15.015625 17.054688 14.957031 17.082031 14.894531 C 17.136719 14.875 17.191406 14.863281 17.25 14.847656 C 17.332031 14.824219 17.332031 14.824219 17.417969 14.796875 C 17.445312 14.703125 17.472656 14.605469 17.5 14.515625 Z M 17.5 14.515625 "/>
                        <path style=" stroke:none;fill-rule:nonzero;fill:rgb(94.509804%,94.901961%,96.862745%);fill-opacity:1;" d="M 6.582031 11.097656 C 6.722656 11.097656 6.859375 11.097656 7 11.097656 C 7 11.15625 7 11.222656 7 11.285156 C 7.136719 11.316406 7.273438 11.351562 7.417969 11.382812 C 7.417969 11.507812 7.417969 11.632812 7.417969 11.761719 C 7.195312 11.792969 6.976562 11.824219 6.75 11.855469 C 6.695312 11.609375 6.640625 11.355469 6.582031 11.097656 Z M 6.582031 11.097656 "/>
                        <path style=" stroke:none;fill-rule:nonzero;fill:rgb(95.294118%,96.078431%,97.254902%);fill-opacity:1;" d="M 13 16.882812 C 12.917969 17.023438 12.917969 17.023438 12.832031 17.167969 C 12.800781 17.359375 12.773438 17.546875 12.75 17.738281 C 12.585938 17.640625 12.421875 17.546875 12.25 17.453125 C 12.25 17.167969 12.25 17.167969 12.34375 17.007812 C 12.5625 16.835938 12.738281 16.863281 13 16.882812 Z M 13 16.882812 "/>
                        <path style=" stroke:none;fill-rule:nonzero;fill:rgb(87.058824%,87.058824%,91.764706%);fill-opacity:1;" d="M 17.75 10.90625 C 17.996094 10.957031 17.996094 10.957031 18.25 11.003906 C 18.167969 11.285156 18.085938 11.566406 18 11.855469 C 17.753906 11.8125 17.753906 11.8125 17.5 11.761719 C 17.527344 11.632812 17.554688 11.511719 17.582031 11.382812 C 17.664062 11.382812 17.75 11.382812 17.832031 11.382812 C 17.804688 11.222656 17.777344 11.070312 17.75 10.90625 Z M 17.75 10.90625 "/>
                        <path style=" stroke:none;fill-rule:nonzero;fill:rgb(15.294118%,13.72549%,38.431373%);fill-opacity:1;" d="M 16.167969 5.597656 C 16.410156 5.824219 16.449219 6.007812 16.5 6.355469 C 16.351562 6.359375 16.203125 6.363281 16.050781 6.367188 C 15.96875 6.367188 15.886719 6.371094 15.800781 6.371094 C 15.582031 6.355469 15.582031 6.355469 15.417969 6.164062 C 15.652344 6.058594 15.652344 6.058594 15.917969 5.976562 C 16 6.039062 16.082031 6.097656 16.167969 6.164062 C 16.167969 5.976562 16.167969 5.789062 16.167969 5.597656 Z M 16.167969 5.597656 "/>
                        <path style=" stroke:none;fill-rule:nonzero;fill:rgb(96.862745%,98.431373%,98.039216%);fill-opacity:1;" d="M 10.886719 11.085938 C 11.023438 11.09375 11.023438 11.09375 11.167969 11.097656 C 11.085938 11.238281 11.085938 11.238281 11 11.382812 C 10.945312 11.382812 10.890625 11.382812 10.832031 11.382812 C 10.804688 11.476562 10.777344 11.566406 10.75 11.664062 C 10.613281 11.664062 10.476562 11.664062 10.332031 11.664062 C 10.410156 11.238281 10.472656 11.101562 10.886719 11.085938 Z M 10.886719 11.085938 "/>
                        <path style=" stroke:none;fill-rule:nonzero;fill:rgb(87.45098%,87.843137%,93.333333%);fill-opacity:1;" d="M 10.75 14.894531 C 10.886719 14.925781 11.023438 14.957031 11.167969 14.984375 C 11.140625 15.058594 11.113281 15.128906 11.089844 15.199219 C 11.015625 15.414062 10.960938 15.617188 10.917969 15.839844 C 10.710938 15.746094 10.710938 15.746094 10.5 15.652344 C 10.554688 15.554688 10.609375 15.460938 10.667969 15.367188 C 10.699219 15.207031 10.726562 15.050781 10.75 14.894531 Z M 10.75 14.894531 "/>
                        <path style=" stroke:none;fill-rule:nonzero;fill:rgb(13.72549%,12.156863%,39.607843%);fill-opacity:1;" d="M 5.511719 9.855469 C 5.589844 9.890625 5.667969 9.921875 5.75 9.957031 C 5.695312 10.148438 5.640625 10.332031 5.582031 10.527344 C 5.300781 10.421875 5.238281 10.332031 5.082031 10.054688 C 5.082031 9.992188 5.082031 9.925781 5.082031 9.867188 C 5.25 9.769531 5.25 9.769531 5.511719 9.855469 Z M 5.511719 9.855469 "/>
                        <path style=" stroke:none;fill-rule:nonzero;fill:rgb(84.705882%,84.313725%,93.72549%);fill-opacity:1;" d="M 8.75 12.519531 C 8.804688 12.550781 8.859375 12.582031 8.917969 12.613281 C 8.917969 12.710938 8.917969 12.804688 8.917969 12.898438 C 8.832031 12.992188 8.75 13.089844 8.667969 13.183594 C 8.566406 13.429688 8.566406 13.429688 8.5 13.660156 C 8.582031 13.691406 8.664062 13.71875 8.75 13.75 C 8.640625 13.785156 8.53125 13.816406 8.417969 13.847656 C 8.390625 13.742188 8.363281 13.636719 8.339844 13.527344 C 8.265625 13.203125 8.265625 13.203125 8.167969 12.992188 C 8.265625 12.984375 8.265625 12.984375 8.363281 12.96875 C 8.59375 12.925781 8.59375 12.925781 8.691406 12.707031 C 8.710938 12.644531 8.730469 12.582031 8.75 12.519531 Z M 8.75 12.519531 "/>
                        <path style=" stroke:none;fill-rule:nonzero;fill:rgb(89.019608%,89.019608%,95.686275%);fill-opacity:1;" d="M 1.917969 12.519531 C 2 12.644531 2.082031 12.773438 2.167969 12.898438 C 2.113281 12.941406 2.0625 12.984375 2.011719 13.023438 C 1.816406 13.183594 1.816406 13.183594 1.667969 13.46875 C 1.5 13.335938 1.5 13.335938 1.332031 13.183594 C 1.332031 13.121094 1.332031 13.058594 1.332031 12.992188 C 1.472656 12.992188 1.609375 12.992188 1.75 12.992188 C 1.804688 12.839844 1.859375 12.679688 1.917969 12.519531 Z M 1.917969 12.519531 "/>
                        <path style=" stroke:none;fill-rule:nonzero;fill:rgb(87.058824%,88.235294%,94.509804%);fill-opacity:1;" d="M 7 6.828125 C 7.054688 6.828125 7.109375 6.828125 7.167969 6.828125 C 7.195312 6.953125 7.222656 7.078125 7.25 7.210938 C 7.386719 7.210938 7.523438 7.210938 7.667969 7.210938 C 7.613281 7.335938 7.558594 7.457031 7.5 7.589844 C 7.472656 7.492188 7.445312 7.402344 7.417969 7.304688 C 7.3125 7.320312 7.207031 7.335938 7.097656 7.351562 C 6.894531 7.382812 6.707031 7.402344 6.5 7.402344 C 6.5 7.335938 6.5 7.273438 6.5 7.210938 C 6.636719 7.210938 6.773438 7.210938 6.917969 7.210938 C 6.945312 7.082031 6.972656 6.960938 7 6.828125 Z M 7 6.828125 "/>
                        <path style=" stroke:none;fill-rule:nonzero;fill:rgb(86.27451%,87.058824%,93.333333%);fill-opacity:1;" d="M 10.917969 3.320312 C 11.027344 3.351562 11.136719 3.382812 11.25 3.414062 C 11.207031 3.453125 11.167969 3.488281 11.125 3.527344 C 10.960938 3.753906 10.980469 3.890625 11 4.171875 C 10.917969 4.171875 10.835938 4.171875 10.75 4.171875 C 10.75 4.078125 10.75 3.988281 10.75 3.890625 C 10.695312 3.890625 10.640625 3.890625 10.582031 3.890625 C 10.609375 3.792969 10.636719 3.699219 10.667969 3.601562 C 10.722656 3.601562 10.777344 3.601562 10.832031 3.601562 C 10.859375 3.511719 10.886719 3.417969 10.917969 3.320312 Z M 10.917969 3.320312 "/>
                        <path style=" stroke:none;fill-rule:nonzero;fill:rgb(10.196078%,7.843137%,32.941176%);fill-opacity:1;" d="M 8 16.789062 C 8.136719 16.789062 8.273438 16.789062 8.417969 16.789062 C 8.363281 16.851562 8.308594 16.914062 8.25 16.980469 C 8.304688 17.042969 8.359375 17.101562 8.417969 17.167969 C 8.464844 17.421875 8.476562 17.671875 8.5 17.929688 C 8.417969 17.929688 8.335938 17.929688 8.25 17.929688 C 8.25 17.832031 8.25 17.738281 8.25 17.640625 C 8.222656 17.394531 8.222656 17.394531 8.167969 17.167969 C 8.113281 17.136719 8.058594 17.109375 8 17.070312 C 8 16.980469 8 16.886719 8 16.789062 Z M 8 16.789062 "/>
                        <path style=" stroke:none;fill-rule:nonzero;fill:rgb(87.45098%,88.235294%,93.333333%);fill-opacity:1;" d="M 14 14.515625 C 14.054688 14.515625 14.109375 14.515625 14.167969 14.515625 C 14.195312 14.636719 14.222656 14.761719 14.25 14.894531 C 14.113281 15.015625 13.976562 15.140625 13.832031 15.273438 C 13.722656 15.207031 13.613281 15.144531 13.5 15.082031 C 13.527344 15.015625 13.554688 14.957031 13.582031 14.894531 C 13.691406 14.894531 13.804688 14.894531 13.917969 14.894531 C 13.945312 14.765625 13.972656 14.640625 14 14.515625 Z M 14 14.515625 "/>
                        <path style=" stroke:none;fill-rule:nonzero;fill:rgb(16.470588%,14.509804%,39.215686%);fill-opacity:1;" d="M 13.417969 14.703125 C 13.527344 14.703125 13.636719 14.703125 13.75 14.703125 C 13.75 14.765625 13.75 14.828125 13.75 14.894531 C 13.695312 14.957031 13.640625 15.015625 13.582031 15.082031 C 13.636719 15.144531 13.691406 15.207031 13.75 15.273438 C 13.71875 15.519531 13.71875 15.519531 13.667969 15.746094 C 13.484375 15.539062 13.460938 15.445312 13.402344 15.171875 C 13.386719 15.101562 13.371094 15.035156 13.355469 14.964844 C 13.347656 14.910156 13.339844 14.855469 13.332031 14.796875 C 13.359375 14.765625 13.386719 14.734375 13.417969 14.703125 Z M 13.417969 14.703125 "/>
                        <path style=" stroke:none;fill-rule:nonzero;fill:rgb(86.666667%,86.27451%,93.333333%);fill-opacity:1;" d="M 19.417969 5.21875 C 19.554688 5.25 19.691406 5.277344 19.832031 5.308594 C 19.804688 5.398438 19.777344 5.488281 19.75 5.578125 C 19.652344 5.875 19.652344 5.875 19.667969 6.164062 C 19.558594 6.132812 19.445312 6.105469 19.332031 6.070312 C 19.386719 6.039062 19.441406 6.007812 19.5 5.976562 C 19.480469 5.839844 19.480469 5.839844 19.457031 5.703125 C 19.417969 5.40625 19.417969 5.40625 19.417969 5.21875 Z M 19.417969 5.21875 "/>
                        <path style=" stroke:none;fill-rule:nonzero;fill:rgb(88.235294%,89.019608%,94.509804%);fill-opacity:1;" d="M 2.082031 5.308594 C 2.222656 5.308594 2.359375 5.308594 2.5 5.308594 C 2.472656 5.398438 2.445312 5.488281 2.417969 5.578125 C 2.320312 5.875 2.320312 5.875 2.332031 6.164062 C 2.25 6.164062 2.167969 6.164062 2.082031 6.164062 C 1.992188 5.847656 2.011719 5.632812 2.082031 5.308594 Z M 2.082031 5.308594 "/>
                        <path style=" stroke:none;fill-rule:nonzero;fill:rgb(87.843137%,88.235294%,95.294118%);fill-opacity:1;" d="M 19.167969 12.613281 C 19.417969 12.710938 19.417969 12.710938 19.5 12.898438 C 19.667969 12.960938 19.667969 12.960938 19.832031 12.992188 C 19.804688 13.089844 19.777344 13.183594 19.75 13.28125 C 19.558594 13.25 19.363281 13.21875 19.167969 13.183594 C 19.074219 12.828125 19.074219 12.828125 19.167969 12.613281 Z M 19.167969 12.613281 "/>
                        <path style=" stroke:none;fill-rule:nonzero;fill:rgb(18.431373%,16.078431%,41.960784%);fill-opacity:1;" d="M 1.417969 5.597656 C 1.472656 5.597656 1.527344 5.597656 1.582031 5.597656 C 1.582031 5.78125 1.582031 5.972656 1.582031 6.164062 C 1.722656 6.105469 1.859375 6.042969 2 5.976562 C 2.027344 6.039062 2.054688 6.097656 2.082031 6.164062 C 2.027344 6.164062 1.972656 6.164062 1.917969 6.164062 C 1.945312 6.257812 1.972656 6.355469 2 6.449219 C 1.75 6.449219 1.75 6.449219 1.5 6.257812 C 1.484375 6.011719 1.484375 6.011719 1.5 5.785156 C 1.445312 5.753906 1.390625 5.722656 1.332031 5.6875 C 1.359375 5.660156 1.386719 5.628906 1.417969 5.597656 Z M 1.417969 5.597656 "/>
                        <path style=" stroke:none;fill-rule:nonzero;fill:rgb(16.470588%,13.333333%,39.607843%);fill-opacity:1;" d="M 19.332031 0.757812 C 19.414062 0.789062 19.5 0.820312 19.582031 0.855469 C 19.582031 0.980469 19.582031 1.101562 19.582031 1.234375 C 19.722656 1.234375 19.859375 1.234375 20 1.234375 C 20 1.328125 20 1.421875 20 1.515625 C 19.71875 1.449219 19.71875 1.449219 19.417969 1.328125 C 19.296875 1.082031 19.296875 1.082031 19.25 0.855469 C 19.277344 0.820312 19.304688 0.789062 19.332031 0.757812 Z M 19.332031 0.757812 "/>
                        <path style=" stroke:none;fill-rule:nonzero;fill:rgb(9.411765%,7.45098%,34.509804%);fill-opacity:1;" d="M 3 11.285156 C 3.082031 11.316406 3.164062 11.351562 3.25 11.382812 C 3.25 11.632812 3.25 11.882812 3.25 12.140625 C 3.140625 12.109375 3.03125 12.078125 2.917969 12.042969 C 2.945312 11.796875 2.972656 11.546875 3 11.285156 Z M 3 11.285156 "/>
                        <path style=" stroke:none;fill-rule:nonzero;fill:rgb(85.882353%,86.666667%,91.372549%);fill-opacity:1;" d="M 7 14.515625 C 7.054688 14.515625 7.109375 14.515625 7.167969 14.515625 C 7.246094 14.761719 7.261719 14.859375 7.171875 15.105469 C 7.128906 15.1875 7.128906 15.1875 7.082031 15.273438 C 7.027344 15.238281 6.972656 15.207031 6.917969 15.175781 C 6.917969 15.113281 6.917969 15.050781 6.917969 14.984375 C 6.808594 14.957031 6.695312 14.925781 6.582031 14.894531 C 6.691406 14.894531 6.804688 14.894531 6.917969 14.894531 C 6.945312 14.765625 6.972656 14.640625 7 14.515625 Z M 7 14.515625 "/>
                        <path style=" stroke:none;fill-rule:nonzero;fill:rgb(81.176471%,81.960784%,90.588235%);fill-opacity:1;" d="M 10.167969 11.285156 C 10.222656 11.285156 10.277344 11.285156 10.332031 11.285156 C 10.332031 11.414062 10.332031 11.539062 10.332031 11.664062 C 10.660156 11.613281 10.660156 11.613281 10.917969 11.382812 C 10.945312 11.566406 10.972656 11.757812 11 11.953125 C 10.753906 11.921875 10.503906 11.890625 10.25 11.855469 C 10.222656 11.667969 10.195312 11.480469 10.167969 11.285156 Z M 10.167969 11.285156 "/>
                        <path style=" stroke:none;fill-rule:nonzero;fill:rgb(97.647059%,98.431373%,96.470588%);fill-opacity:1;" d="M 19.332031 5.308594 C 19.5 5.5 19.5 5.5 19.511719 5.75 C 19.507812 5.824219 19.503906 5.902344 19.5 5.976562 C 19.363281 6.007812 19.226562 6.039062 19.082031 6.070312 C 19.054688 5.976562 19.027344 5.882812 19 5.785156 C 19.054688 5.695312 19.109375 5.597656 19.167969 5.5 C 19.222656 5.53125 19.277344 5.566406 19.332031 5.597656 C 19.332031 5.503906 19.332031 5.40625 19.332031 5.308594 Z M 19.332031 5.308594 "/>
                        <path style=" stroke:none;fill-rule:nonzero;fill:rgb(96.862745%,97.647059%,98.039216%);fill-opacity:1;" d="M 5.332031 16.691406 C 5.386719 16.820312 5.441406 16.945312 5.5 17.070312 C 5.257812 17.152344 5.128906 17.1875 4.890625 17.082031 C 4.84375 17.046875 4.796875 17.011719 4.75 16.980469 C 4.75 16.949219 4.75 16.917969 4.75 16.882812 C 4.941406 16.820312 5.136719 16.757812 5.332031 16.691406 Z M 5.332031 16.691406 "/>
                        <path style=" stroke:none;fill-rule:nonzero;fill:rgb(19.607843%,17.647059%,43.529412%);fill-opacity:1;" d="M 18.832031 9.769531 C 18.886719 9.800781 18.941406 9.832031 19 9.867188 C 19.050781 9.84375 19.101562 9.824219 19.15625 9.804688 C 19.332031 9.769531 19.332031 9.769531 19.519531 9.90625 C 19.570312 9.953125 19.617188 10.003906 19.667969 10.054688 C 19.386719 10.136719 19.195312 10.160156 18.917969 10.054688 C 18.890625 10.117188 18.863281 10.179688 18.832031 10.246094 C 18.804688 10.148438 18.777344 10.054688 18.75 9.957031 C 18.777344 9.898438 18.804688 9.835938 18.832031 9.769531 Z M 18.832031 9.769531 "/>
                        <path style=" stroke:none;fill-rule:nonzero;fill:rgb(17.647059%,14.901961%,41.568627%);fill-opacity:1;" d="M 18.167969 14.605469 C 18.222656 14.667969 18.277344 14.730469 18.332031 14.796875 C 18.316406 15.105469 18.296875 15.304688 18.121094 15.542969 C 18.082031 15.578125 18.039062 15.613281 18 15.652344 C 17.941406 15.484375 17.941406 15.484375 17.917969 15.273438 C 17.996094 15.140625 18.078125 15.011719 18.167969 14.894531 C 18.167969 14.796875 18.167969 14.703125 18.167969 14.605469 Z M 18.167969 14.605469 "/>
                        <path style=" stroke:none;fill-rule:nonzero;fill:rgb(88.235294%,89.019608%,96.470588%);fill-opacity:1;" d="M 2.167969 12.992188 C 2.277344 12.992188 2.386719 12.992188 2.5 12.992188 C 2.472656 13.046875 2.445312 13.097656 2.417969 13.15625 C 2.324219 13.402344 2.320312 13.578125 2.332031 13.847656 C 2.277344 13.847656 2.222656 13.847656 2.167969 13.847656 C 2.074219 13.207031 2.074219 13.207031 2.167969 12.992188 Z M 2.167969 12.992188 "/>
                        <path style=" stroke:none;fill-rule:nonzero;fill:rgb(83.921569%,83.529412%,94.117647%);fill-opacity:1;" d="M 15.75 12.519531 C 15.804688 12.550781 15.859375 12.582031 15.917969 12.613281 C 15.847656 12.796875 15.847656 12.796875 15.75 12.992188 C 15.667969 13.027344 15.585938 13.058594 15.5 13.089844 C 15.472656 13.183594 15.445312 13.28125 15.417969 13.371094 C 15.335938 13.25 15.25 13.125 15.167969 12.992188 C 15.265625 12.984375 15.265625 12.984375 15.363281 12.96875 C 15.59375 12.925781 15.59375 12.925781 15.691406 12.707031 C 15.710938 12.644531 15.730469 12.582031 15.75 12.519531 Z M 15.75 12.519531 "/>
                        <path style=" stroke:none;fill-rule:nonzero;fill:rgb(84.313725%,84.313725%,92.156863%);fill-opacity:1;" d="M 3.5 6.828125 C 3.582031 6.863281 3.664062 6.894531 3.75 6.925781 C 3.667969 7.113281 3.667969 7.113281 3.5 7.304688 C 3.417969 7.304688 3.335938 7.304688 3.25 7.304688 C 3.222656 7.394531 3.195312 7.492188 3.167969 7.589844 C 3.113281 7.460938 3.058594 7.339844 3 7.210938 C 3.136719 7.210938 3.273438 7.210938 3.417969 7.210938 C 3.445312 7.082031 3.472656 6.960938 3.5 6.828125 Z M 3.5 6.828125 "/>
                        <path style=" stroke:none;fill-rule:nonzero;fill:rgb(14.901961%,12.941176%,41.176471%);fill-opacity:1;" d="M 12.417969 17.546875 C 12.664062 17.59375 12.664062 17.59375 12.917969 17.640625 C 12.890625 17.769531 12.863281 17.890625 12.832031 18.019531 C 12.585938 17.976562 12.585938 17.976562 12.332031 17.929688 C 12.359375 17.800781 12.386719 17.675781 12.417969 17.546875 Z M 12.417969 17.546875 "/>
                        <path style=" stroke:none;fill-rule:nonzero;fill:rgb(97.254902%,98.431373%,95.686275%);fill-opacity:1;" d="M 3.25 14.984375 C 3.539062 15.128906 3.539062 15.128906 3.832031 15.273438 C 3.804688 15.367188 3.777344 15.457031 3.75 15.554688 C 3.558594 15.460938 3.363281 15.371094 3.167969 15.273438 C 3.195312 15.175781 3.222656 15.082031 3.25 14.984375 Z M 3.25 14.984375 "/>
                        <path style=" stroke:none;fill-rule:nonzero;fill:rgb(81.960784%,81.568627%,89.803922%);fill-opacity:1;" d="M 3.5 14.515625 C 3.554688 14.515625 3.609375 14.515625 3.667969 14.515625 C 3.667969 14.667969 3.667969 14.828125 3.667969 14.984375 C 3.472656 15.046875 3.28125 15.109375 3.082031 15.175781 C 3.082031 15.082031 3.082031 14.992188 3.082031 14.894531 C 3.191406 14.894531 3.304688 14.894531 3.417969 14.894531 C 3.445312 14.765625 3.472656 14.640625 3.5 14.515625 Z M 3.5 14.515625 "/>
                        <path style=" stroke:none;fill-rule:nonzero;fill:rgb(98.039216%,98.823529%,97.254902%);fill-opacity:1;" d="M 17.582031 10.8125 C 17.636719 10.8125 17.691406 10.8125 17.75 10.8125 C 17.75 10.90625 17.75 11 17.75 11.097656 C 17.804688 11.128906 17.859375 11.15625 17.917969 11.191406 C 17.890625 11.253906 17.863281 11.316406 17.832031 11.382812 C 17.660156 11.441406 17.660156 11.441406 17.5 11.476562 C 17.527344 11.257812 17.554688 11.039062 17.582031 10.8125 Z M 17.582031 10.8125 "/>
                        <path style=" stroke:none;fill-rule:nonzero;fill:rgb(9.803922%,8.627451%,33.72549%);fill-opacity:1;" d="M 12.167969 0.855469 C 12.359375 0.855469 12.550781 0.855469 12.75 0.855469 C 12.75 1.011719 12.75 1.167969 12.75 1.328125 C 12.695312 1.328125 12.640625 1.328125 12.582031 1.328125 C 12.554688 1.203125 12.527344 1.074219 12.5 0.949219 C 12.445312 0.949219 12.390625 0.949219 12.332031 0.949219 C 12.304688 1.011719 12.277344 1.070312 12.25 1.136719 C 12.222656 1.046875 12.195312 0.949219 12.167969 0.855469 Z M 12.167969 0.855469 "/>
                        <path style=" stroke:none;fill-rule:nonzero;fill:rgb(20.784314%,18.823529%,43.921569%);fill-opacity:1;" d="M 1.5 9.769531 C 1.582031 9.816406 1.582031 9.816406 1.667969 9.867188 C 1.75 9.839844 1.75 9.839844 1.832031 9.8125 C 1.886719 9.800781 1.941406 9.78125 2 9.769531 C 2.054688 9.832031 2.109375 9.898438 2.167969 9.957031 C 2.085938 9.957031 2 9.957031 1.917969 9.957031 C 1.917969 10.019531 1.917969 10.085938 1.917969 10.148438 C 1.777344 10.117188 1.640625 10.085938 1.5 10.054688 C 1.5 9.957031 1.5 9.867188 1.5 9.769531 Z M 1.5 9.769531 "/>
                        <path style=" stroke:none;fill-rule:nonzero;fill:rgb(87.843137%,87.843137%,95.294118%);fill-opacity:1;" d="M 1.332031 5.308594 C 1.472656 5.308594 1.609375 5.308594 1.75 5.308594 C 1.75 5.59375 1.75 5.875 1.75 6.164062 C 1.695312 6.164062 1.640625 6.164062 1.582031 6.164062 C 1.574219 6.074219 1.5625 5.980469 1.550781 5.886719 C 1.535156 5.789062 1.519531 5.695312 1.5 5.597656 C 1.445312 5.566406 1.390625 5.535156 1.332031 5.5 C 1.332031 5.4375 1.332031 5.375 1.332031 5.308594 Z M 1.332031 5.308594 "/>
                        <path style=" stroke:none;fill-rule:nonzero;fill:rgb(13.333333%,11.372549%,36.862745%);fill-opacity:1;" d="M 15.75 9.769531 C 15.832031 9.800781 15.914062 9.832031 16 9.867188 C 16 9.925781 16 9.988281 16 10.054688 C 15.863281 10.117188 15.726562 10.179688 15.582031 10.246094 C 15.582031 10.117188 15.582031 9.992188 15.582031 9.867188 C 15.636719 9.835938 15.691406 9.804688 15.75 9.769531 Z M 15.75 9.769531 "/>
                        <path style=" stroke:none;fill-rule:nonzero;fill:rgb(17.254902%,14.901961%,40.784314%);fill-opacity:1;" d="M 5.25 5.976562 C 5.359375 6.039062 5.46875 6.097656 5.582031 6.164062 C 5.527344 6.164062 5.472656 6.164062 5.417969 6.164062 C 5.390625 6.320312 5.363281 6.480469 5.332031 6.636719 C 5.277344 6.574219 5.222656 6.515625 5.167969 6.449219 C 5.199219 6.199219 5.199219 6.199219 5.25 5.976562 Z M 5.25 5.976562 "/>
                        <path style=" stroke:none;fill-rule:nonzero;fill:rgb(87.843137%,88.627451%,93.72549%);fill-opacity:1;" d="M 15.582031 5.21875 C 15.636719 5.277344 15.691406 5.339844 15.75 5.40625 C 15.667969 5.546875 15.667969 5.546875 15.582031 5.6875 C 15.261719 5.527344 15.261719 5.527344 15.167969 5.308594 C 15.363281 5.253906 15.363281 5.253906 15.582031 5.21875 Z M 15.582031 5.21875 "/>
                        <path style=" stroke:none;fill-rule:nonzero;fill:rgb(10.588235%,7.843137%,32.156863%);fill-opacity:1;" d="M 5.832031 13.183594 C 5.925781 13.34375 5.925781 13.34375 6 13.5625 C 5.925781 13.828125 5.925781 13.828125 5.832031 14.039062 C 5.804688 14.039062 5.777344 14.039062 5.75 14.039062 C 5.699219 13.714844 5.699219 13.714844 5.667969 13.371094 C 5.722656 13.308594 5.777344 13.25 5.832031 13.183594 Z M 5.832031 13.183594 "/>
                        <path style=" stroke:none;fill-rule:nonzero;fill:rgb(96.078431%,97.647059%,97.254902%);fill-opacity:1;" d="M 19.667969 13.183594 C 19.667969 13.25 19.667969 13.308594 19.667969 13.371094 C 19.613281 13.371094 19.558594 13.371094 19.5 13.371094 C 19.472656 13.4375 19.445312 13.5 19.417969 13.5625 C 19.335938 13.5 19.25 13.4375 19.167969 13.371094 C 19.167969 13.308594 19.167969 13.25 19.167969 13.183594 C 19.375 13.066406 19.449219 13.113281 19.667969 13.183594 Z M 19.667969 13.183594 "/>
                        <path style=" stroke:none;fill-rule:nonzero;fill:rgb(85.098039%,85.490196%,93.72549%);fill-opacity:1;" d="M 12.667969 12.992188 C 12.777344 12.992188 12.886719 12.992188 13 12.992188 C 13 13.058594 13 13.121094 13 13.183594 C 12.917969 13.230469 12.917969 13.230469 12.832031 13.28125 C 12.777344 13.566406 12.777344 13.566406 12.75 13.847656 C 12.695312 13.816406 12.640625 13.785156 12.582031 13.75 C 12.609375 13.503906 12.636719 13.253906 12.667969 12.992188 Z M 12.667969 12.992188 "/>
                        <path style=" stroke:none;fill-rule:nonzero;fill:rgb(94.509804%,94.117647%,98.039216%);fill-opacity:1;" d="M 1.582031 9.488281 C 1.789062 9.53125 1.789062 9.53125 2 9.578125 C 2 9.640625 2 9.707031 2 9.769531 C 1.863281 9.832031 1.726562 9.898438 1.582031 9.957031 C 1.582031 9.804688 1.582031 9.644531 1.582031 9.488281 Z M 1.582031 9.488281 "/>
                        <path style=" stroke:none;fill-rule:nonzero;fill:rgb(10.196078%,7.45098%,33.333333%);fill-opacity:1;" d="M 4.667969 9.199219 C 4.777344 9.292969 4.886719 9.390625 5 9.488281 C 4.972656 9.609375 4.945312 9.734375 4.917969 9.867188 C 4.835938 9.867188 4.75 9.867188 4.667969 9.867188 C 4.695312 9.769531 4.722656 9.675781 4.75 9.578125 C 4.71875 9.375 4.71875 9.375 4.667969 9.199219 Z M 4.667969 9.199219 "/>
                        <path style=" stroke:none;fill-rule:nonzero;fill:rgb(97.647059%,99.607843%,94.509804%);fill-opacity:1;" d="M 17.582031 7.304688 C 17.609375 7.460938 17.636719 7.617188 17.667969 7.78125 C 17.558594 7.746094 17.445312 7.714844 17.332031 7.683594 C 17.332031 7.621094 17.332031 7.558594 17.332031 7.492188 C 17.277344 7.460938 17.222656 7.429688 17.167969 7.402344 C 17.332031 7.304688 17.332031 7.304688 17.582031 7.304688 Z M 17.582031 7.304688 "/>
                        <path style=" stroke:none;fill-rule:nonzero;fill:rgb(15.686275%,13.72549%,39.607843%);fill-opacity:1;" d="M 19.082031 4.742188 C 19.222656 4.742188 19.359375 4.742188 19.5 4.742188 C 19.449219 4.765625 19.398438 4.789062 19.34375 4.8125 C 19.136719 4.953125 19.085938 5.0625 19 5.308594 C 18.972656 5.1875 18.945312 5.0625 18.917969 4.929688 C 18.972656 4.929688 19.027344 4.929688 19.082031 4.929688 C 19.082031 4.867188 19.082031 4.808594 19.082031 4.742188 Z M 19.082031 4.742188 "/>
                        <path style=" stroke:none;fill-rule:nonzero;fill:rgb(9.803922%,8.627451%,31.764706%);fill-opacity:1;" d="M 2.082031 4.648438 C 2.273438 4.890625 2.332031 4.980469 2.332031 5.308594 C 2.25 5.277344 2.167969 5.25 2.082031 5.21875 C 2.054688 5.089844 2.027344 4.964844 2 4.839844 C 1.917969 4.808594 1.835938 4.777344 1.75 4.742188 C 1.917969 4.648438 1.917969 4.648438 2.082031 4.648438 Z M 2.082031 4.648438 "/>
                        </g>
                        </svg>