<?xml version="1.0" encoding="UTF-8"?>
<!DOCTYPE svg PUBLIC "-//W3C//DTD SVG 1.1//EN" "http://www.w3.org/Graphics/SVG/1.1/DTD/svg11.dtd">
<svg xmlns="http://www.w3.org/2000/svg" version="1.1" width="666px" height="375px" style="shape-rendering:geometricPrecision; text-rendering:geometricPrecision; image-rendering:optimizeQuality; fill-rule:evenodd; clip-rule:evenodd" xmlns:xlink="http://www.w3.org/1999/xlink">
<g><path style="opacity:0.482" fill="#000000" d="M 19.5,23.5 C 21.134,22.8389 22.9674,22.5056 25,22.5C 27.8655,22.2999 30.3655,22.9666 32.5,24.5C 28.2147,23.7051 23.8814,23.3718 19.5,23.5 Z"/></g>
<g><path style="opacity:0.053" fill="#000000" d="M 647.5,24.5 C 642.509,23.2477 637.509,23.2477 632.5,24.5C 634.634,22.9666 637.134,22.2999 640,22.5C 642.866,22.2999 645.366,22.9666 647.5,24.5 Z"/></g>
<g><path style="opacity:0.998" fill="#000000" d="M 19.5,23.5 C 23.8814,23.3718 28.2147,23.7051 32.5,24.5C 33.4916,24.3284 34.1583,24.6618 34.5,25.5C 35.4363,26.9744 36.7697,27.9744 38.5,28.5C 39.8114,31.8114 42.1447,34.1448 45.5,35.5C 46.5622,38.378 48.5622,40.378 51.5,41.5C 52.5,41.8333 53.1667,42.5 53.5,43.5C 54.422,45.8163 56.0887,47.483 58.5,48.5C 59.5,48.8333 60.1667,49.5 60.5,50.5C 60.894,52.7099 62.2273,54.0432 64.5,54.5C 66.1667,55.5 67.5,56.8333 68.5,58.5C 69.1667,59.8333 70.1667,60.8333 71.5,61.5C 71.5,62.8333 72.1667,63.5 73.5,63.5C 74.5,63.8333 75.1667,64.5 75.5,65.5C 75.8333,66.5 76.5,67.1667 77.5,67.5C 78.8114,70.8114 81.1447,73.1448 84.5,74.5C 85.4777,77.4778 87.4777,79.4778 90.5,80.5C 92.1387,84.1387 94.8053,86.8054 98.5,88.5C 99.5,88.8333 100.167,89.5 100.5,90.5C 100.81,92.1436 101.81,93.1436 103.5,93.5C 103.833,95.8333 105.167,97.1667 107.5,97.5C 107.81,99.1436 108.81,100.144 110.5,100.5C 111.5,100.833 112.167,101.5 112.5,102.5C 112.894,104.71 114.227,106.043 116.5,106.5C 118.167,107.5 119.5,108.833 120.5,110.5C 120.5,112.5 121.5,113.5 123.5,113.5C 123.833,115.833 125.167,117.167 127.5,117.5C 128.614,120.404 130.614,122.404 133.5,123.5C 133.81,125.144 134.81,126.144 136.5,126.5C 137.167,129.167 138.833,130.833 141.5,131.5C 143.167,132.5 144.5,133.833 145.5,135.5C 146.167,138.167 147.833,139.833 150.5,140.5C 151.5,140.833 152.167,141.5 152.5,142.5C 153.5,145.5 155.5,147.5 158.5,148.5C 159.5,148.833 160.167,149.5 160.5,150.5C 161.833,153.833 164.167,156.167 167.5,157.5C 167.5,159.5 168.5,160.5 170.5,160.5C 171.5,163.5 173.5,165.5 176.5,166.5C 177.5,166.833 178.167,167.5 178.5,168.5C 179.5,171.5 181.5,173.5 184.5,174.5C 185.5,174.833 186.167,175.5 186.5,176.5C 187.833,179.833 190.167,182.167 193.5,183.5C 194.5,183.833 195.167,184.5 195.5,185.5C 196.5,188.5 198.5,190.5 201.5,191.5C 202.5,191.833 203.167,192.5 203.5,193.5C 204.833,196.833 207.167,199.167 210.5,200.5C 212.167,204.167 214.833,206.833 218.5,208.5C 220.5,212.5 223.5,215.5 227.5,217.5C 229.167,221.167 231.833,223.833 235.5,225.5C 237.5,229.5 240.5,232.5 244.5,234.5C 246.167,238.167 248.833,240.833 252.5,242.5C 254.5,246.5 257.5,249.5 261.5,251.5C 263.167,255.167 265.833,257.833 269.5,259.5C 271.5,263.5 274.5,266.5 278.5,268.5C 280.5,272.5 283.5,275.5 287.5,277.5C 289.167,281.167 291.833,283.833 295.5,285.5C 300.167,292.167 305.833,297.833 312.5,302.5C 318.238,309.744 324.572,316.577 331.5,323C 332.577,323.47 333.577,323.303 334.5,322.5C 337.879,320.032 340.546,317.032 342.5,313.5C 366.217,290.783 389.217,267.45 411.5,243.5C 415.167,241.833 417.833,239.167 419.5,235.5C 428.412,228.093 436.912,220.093 445,211.5C 445.464,210.906 445.631,210.239 445.5,209.5C 452.167,204.833 457.833,199.167 462.5,192.5C 465.833,191.167 468.167,188.833 469.5,185.5C 470.5,185.167 471.167,184.5 471.5,183.5C 479.745,176.76 487.578,169.427 495,161.5C 495.464,160.906 495.631,160.239 495.5,159.5C 498.855,158.145 501.189,155.811 502.5,152.5C 509.188,147.812 514.854,142.146 519.5,135.5C 520.239,135.631 520.906,135.464 521.5,135C 532.954,123.712 544.287,112.212 555.5,100.5C 556.167,99.5 556.833,98.5 557.5,97.5C 558.239,97.631 558.906,97.4643 559.5,97C 572.667,83.8333 585.833,70.6667 599,57.5C 599.464,56.9056 599.631,56.2389 599.5,55.5C 601.01,54.1639 602.677,52.9973 604.5,52C 609.022,47.9775 613.022,43.4775 616.5,38.5C 616.833,37.5 617.5,36.8333 618.5,36.5C 620.054,35.307 621.721,34.1404 623.5,33C 625.141,31.871 626.141,30.371 626.5,28.5C 628.23,27.9744 629.564,26.9744 630.5,25.5C 630.842,24.6618 631.508,24.3284 632.5,24.5C 637.509,23.2477 642.509,23.2477 647.5,24.5C 650.198,24.8449 652.198,26.1782 653.5,28.5C 653.738,30.4044 654.738,31.7377 656.5,32.5C 657.833,38.1667 657.833,43.8333 656.5,49.5C 655.92,51.7488 654.587,53.4154 652.5,54.5C 650.5,55.8333 648.833,57.5 647.5,59.5C 647.5,60.1667 647.167,60.5 646.5,60.5C 644.5,61.8333 642.833,63.5 641.5,65.5C 641.167,66.5 640.5,67.1667 639.5,67.5C 637.5,68.8333 635.833,70.5 634.5,72.5C 634.5,73.1667 634.167,73.5 633.5,73.5C 631.5,74.8333 629.833,76.5 628.5,78.5C 628.167,79.5 627.5,80.1667 626.5,80.5C 624.5,81.8333 622.833,83.5 621.5,85.5C 621.5,86.1667 621.167,86.5 620.5,86.5C 618.167,88.1667 616.167,90.1667 614.5,92.5C 614.5,93.1667 614.167,93.5 613.5,93.5C 612.094,93.9731 611.427,94.9731 611.5,96.5C 609.973,96.427 608.973,97.0937 608.5,98.5C 608.5,99.1667 608.167,99.5 607.5,99.5C 605.086,100.911 603.419,102.911 602.5,105.5C 601.833,105.833 601.167,106.167 600.5,106.5C 598.5,107.833 596.833,109.5 595.5,111.5C 595.167,112.167 594.833,112.833 594.5,113.5C 591.911,114.419 589.911,116.086 588.5,118.5C 588.5,119.167 588.167,119.5 587.5,119.5C 586.094,119.973 585.427,120.973 585.5,122.5C 583.973,122.427 582.973,123.094 582.5,124.5C 582.5,125.167 582.167,125.5 581.5,125.5C 579.413,126.585 578.08,128.251 577.5,130.5C 576.71,131.401 575.71,132.068 574.5,132.5C 572.086,133.911 570.419,135.911 569.5,138.5C 568.833,138.833 568.167,139.167 567.5,139.5C 565.5,140.833 563.833,142.5 562.5,144.5C 562.068,145.71 561.401,146.71 560.5,147.5C 558.251,148.08 556.585,149.413 555.5,151.5C 555.5,152.167 555.167,152.5 554.5,152.5C 553.094,152.973 552.427,153.973 552.5,155.5C 551.564,156.974 550.23,157.974 548.5,158.5C 546.413,159.585 545.08,161.251 544.5,163.5C 543.71,164.401 542.71,165.068 541.5,165.5C 539.5,166.833 537.833,168.5 536.5,170.5C 536.068,171.71 535.401,172.71 534.5,173.5C 532.251,174.08 530.585,175.413 529.5,177.5C 529.5,178.167 529.167,178.5 528.5,178.5C 527.094,178.973 526.427,179.973 526.5,181.5C 524.596,181.738 523.262,182.738 522.5,184.5C 520.738,185.262 519.738,186.596 519.5,188.5C 518.564,189.974 517.23,190.974 515.5,191.5C 513.413,192.585 512.08,194.251 511.5,196.5C 510.833,197.167 510.167,197.833 509.5,198.5C 506.911,199.419 504.911,201.086 503.5,203.5C 502.974,205.23 501.974,206.564 500.5,207.5C 498.596,207.738 497.262,208.738 496.5,210.5C 495.094,210.973 494.427,211.973 494.5,213.5C 493.415,215.587 491.749,216.92 489.5,217.5C 487.738,218.262 486.738,219.596 486.5,221.5C 485.694,222.728 484.694,223.728 483.5,224.5C 480.5,225.5 478.5,227.5 477.5,230.5C 476.728,231.694 475.728,232.694 474.5,233.5C 472.596,233.738 471.262,234.738 470.5,236.5C 469.094,236.973 468.427,237.973 468.5,239.5C 468.167,240.5 467.5,241.167 466.5,241.5C 464.973,241.427 463.973,242.094 463.5,243.5C 462.094,243.973 461.427,244.973 461.5,246.5C 460.421,248.543 458.754,249.876 456.5,250.5C 454.413,251.585 453.08,253.251 452.5,255.5C 451.5,256.5 450.5,257.5 449.5,258.5C 446.833,259.167 445.167,260.833 444.5,263.5C 443.527,265.139 442.194,266.473 440.5,267.5C 438.973,267.427 437.973,268.094 437.5,269.5C 436.094,269.973 435.427,270.973 435.5,272.5C 434.415,274.587 432.749,275.92 430.5,276.5C 428.738,277.262 427.738,278.596 427.5,280.5C 426.694,281.728 425.694,282.728 424.5,283.5C 421.833,284.167 420.167,285.833 419.5,288.5C 418.5,289.5 417.5,290.5 416.5,291.5C 414.251,292.08 412.585,293.413 411.5,295.5C 410.167,298.833 407.833,301.167 404.5,302.5C 403.094,302.973 402.427,303.973 402.5,305.5C 401.5,307.167 400.167,308.5 398.5,309.5C 396.167,309.833 394.833,311.167 394.5,313.5C 392.833,315.167 391.167,316.833 389.5,318.5C 387.5,318.5 386.5,319.5 386.5,321.5C 383.806,324.86 380.806,327.86 377.5,330.5C 376.5,330.833 375.833,331.5 375.5,332.5C 374.5,332.833 373.833,333.5 373.5,334.5C 372.833,335.833 371.833,336.833 370.5,337.5C 369.5,337.833 368.833,338.5 368.5,339.5C 367.5,339.833 366.833,340.5 366.5,341.5C 366.5,342.167 366.167,342.5 365.5,342.5C 364.5,342.833 363.833,343.5 363.5,344.5C 362.5,344.833 361.833,345.5 361.5,346.5C 360.5,346.833 359.833,347.5 359.5,348.5C 359.5,349.167 359.167,349.5 358.5,349.5C 357.5,349.833 356.833,350.5 356.5,351.5C 355.5,351.833 354.833,352.5 354.5,353.5C 353.833,354.833 352.833,355.833 351.5,356.5C 350.5,356.833 349.833,357.5 349.5,358.5C 348.5,358.833 347.833,359.5 347.5,360.5C 346.833,361.833 345.833,362.833 344.5,363.5C 343.5,363.833 342.833,364.5 342.5,365.5C 341.5,365.833 340.833,366.5 340.5,367.5C 339.657,369.173 338.324,370.34 336.5,371C 333.633,371.801 330.966,371.634 328.5,370.5C 315.448,356.447 301.782,343.114 287.5,330.5C 286.662,330.158 286.328,329.492 286.5,328.5C 282.773,323.77 278.44,319.77 273.5,316.5C 273.5,316.167 273.5,315.833 273.5,315.5C 269.5,310.833 265.167,306.5 260.5,302.5C 256.773,297.77 252.44,293.77 247.5,290.5C 247.5,290.167 247.5,289.833 247.5,289.5C 245.761,286.757 243.427,284.757 240.5,283.5C 240.5,283.167 240.5,282.833 240.5,282.5C 238.833,280.167 236.833,278.167 234.5,276.5C 232.5,273.833 230.167,271.5 227.5,269.5C 226.089,267.086 224.089,265.419 221.5,264.5C 221.5,264.167 221.5,263.833 221.5,263.5C 219.761,260.757 217.427,258.757 214.5,257.5C 214.5,257.167 214.5,256.833 214.5,256.5C 212.761,253.757 210.427,251.757 207.5,250.5C 207.5,250.167 207.5,249.833 207.5,249.5C 206.738,247.738 205.404,246.738 203.5,246.5C 203.573,244.973 202.906,243.973 201.5,243.5C 200.089,241.086 198.089,239.419 195.5,238.5C 194.662,238.158 194.328,237.492 194.5,236.5C 193.089,234.086 191.089,232.419 188.5,231.5C 188.5,231.167 188.5,230.833 188.5,230.5C 186.761,227.757 184.427,225.757 181.5,224.5C 181.5,224.167 181.5,223.833 181.5,223.5C 179.833,221.167 177.833,219.167 175.5,217.5C 173.5,214.833 171.167,212.5 168.5,210.5C 167.089,208.086 165.089,206.419 162.5,205.5C 162.167,204.833 161.833,204.167 161.5,203.5C 160.089,201.086 158.089,199.419 155.5,198.5C 155.5,198.167 155.5,197.833 155.5,197.5C 153.833,195.167 151.833,193.167 149.5,191.5C 148.833,191.5 148.5,191.167 148.5,190.5C 146.833,188.167 144.833,186.167 142.5,184.5C 140.833,182.167 138.833,180.167 136.5,178.5C 135.833,178.5 135.5,178.167 135.5,177.5C 134.089,175.086 132.089,173.419 129.5,172.5C 129.5,172.167 129.5,171.833 129.5,171.5C 127.833,169.167 125.833,167.167 123.5,165.5C 122.833,165.5 122.5,165.167 122.5,164.5C 120.833,162.167 118.833,160.167 116.5,158.5C 115.833,158.5 115.5,158.167 115.5,157.5C 114.167,155.5 112.5,153.833 110.5,152.5C 109.833,152.5 109.5,152.167 109.5,151.5C 108.089,149.086 106.089,147.419 103.5,146.5C 103.167,145.833 102.833,145.167 102.5,144.5C 101.089,142.086 99.0892,140.419 96.5,139.5C 96.5,139.167 96.5,138.833 96.5,138.5C 94.8333,136.167 92.8333,134.167 90.5,132.5C 89.8333,132.5 89.5,132.167 89.5,131.5C 87.8333,129.167 85.8333,127.167 83.5,125.5C 82.8333,125.5 82.5,125.167 82.5,124.5C 81.1667,122.5 79.5,120.833 77.5,119.5C 76.8333,119.5 76.5,119.167 76.5,118.5C 75.0892,116.086 73.0892,114.419 70.5,113.5C 70.1667,112.833 69.8333,112.167 69.5,111.5C 68.1667,109.5 66.5,107.833 64.5,106.5C 63.8333,106.5 63.5,106.167 63.5,105.5C 61.8333,103.167 59.8333,101.167 57.5,99.5C 56.8333,99.5 56.5,99.1667 56.5,98.5C 56.0269,97.0937 55.0269,96.427 53.5,96.5C 53.573,94.9731 52.9063,93.9731 51.5,93.5C 50.8333,93.5 50.5,93.1667 50.5,92.5C 48.8333,90.1667 46.8333,88.1667 44.5,86.5C 43.8333,86.5 43.5,86.1667 43.5,85.5C 42.1667,83.5 40.5,81.8333 38.5,80.5C 37.5,80.1667 36.8333,79.5 36.5,78.5C 35.1667,76.5 33.5,74.8333 31.5,73.5C 30.8333,73.5 30.5,73.1667 30.5,72.5C 29.1667,70.5 27.5,68.8333 25.5,67.5C 24.5,67.1667 23.8333,66.5 23.5,65.5C 22.1667,63.5 20.5,61.8333 18.5,60.5C 17.8333,60.5 17.5,60.1667 17.5,59.5C 16.1667,57.5 14.5,55.8333 12.5,54.5C 11.1667,53.8333 10.1667,52.8333 9.5,51.5C 7.29867,45.2795 6.96534,38.9462 8.5,32.5C 10.2624,31.7377 11.2624,30.4044 11.5,28.5C 12.8717,27.4884 14.205,26.4884 15.5,25.5C 17.153,25.3404 18.4863,24.6737 19.5,23.5 Z"/></g>
<g><path style="opacity:0.525" fill="#000000" d="M 19.5,23.5 C 18.4863,24.6737 17.153,25.3404 15.5,25.5C 16.287,23.8958 17.6203,23.2291 19.5,23.5 Z"/></g>
<g><path style="opacity:0.091" fill="#000000" d="M 630.5,25.5 C 629.564,26.9744 628.23,27.9744 626.5,28.5C 626.694,26.0882 628.027,25.0882 630.5,25.5 Z"/></g>
<g><path style="opacity:0.161" fill="#000000" d="M 15.5,25.5 C 14.205,26.4884 12.8717,27.4884 11.5,28.5C 11.6941,26.0882 13.0274,25.0882 15.5,25.5 Z"/></g>
<g><path style="opacity:0.057" fill="#000000" d="M 34.5,25.5 C 36.632,25.5544 37.9653,26.5544 38.5,28.5C 36.7697,27.9744 35.4363,26.9744 34.5,25.5 Z"/></g>
<g><path style="opacity:0.651" fill="#000000" d="M 38.5,28.5 C 41.2422,30.5754 43.5756,32.9087 45.5,35.5C 42.1447,34.1448 39.8114,31.8114 38.5,28.5 Z"/></g>
<g><path style="opacity:0.455" fill="#000000" d="M 11.5,28.5 C 11.2624,30.4044 10.2624,31.7377 8.5,32.5C 8.73758,30.5956 9.73758,29.2623 11.5,28.5 Z"/></g>
<g><path style="opacity:0.384" fill="#000000" d="M 653.5,28.5 C 655.262,29.2623 656.262,30.5956 656.5,32.5C 654.738,31.7377 653.738,30.4044 653.5,28.5 Z"/></g>
<g><path style="opacity:0.702" fill="#000000" d="M 626.5,28.5 C 626.141,30.371 625.141,31.871 623.5,33C 621.721,34.1404 620.054,35.307 618.5,36.5C 620.651,33.4034 623.317,30.7368 626.5,28.5 Z"/></g>
<g><path style="opacity:0.063" fill="#000000" d="M 45.5,35.5 C 48.0499,37.0772 50.0499,39.0772 51.5,41.5C 48.5622,40.378 46.5622,38.378 45.5,35.5 Z"/></g>
<g><path style="opacity:0.333" fill="#000000" d="M 656.5,32.5 C 660.342,38.1862 660.342,43.8529 656.5,49.5C 657.833,43.8333 657.833,38.1667 656.5,32.5 Z"/></g>
<g><path style="opacity:0.702" fill="#000000" d="M 616.5,38.5 C 613.022,43.4775 609.022,47.9775 604.5,52C 602.677,52.9973 601.01,54.1639 599.5,55.5C 599.369,54.7611 599.536,54.0944 600,53.5C 605.28,48.135 610.78,43.135 616.5,38.5 Z"/></g>
<g><path style="opacity:0.051" fill="#000000" d="M 53.5,43.5 C 55.9113,44.517 57.578,46.1837 58.5,48.5C 56.0887,47.483 54.422,45.8163 53.5,43.5 Z"/></g>
<g><path style="opacity:0.059" fill="#000000" d="M 8.5,32.5 C 6.96534,38.9462 7.29867,45.2795 9.5,51.5C 4.61625,45.4225 4.28292,39.0892 8.5,32.5 Z"/></g>
<g><path style="opacity:0.604" fill="#000000" d="M 60.5,50.5 C 62.3407,51.4023 63.674,52.7356 64.5,54.5C 62.2273,54.0432 60.894,52.7099 60.5,50.5 Z"/></g>
<g><path style="opacity:0.031" fill="#000000" d="M 12.5,54.5 C 14.5,55.8333 16.1667,57.5 17.5,59.5C 14.8333,58.8333 13.1667,57.1667 12.5,54.5 Z"/></g>
<g><path style="opacity:0.004" fill="#000000" d="M 68.5,58.5 C 70.5,58.5 71.5,59.5 71.5,61.5C 70.1667,60.8333 69.1667,59.8333 68.5,58.5 Z"/></g>
<g><path style="opacity:0.004" fill="#000000" d="M 652.5,54.5 C 651.833,57.1667 650.167,58.8333 647.5,59.5C 648.833,57.5 650.5,55.8333 652.5,54.5 Z"/></g>
<g><path style="opacity:0.016" fill="#000000" d="M 18.5,60.5 C 20.5,61.8333 22.1667,63.5 23.5,65.5C 20.8333,64.8333 19.1667,63.1667 18.5,60.5 Z"/></g>
<g><path style="opacity:0.627" fill="#000000" d="M 71.5,61.5 C 72.5,61.8333 73.1667,62.5 73.5,63.5C 72.1667,63.5 71.5,62.8333 71.5,61.5 Z"/></g>
<g><path style="opacity:0.02" fill="#000000" d="M 646.5,60.5 C 645.833,63.1667 644.167,64.8333 641.5,65.5C 642.833,63.5 644.5,61.8333 646.5,60.5 Z"/></g>
<g><path style="opacity:0.069" fill="#000000" d="M 75.5,65.5 C 76.8333,65.5 77.5,66.1667 77.5,67.5C 76.5,67.1667 75.8333,66.5 75.5,65.5 Z"/></g>
<g><path style="opacity:0.031" fill="#000000" d="M 25.5,67.5 C 27.5,68.8333 29.1667,70.5 30.5,72.5C 27.8333,71.8333 26.1667,70.1667 25.5,67.5 Z"/></g>
<g><path style="opacity:0.031" fill="#000000" d="M 639.5,67.5 C 638.833,70.1667 637.167,71.8333 634.5,72.5C 635.833,70.5 637.5,68.8333 639.5,67.5 Z"/></g>
<g><path style="opacity:0.588" fill="#000000" d="M 77.5,67.5 C 80.2422,69.5754 82.5756,71.9087 84.5,74.5C 81.1447,73.1448 78.8114,70.8114 77.5,67.5 Z"/></g>
<g><path style="opacity:0.016" fill="#000000" d="M 31.5,73.5 C 33.5,74.8333 35.1667,76.5 36.5,78.5C 33.8333,77.8333 32.1667,76.1667 31.5,73.5 Z"/></g>
<g><path style="opacity:0.58" fill="#000000" d="M 84.5,74.5 C 86.8818,76.215 88.8818,78.215 90.5,80.5C 87.4777,79.4778 85.4777,77.4778 84.5,74.5 Z"/></g>
<g><path style="opacity:0.024" fill="#000000" d="M 633.5,73.5 C 632.833,76.1667 631.167,77.8333 628.5,78.5C 629.833,76.5 631.5,74.8333 633.5,73.5 Z"/></g>
<g><path style="opacity:0.031" fill="#000000" d="M 38.5,80.5 C 40.5,81.8333 42.1667,83.5 43.5,85.5C 40.8333,84.8333 39.1667,83.1667 38.5,80.5 Z"/></g>
<g><path style="opacity:0.682" fill="#000000" d="M 599.5,55.5 C 599.631,56.2389 599.464,56.9056 599,57.5C 585.833,70.6667 572.667,83.8333 559.5,97C 558.906,97.4643 558.239,97.631 557.5,97.5C 571.167,83.1667 585.167,69.1667 599.5,55.5 Z"/></g>
<g><path style="opacity:0.616" fill="#000000" d="M 90.5,80.5 C 93.5272,82.8605 96.1938,85.5271 98.5,88.5C 94.8053,86.8054 92.1387,84.1387 90.5,80.5 Z"/></g>
<g><path style="opacity:0.016" fill="#000000" d="M 626.5,80.5 C 625.833,83.1667 624.167,84.8333 621.5,85.5C 622.833,83.5 624.5,81.8333 626.5,80.5 Z"/></g>
<g><path style="opacity:0.012" fill="#000000" d="M 44.5,86.5 C 46.8333,88.1667 48.8333,90.1667 50.5,92.5C 47.5,91.5 45.5,89.5 44.5,86.5 Z"/></g>
<g><path style="opacity:0.024" fill="#000000" d="M 620.5,86.5 C 619.5,89.5 617.5,91.5 614.5,92.5C 616.167,90.1667 618.167,88.1667 620.5,86.5 Z"/></g>
<g><path style="opacity:0.004" fill="#000000" d="M 100.5,90.5 C 102.19,90.8564 103.19,91.8564 103.5,93.5C 101.81,93.1436 100.81,92.1436 100.5,90.5 Z"/></g>
<g><path style="opacity:0.031" fill="#000000" d="M 51.5,93.5 C 52.9063,93.9731 53.573,94.9731 53.5,96.5C 52.0937,96.0269 51.427,95.0269 51.5,93.5 Z"/></g>
<g><path style="opacity:0.588" fill="#000000" d="M 103.5,93.5 C 105.167,94.5 106.5,95.8333 107.5,97.5C 105.167,97.1667 103.833,95.8333 103.5,93.5 Z"/></g>
<g><path style="opacity:0.02" fill="#000000" d="M 613.5,93.5 C 613.573,95.0269 612.906,96.0269 611.5,96.5C 611.427,94.9731 612.094,93.9731 613.5,93.5 Z"/></g>
<g><path style="opacity:0.427" fill="#000000" d="M 53.5,96.5 C 55.0269,96.427 56.0269,97.0937 56.5,98.5C 54.9731,98.573 53.9731,97.9063 53.5,96.5 Z"/></g>
<g><path style="opacity:0.095" fill="#000000" d="M 557.5,97.5 C 556.833,98.5 556.167,99.5 555.5,100.5C 555.167,100.5 554.833,100.5 554.5,100.5C 554.5,98.5 555.5,97.5 557.5,97.5 Z"/></g>
<g><path style="opacity:0.016" fill="#000000" d="M 611.5,96.5 C 611.027,97.9063 610.027,98.573 608.5,98.5C 608.973,97.0937 609.973,96.427 611.5,96.5 Z"/></g>
<g><path style="opacity:0.067" fill="#000000" d="M 107.5,97.5 C 109.19,97.8564 110.19,98.8564 110.5,100.5C 108.81,100.144 107.81,99.1436 107.5,97.5 Z"/></g>
<g><path style="opacity:0.012" fill="#000000" d="M 57.5,99.5 C 59.8333,101.167 61.8333,103.167 63.5,105.5C 60.5,104.5 58.5,102.5 57.5,99.5 Z"/></g>
<g><path style="opacity:0.027" fill="#000000" d="M 607.5,99.5 C 606.581,102.089 604.914,104.089 602.5,105.5C 603.419,102.911 605.086,100.911 607.5,99.5 Z"/></g>
<g><path style="opacity:0.612" fill="#000000" d="M 112.5,102.5 C 114.341,103.402 115.674,104.736 116.5,106.5C 114.227,106.043 112.894,104.71 112.5,102.5 Z"/></g>
<g><path style="opacity:0.027" fill="#000000" d="M 64.5,106.5 C 66.5,107.833 68.1667,109.5 69.5,111.5C 66.8333,110.833 65.1667,109.167 64.5,106.5 Z"/></g>
<g><path style="opacity:0.02" fill="#000000" d="M 600.5,106.5 C 599.833,109.167 598.167,110.833 595.5,111.5C 596.833,109.5 598.5,107.833 600.5,106.5 Z"/></g>
<g><path style="opacity:0.081" fill="#000000" d="M 120.5,110.5 C 122.19,110.856 123.19,111.856 123.5,113.5C 121.5,113.5 120.5,112.5 120.5,110.5 Z"/></g>
<g><path style="opacity:0.443" fill="#000000" d="M 70.5,113.5 C 73.0892,114.419 75.0892,116.086 76.5,118.5C 73.9108,117.581 71.9108,115.914 70.5,113.5 Z"/></g>
<g><path style="opacity:0.592" fill="#000000" d="M 123.5,113.5 C 125.167,114.5 126.5,115.833 127.5,117.5C 125.167,117.167 123.833,115.833 123.5,113.5 Z"/></g>
<g><path style="opacity:0.031" fill="#000000" d="M 594.5,113.5 C 593.089,115.914 591.089,117.581 588.5,118.5C 589.911,116.086 591.911,114.419 594.5,113.5 Z"/></g>
<g><path style="opacity:0.077" fill="#000000" d="M 127.5,117.5 C 129.939,119.027 131.939,121.027 133.5,123.5C 130.614,122.404 128.614,120.404 127.5,117.5 Z"/></g>
<g><path style="opacity:0.027" fill="#000000" d="M 77.5,119.5 C 79.5,120.833 81.1667,122.5 82.5,124.5C 79.8333,123.833 78.1667,122.167 77.5,119.5 Z"/></g>
<g><path style="opacity:0.016" fill="#000000" d="M 587.5,119.5 C 587.573,121.027 586.906,122.027 585.5,122.5C 585.427,120.973 586.094,119.973 587.5,119.5 Z"/></g>
<g><path style="opacity:0.024" fill="#000000" d="M 585.5,122.5 C 585.027,123.906 584.027,124.573 582.5,124.5C 582.973,123.094 583.973,122.427 585.5,122.5 Z"/></g>
<g><path style="opacity:0.004" fill="#000000" d="M 133.5,123.5 C 135.19,123.856 136.19,124.856 136.5,126.5C 134.81,126.144 133.81,125.144 133.5,123.5 Z"/></g>
<g><path style="opacity:0.008" fill="#000000" d="M 83.5,125.5 C 85.8333,127.167 87.8333,129.167 89.5,131.5C 86.5,130.5 84.5,128.5 83.5,125.5 Z"/></g>
<g><path style="opacity:0.027" fill="#000000" d="M 581.5,125.5 C 580.92,127.749 579.587,129.415 577.5,130.5C 578.08,128.251 579.413,126.585 581.5,125.5 Z"/></g>
<g><path style="opacity:0.561" fill="#000000" d="M 136.5,126.5 C 138.5,127.833 140.167,129.5 141.5,131.5C 138.833,130.833 137.167,129.167 136.5,126.5 Z"/></g>
<g><path style="opacity:0.663" fill="#000000" d="M 554.5,100.5 C 554.833,100.5 555.167,100.5 555.5,100.5C 544.287,112.212 532.954,123.712 521.5,135C 520.906,135.464 520.239,135.631 519.5,135.5C 530.457,123.175 542.124,111.509 554.5,100.5 Z"/></g>
<g><path style="opacity:0.027" fill="#000000" d="M 90.5,132.5 C 92.8333,134.167 94.8333,136.167 96.5,138.5C 93.5,137.5 91.5,135.5 90.5,132.5 Z"/></g>
<g><path style="opacity:0.035" fill="#000000" d="M 574.5,132.5 C 573.581,135.089 571.914,137.089 569.5,138.5C 570.419,135.911 572.086,133.911 574.5,132.5 Z"/></g>
<g><path style="opacity:0.114" fill="#000000" d="M 145.5,135.5 C 147.833,136.5 149.5,138.167 150.5,140.5C 147.833,139.833 146.167,138.167 145.5,135.5 Z"/></g>
<g><path style="opacity:0.463" fill="#000000" d="M 96.5,139.5 C 99.0892,140.419 101.089,142.086 102.5,144.5C 99.9108,143.581 97.9108,141.914 96.5,139.5 Z"/></g>
<g><path style="opacity:0.02" fill="#000000" d="M 567.5,139.5 C 566.833,142.167 565.167,143.833 562.5,144.5C 563.833,142.5 565.5,140.833 567.5,139.5 Z"/></g>
<g><path style="opacity:0.576" fill="#000000" d="M 152.5,142.5 C 154.833,144.167 156.833,146.167 158.5,148.5C 155.5,147.5 153.5,145.5 152.5,142.5 Z"/></g>
<g><path style="opacity:0.439" fill="#000000" d="M 103.5,146.5 C 106.089,147.419 108.089,149.086 109.5,151.5C 106.911,150.581 104.911,148.914 103.5,146.5 Z"/></g>
<g><path style="opacity:0.639" fill="#000000" d="M 519.5,135.5 C 514.854,142.146 509.188,147.812 502.5,152.5C 507.785,146.548 513.452,140.881 519.5,135.5 Z"/></g>
<g><path style="opacity:0.008" fill="#000000" d="M 560.5,147.5 C 559.415,149.587 557.749,150.92 555.5,151.5C 556.585,149.413 558.251,148.08 560.5,147.5 Z"/></g>
<g><path style="opacity:0.043" fill="#000000" d="M 110.5,152.5 C 112.5,153.833 114.167,155.5 115.5,157.5C 112.833,156.833 111.167,155.167 110.5,152.5 Z"/></g>
<g><path style="opacity:0.027" fill="#000000" d="M 554.5,152.5 C 554.573,154.027 553.906,155.027 552.5,155.5C 552.427,153.973 553.094,152.973 554.5,152.5 Z"/></g>
<g><path style="opacity:0.576" fill="#000000" d="M 160.5,150.5 C 163.167,152.5 165.5,154.833 167.5,157.5C 164.167,156.167 161.833,153.833 160.5,150.5 Z"/></g>
<g><path style="opacity:0.647" fill="#000000" d="M 502.5,152.5 C 501.189,155.811 498.855,158.145 495.5,159.5C 497.452,156.882 499.785,154.548 502.5,152.5 Z"/></g>
<g><path style="opacity:0.565" fill="#000000" d="M 167.5,157.5 C 168.833,158.167 169.833,159.167 170.5,160.5C 168.5,160.5 167.5,159.5 167.5,157.5 Z"/></g>
<g><path style="opacity:0.024" fill="#000000" d="M 116.5,158.5 C 118.833,160.167 120.833,162.167 122.5,164.5C 119.5,163.5 117.5,161.5 116.5,158.5 Z"/></g>
<g><path style="opacity:0.035" fill="#000000" d="M 548.5,158.5 C 547.92,160.749 546.587,162.415 544.5,163.5C 545.08,161.251 546.413,159.585 548.5,158.5 Z"/></g>
<g><path style="opacity:0.576" fill="#000000" d="M 170.5,160.5 C 172.833,162.167 174.833,164.167 176.5,166.5C 173.5,165.5 171.5,163.5 170.5,160.5 Z"/></g>
<g><path style="opacity:0.039" fill="#000000" d="M 123.5,165.5 C 125.833,167.167 127.833,169.167 129.5,171.5C 126.5,170.5 124.5,168.5 123.5,165.5 Z"/></g>
<g><path style="opacity:0.043" fill="#000000" d="M 541.5,165.5 C 540.833,168.167 539.167,169.833 536.5,170.5C 537.833,168.5 539.5,166.833 541.5,165.5 Z"/></g>
<g><path style="opacity:0.635" fill="#000000" d="M 495.5,159.5 C 495.631,160.239 495.464,160.906 495,161.5C 487.578,169.427 479.745,176.76 471.5,183.5C 478.86,174.806 486.86,166.806 495.5,159.5 Z"/></g>
<g><path style="opacity:0.529" fill="#000000" d="M 178.5,168.5 C 180.833,170.167 182.833,172.167 184.5,174.5C 181.5,173.5 179.5,171.5 178.5,168.5 Z"/></g>
<g><path style="opacity:0.447" fill="#000000" d="M 129.5,172.5 C 132.089,173.419 134.089,175.086 135.5,177.5C 132.911,176.581 130.911,174.914 129.5,172.5 Z"/></g>
<g><path style="opacity:0.02" fill="#000000" d="M 534.5,173.5 C 533.415,175.587 531.749,176.92 529.5,177.5C 530.585,175.413 532.251,174.08 534.5,173.5 Z"/></g>
<g><path style="opacity:0.561" fill="#000000" d="M 186.5,176.5 C 189.167,178.5 191.5,180.833 193.5,183.5C 190.167,182.167 187.833,179.833 186.5,176.5 Z"/></g>
<g><path style="opacity:0.039" fill="#000000" d="M 136.5,178.5 C 138.833,180.167 140.833,182.167 142.5,184.5C 139.5,183.5 137.5,181.5 136.5,178.5 Z"/></g>
<g><path style="opacity:0.024" fill="#000000" d="M 528.5,178.5 C 528.573,180.027 527.906,181.027 526.5,181.5C 526.427,179.973 527.094,178.973 528.5,178.5 Z"/></g>
<g><path style="opacity:0.031" fill="#000000" d="M 526.5,181.5 C 525.738,183.262 524.404,184.262 522.5,184.5C 523.262,182.738 524.596,181.738 526.5,181.5 Z"/></g>
<g><path style="opacity:0.145" fill="#000000" d="M 471.5,183.5 C 471.167,184.5 470.5,185.167 469.5,185.5C 469.5,184.167 470.167,183.5 471.5,183.5 Z"/></g>
<g><path style="opacity:0.02" fill="#000000" d="M 142.5,184.5 C 144.833,186.167 146.833,188.167 148.5,190.5C 145.5,189.5 143.5,187.5 142.5,184.5 Z"/></g>
<g><path style="opacity:0.518" fill="#000000" d="M 195.5,185.5 C 197.833,187.167 199.833,189.167 201.5,191.5C 198.5,190.5 196.5,188.5 195.5,185.5 Z"/></g>
<g><path style="opacity:0.035" fill="#000000" d="M 522.5,184.5 C 522.262,186.404 521.262,187.738 519.5,188.5C 519.738,186.596 520.738,185.262 522.5,184.5 Z"/></g>
<g><path style="opacity:0.631" fill="#000000" d="M 469.5,185.5 C 468.167,188.833 465.833,191.167 462.5,192.5C 464.5,189.833 466.833,187.5 469.5,185.5 Z"/></g>
<g><path style="opacity:0.035" fill="#000000" d="M 149.5,191.5 C 151.833,193.167 153.833,195.167 155.5,197.5C 152.5,196.5 150.5,194.5 149.5,191.5 Z"/></g>
<g><path style="opacity:0.043" fill="#000000" d="M 515.5,191.5 C 514.92,193.749 513.587,195.415 511.5,196.5C 512.08,194.251 513.413,192.585 515.5,191.5 Z"/></g>
<g><path style="opacity:0.557" fill="#000000" d="M 203.5,193.5 C 206.167,195.5 208.5,197.833 210.5,200.5C 207.167,199.167 204.833,196.833 203.5,193.5 Z"/></g>
<g><path style="opacity:0.627" fill="#000000" d="M 462.5,192.5 C 457.833,199.167 452.167,204.833 445.5,209.5C 450.86,203.473 456.527,197.806 462.5,192.5 Z"/></g>
<g><path style="opacity:0.482" fill="#000000" d="M 155.5,198.5 C 158.089,199.419 160.089,201.086 161.5,203.5C 158.911,202.581 156.911,200.914 155.5,198.5 Z"/></g>
<g><path style="opacity:0.043" fill="#000000" d="M 509.5,198.5 C 508.089,200.914 506.089,202.581 503.5,203.5C 504.911,201.086 506.911,199.419 509.5,198.5 Z"/></g>
<g><path style="opacity:0.545" fill="#000000" d="M 210.5,200.5 C 213.5,202.833 216.167,205.5 218.5,208.5C 214.833,206.833 212.167,204.167 210.5,200.5 Z"/></g>
<g><path style="opacity:0.482" fill="#000000" d="M 162.5,205.5 C 165.089,206.419 167.089,208.086 168.5,210.5C 165.911,209.581 163.911,207.914 162.5,205.5 Z"/></g>
<g><path style="opacity:0.039" fill="#000000" d="M 500.5,207.5 C 499.738,209.262 498.404,210.262 496.5,210.5C 497.262,208.738 498.596,207.738 500.5,207.5 Z"/></g>
<g><path style="opacity:0.012" fill="#000000" d="M 168.5,210.5 C 171.167,212.5 173.5,214.833 175.5,217.5C 172.167,216.167 169.833,213.833 168.5,210.5 Z"/></g>
<g><path style="opacity:0.008" fill="#000000" d="M 496.5,210.5 C 496.573,212.027 495.906,213.027 494.5,213.5C 494.427,211.973 495.094,210.973 496.5,210.5 Z"/></g>
<g><path style="opacity:0.498" fill="#000000" d="M 218.5,208.5 C 221.833,211.167 224.833,214.167 227.5,217.5C 223.5,215.5 220.5,212.5 218.5,208.5 Z"/></g>
<g><path style="opacity:0.62" fill="#000000" d="M 445.5,209.5 C 445.631,210.239 445.464,210.906 445,211.5C 436.912,220.093 428.412,228.093 419.5,235.5C 427.833,226.5 436.5,217.833 445.5,209.5 Z"/></g>
<g><path style="opacity:0.035" fill="#000000" d="M 175.5,217.5 C 177.833,219.167 179.833,221.167 181.5,223.5C 178.5,222.5 176.5,220.5 175.5,217.5 Z"/></g>
<g><path style="opacity:0.533" fill="#000000" d="M 227.5,217.5 C 230.5,219.833 233.167,222.5 235.5,225.5C 231.833,223.833 229.167,221.167 227.5,217.5 Z"/></g>
<g><path style="opacity:0.043" fill="#000000" d="M 489.5,217.5 C 489.262,219.404 488.262,220.738 486.5,221.5C 486.738,219.596 487.738,218.262 489.5,217.5 Z"/></g>
<g><path style="opacity:0.498" fill="#000000" d="M 181.5,224.5 C 184.427,225.757 186.761,227.757 188.5,230.5C 185.573,229.243 183.239,227.243 181.5,224.5 Z"/></g>
<g><path style="opacity:0.051" fill="#000000" d="M 483.5,224.5 C 481.833,226.833 479.833,228.833 477.5,230.5C 478.5,227.5 480.5,225.5 483.5,224.5 Z"/></g>
<g><path style="opacity:0.529" fill="#000000" d="M 235.5,225.5 C 238.833,228.167 241.833,231.167 244.5,234.5C 240.5,232.5 237.5,229.5 235.5,225.5 Z"/></g>
<g><path style="opacity:0.494" fill="#000000" d="M 188.5,231.5 C 191.089,232.419 193.089,234.086 194.5,236.5C 191.911,235.581 189.911,233.914 188.5,231.5 Z"/></g>
<g><path style="opacity:0.047" fill="#000000" d="M 474.5,233.5 C 473.738,235.262 472.404,236.262 470.5,236.5C 471.262,234.738 472.596,233.738 474.5,233.5 Z"/></g>
<g><path style="opacity:0.533" fill="#000000" d="M 244.5,234.5 C 247.5,236.833 250.167,239.5 252.5,242.5C 248.833,240.833 246.167,238.167 244.5,234.5 Z"/></g>
<g><path style="opacity:0.004" fill="#000000" d="M 470.5,236.5 C 470.573,238.027 469.906,239.027 468.5,239.5C 468.427,237.973 469.094,236.973 470.5,236.5 Z"/></g>
<g><path style="opacity:0.494" fill="#000000" d="M 195.5,238.5 C 198.089,239.419 200.089,241.086 201.5,243.5C 198.911,242.581 196.911,240.914 195.5,238.5 Z"/></g>
<g><path style="opacity:0.604" fill="#000000" d="M 419.5,235.5 C 417.833,239.167 415.167,241.833 411.5,243.5C 413.833,240.5 416.5,237.833 419.5,235.5 Z"/></g>
<g><path style="opacity:0.016" fill="#000000" d="M 466.5,241.5 C 466.027,242.906 465.027,243.573 463.5,243.5C 463.973,242.094 464.973,241.427 466.5,241.5 Z"/></g>
<g><path style="opacity:0.031" fill="#000000" d="M 201.5,243.5 C 202.906,243.973 203.573,244.973 203.5,246.5C 202.094,246.027 201.427,245.027 201.5,243.5 Z"/></g>
<g><path style="opacity:0.02" fill="#000000" d="M 463.5,243.5 C 463.573,245.027 462.906,246.027 461.5,246.5C 461.427,244.973 462.094,243.973 463.5,243.5 Z"/></g>
<g><path style="opacity:0.486" fill="#000000" d="M 252.5,242.5 C 255.833,245.167 258.833,248.167 261.5,251.5C 257.5,249.5 254.5,246.5 252.5,242.5 Z"/></g>
<g><path style="opacity:0.486" fill="#000000" d="M 203.5,246.5 C 205.404,246.738 206.738,247.738 207.5,249.5C 205.596,249.262 204.262,248.262 203.5,246.5 Z"/></g>
<g><path style="opacity:0.49" fill="#000000" d="M 207.5,250.5 C 210.427,251.757 212.761,253.757 214.5,256.5C 211.573,255.243 209.239,253.243 207.5,250.5 Z"/></g>
<g><path style="opacity:0.051" fill="#000000" d="M 456.5,250.5 C 455.92,252.749 454.587,254.415 452.5,255.5C 453.08,253.251 454.413,251.585 456.5,250.5 Z"/></g>
<g><path style="opacity:0.486" fill="#000000" d="M 261.5,251.5 C 264.5,253.833 267.167,256.5 269.5,259.5C 265.833,257.833 263.167,255.167 261.5,251.5 Z"/></g>
<g><path style="opacity:0.49" fill="#000000" d="M 214.5,257.5 C 217.427,258.757 219.761,260.757 221.5,263.5C 218.573,262.243 216.239,260.243 214.5,257.5 Z"/></g>
<g><path style="opacity:0.055" fill="#000000" d="M 449.5,258.5 C 448.167,260.5 446.5,262.167 444.5,263.5C 445.167,260.833 446.833,259.167 449.5,258.5 Z"/></g>
<g><path style="opacity:0.51" fill="#000000" d="M 269.5,259.5 C 272.833,262.167 275.833,265.167 278.5,268.5C 274.5,266.5 271.5,263.5 269.5,259.5 Z"/></g>
<g><path style="opacity:0.51" fill="#000000" d="M 221.5,264.5 C 224.089,265.419 226.089,267.086 227.5,269.5C 224.911,268.581 222.911,266.914 221.5,264.5 Z"/></g>
<g><path style="opacity:0.024" fill="#000000" d="M 440.5,267.5 C 440.027,268.906 439.027,269.573 437.5,269.5C 437.973,268.094 438.973,267.427 440.5,267.5 Z"/></g>
<g><path style="opacity:0.027" fill="#000000" d="M 227.5,269.5 C 230.167,271.5 232.5,273.833 234.5,276.5C 231.167,275.167 228.833,272.833 227.5,269.5 Z"/></g>
<g><path style="opacity:0.506" fill="#000000" d="M 278.5,268.5 C 281.833,271.167 284.833,274.167 287.5,277.5C 283.5,275.5 280.5,272.5 278.5,268.5 Z"/></g>
<g><path style="opacity:0.016" fill="#000000" d="M 437.5,269.5 C 437.573,271.027 436.906,272.027 435.5,272.5C 435.427,270.973 436.094,269.973 437.5,269.5 Z"/></g>
<g><path style="opacity:0.047" fill="#000000" d="M 234.5,276.5 C 236.833,278.167 238.833,280.167 240.5,282.5C 237.5,281.5 235.5,279.5 234.5,276.5 Z"/></g>
<g><path style="opacity:0.051" fill="#000000" d="M 430.5,276.5 C 430.262,278.404 429.262,279.738 427.5,280.5C 427.738,278.596 428.738,277.262 430.5,276.5 Z"/></g>
<g><path style="opacity:0.506" fill="#000000" d="M 287.5,277.5 C 290.5,279.833 293.167,282.5 295.5,285.5C 291.833,283.833 289.167,281.167 287.5,277.5 Z"/></g>
<g><path style="opacity:0.506" fill="#000000" d="M 240.5,283.5 C 243.427,284.757 245.761,286.757 247.5,289.5C 244.573,288.243 242.239,286.243 240.5,283.5 Z"/></g>
<g><path style="opacity:0.502" fill="#000000" d="M 295.5,285.5 C 301.5,290.833 307.167,296.5 312.5,302.5C 305.833,297.833 300.167,292.167 295.5,285.5 Z"/></g>
<g><path style="opacity:0.059" fill="#000000" d="M 424.5,283.5 C 423.167,285.5 421.5,287.167 419.5,288.5C 420.167,285.833 421.833,284.167 424.5,283.5 Z"/></g>
<g><path style="opacity:0.525" fill="#000000" d="M 247.5,290.5 C 252.44,293.77 256.773,297.77 260.5,302.5C 255.56,299.23 251.227,295.23 247.5,290.5 Z"/></g>
<g><path style="opacity:0.035" fill="#000000" d="M 416.5,291.5 C 415.415,293.587 413.749,294.92 411.5,295.5C 412.585,293.413 414.251,292.08 416.5,291.5 Z"/></g>
<g><path style="opacity:0.612" fill="#000000" d="M 411.5,243.5 C 389.217,267.45 366.217,290.783 342.5,313.5C 364.783,289.55 387.783,266.217 411.5,243.5 Z"/></g>
<g><path style="opacity:0.043" fill="#000000" d="M 260.5,302.5 C 265.167,306.5 269.5,310.833 273.5,315.5C 268.167,312.167 263.833,307.833 260.5,302.5 Z"/></g>
<g><path style="opacity:0.027" fill="#000000" d="M 404.5,302.5 C 404.573,304.027 403.906,305.027 402.5,305.5C 402.427,303.973 403.094,302.973 404.5,302.5 Z"/></g>
<g><path style="opacity:0.043" fill="#000000" d="M 398.5,309.5 C 397.5,311.167 396.167,312.5 394.5,313.5C 394.833,311.167 396.167,309.833 398.5,309.5 Z"/></g>
<g><path style="opacity:0.361" fill="#000000" d="M 312.5,302.5 C 318.965,308.464 325.298,314.631 331.5,321C 332.448,321.483 333.448,321.649 334.5,321.5C 334.5,321.833 334.5,322.167 334.5,322.5C 333.577,323.303 332.577,323.47 331.5,323C 324.572,316.577 318.238,309.744 312.5,302.5 Z"/></g>
<g><path style="opacity:0.541" fill="#000000" d="M 273.5,316.5 C 278.44,319.77 282.773,323.77 286.5,328.5C 281.56,325.23 277.227,321.23 273.5,316.5 Z"/></g>
<g><path style="opacity:0.671" fill="#000000" d="M 342.5,313.5 C 340.546,317.032 337.879,320.032 334.5,322.5C 334.5,322.167 334.5,321.833 334.5,321.5C 336.728,318.36 339.395,315.694 342.5,313.5 Z"/></g>
<g><path style="opacity:0.063" fill="#000000" d="M 389.5,318.5 C 388.833,319.833 387.833,320.833 386.5,321.5C 386.5,319.5 387.5,318.5 389.5,318.5 Z"/></g>
<g><path style="opacity:0.576" fill="#000000" d="M 287.5,330.5 C 301.782,343.114 315.448,356.447 328.5,370.5C 314.218,357.886 300.552,344.553 287.5,330.5 Z"/></g>
<g><path style="opacity:0.012" fill="#000000" d="M 377.5,330.5 C 377.5,331.833 376.833,332.5 375.5,332.5C 375.833,331.5 376.5,330.833 377.5,330.5 Z"/></g>
<g><path style="opacity:0.012" fill="#000000" d="M 375.5,332.5 C 375.5,333.833 374.833,334.5 373.5,334.5C 373.833,333.5 374.5,332.833 375.5,332.5 Z"/></g>
<g><path style="opacity:0.012" fill="#000000" d="M 370.5,337.5 C 370.5,338.833 369.833,339.5 368.5,339.5C 368.833,338.5 369.5,337.833 370.5,337.5 Z"/></g>
<g><path style="opacity:0.008" fill="#000000" d="M 368.5,339.5 C 368.5,340.833 367.833,341.5 366.5,341.5C 366.833,340.5 367.5,339.833 368.5,339.5 Z"/></g>
<g><path style="opacity:0.004" fill="#000000" d="M 365.5,342.5 C 365.5,343.833 364.833,344.5 363.5,344.5C 363.833,343.5 364.5,342.833 365.5,342.5 Z"/></g>
<g><path style="opacity:0.012" fill="#000000" d="M 363.5,344.5 C 363.5,345.833 362.833,346.5 361.5,346.5C 361.833,345.5 362.5,344.833 363.5,344.5 Z"/></g>
<g><path style="opacity:0.004" fill="#000000" d="M 361.5,346.5 C 361.5,347.833 360.833,348.5 359.5,348.5C 359.833,347.5 360.5,346.833 361.5,346.5 Z"/></g>
<g><path style="opacity:0.008" fill="#000000" d="M 358.5,349.5 C 358.5,350.833 357.833,351.5 356.5,351.5C 356.833,350.5 357.5,349.833 358.5,349.5 Z"/></g>
<g><path style="opacity:0.012" fill="#000000" d="M 356.5,351.5 C 356.5,352.833 355.833,353.5 354.5,353.5C 354.833,352.5 355.5,351.833 356.5,351.5 Z"/></g>
<g><path style="opacity:0.012" fill="#000000" d="M 351.5,356.5 C 351.5,357.833 350.833,358.5 349.5,358.5C 349.833,357.5 350.5,356.833 351.5,356.5 Z"/></g>
<g><path style="opacity:0.012" fill="#000000" d="M 349.5,358.5 C 349.5,359.833 348.833,360.5 347.5,360.5C 347.833,359.5 348.5,358.833 349.5,358.5 Z"/></g>
<g><path style="opacity:0.012" fill="#000000" d="M 344.5,363.5 C 344.5,364.833 343.833,365.5 342.5,365.5C 342.833,364.5 343.5,363.833 344.5,363.5 Z"/></g>
<g><path style="opacity:0.012" fill="#000000" d="M 342.5,365.5 C 342.5,366.833 341.833,367.5 340.5,367.5C 340.833,366.5 341.5,365.833 342.5,365.5 Z"/></g>
</svg>
